<svg xmlns="http://www.w3.org/2000/svg" xmlns:xlink="http://www.w3.org/1999/xlink" viewBox="0 0 205.93 95.26"><defs><style>.cls-1{mask:url(#mask);filter:url(#luminosity-noclip-3);}.cls-14,.cls-2,.cls-26,.cls-4,.cls-8{mix-blend-mode:multiply;}.cls-2{fill:url(#Áåçûìÿííûé_ãðàäèåíò_14);}.cls-3{mask:url(#mask-2);filter:url(#luminosity-noclip-4);}.cls-4{fill:url(#Áåçûìÿííûé_ãðàäèåíò_14-2);}.cls-5{isolation:isolate;}.cls-12,.cls-13,.cls-24,.cls-6{fill:#fff7cc;}.cls-7{fill:#001138;}.cls-26,.cls-8{fill:#b86053;}.cls-12,.cls-14,.cls-8{opacity:0.5;}.cls-9{fill:url(#Áåçûìÿííûé_ãðàäèåíò_287);}.cls-10{fill:#002a40;}.cls-11{fill:url(#Áåçûìÿííûé_ãðàäèåíò_433);}.cls-12,.cls-13,.cls-24,.cls-28,.cls-32{mix-blend-mode:screen;}.cls-13,.cls-26{opacity:0.4;}.cls-14{fill:#22567d;}.cls-15{fill:url(#Áåçûìÿííûé_ãðàäèåíò_287-2);}.cls-16{fill:url(#Áåçûìÿííûé_ãðàäèåíò_433-2);}.cls-17{fill:url(#Áåçûìÿííûé_ãðàäèåíò_6);}.cls-18{fill:url(#Áåçûìÿííûé_ãðàäèåíò_21);}.cls-19{fill:url(#Áåçûìÿííûé_ãðàäèåíò_17);}.cls-20{fill:url(#Áåçûìÿííûé_ãðàäèåíò_17-2);}.cls-21{fill:#993352;}.cls-22{fill:url(#Áåçûìÿííûé_ãðàäèåíò_7);}.cls-23{fill:#9a1418;}.cls-24{opacity:0.3;}.cls-25{fill:#d96118;}.cls-27{mask:url(#mask-3);}.cls-28,.cls-32{opacity:0.75;}.cls-28{fill:url(#Áåçûìÿííûé_ãðàäèåíò_29);}.cls-29{fill:#ffd699;}.cls-30{fill:#f7a01e;}.cls-31{mask:url(#mask-4);}.cls-32{fill:url(#Áåçûìÿííûé_ãðàäèåíò_29-2);}.cls-33{fill:url(#Áåçûìÿííûé_ãðàäèåíò_54);}.cls-34{fill:url(#Áåçûìÿííûé_ãðàäèåíò_17-3);}.cls-35{fill:#004d5c;}.cls-36{fill:url(#Áåçûìÿííûé_ãðàäèåíò_54-2);}.cls-37{fill:url(#Áåçûìÿííûé_ãðàäèåíò_17-4);}.cls-38{fill:url(#Áåçûìÿííûé_ãðàäèåíò_4);}.cls-39{filter:url(#luminosity-noclip-2);}.cls-40{filter:url(#luminosity-noclip);}</style><filter id="luminosity-noclip" x="48.34" y="-8224.69" width="86.99" height="32766" filterUnits="userSpaceOnUse" color-interpolation-filters="sRGB"><feFlood flood-color="#fff" result="bg"/><feBlend in="SourceGraphic" in2="bg"/></filter><mask id="mask" x="48.34" y="-8224.69" width="86.99" height="32766" maskUnits="userSpaceOnUse"><g class="cls-40"/></mask><linearGradient id="Áåçûìÿííûé_ãðàäèåíò_14" x1="-349.68" y1="31.1" x2="-349.68" y2="2.79" gradientTransform="translate(441.52)" gradientUnits="userSpaceOnUse"><stop offset="0" stop-color="#fff"/><stop offset="1"/></linearGradient><filter id="luminosity-noclip-2" x="23.55" y="-8224.69" width="152.94" height="32766" filterUnits="userSpaceOnUse" color-interpolation-filters="sRGB"><feFlood flood-color="#fff" result="bg"/><feBlend in="SourceGraphic" in2="bg"/></filter><mask id="mask-2" x="23.55" y="-8224.69" width="152.94" height="32766" maskUnits="userSpaceOnUse"><g class="cls-39"/></mask><linearGradient id="Áåçûìÿííûé_ãðàäèåíò_14-2" x1="-341.5" y1="60.98" x2="-340.84" y2="50.36" xlink:href="#Áåçûìÿííûé_ãðàäèåíò_14"/><linearGradient id="Áåçûìÿííûé_ãðàäèåíò_287" x1="-395.39" y1="70.01" x2="-395.39" y2="94.29" gradientTransform="translate(441.52)" gradientUnits="userSpaceOnUse"><stop offset="0" stop-color="#131f49"/><stop offset="0.87" stop-color="#14466a"/><stop offset="1" stop-color="#22567d"/></linearGradient><radialGradient id="Áåçûìÿííûé_ãðàäèåíò_433" cx="-393.09" cy="79.08" r="13.58" gradientTransform="translate(441.52 0.21)" gradientUnits="userSpaceOnUse"><stop offset="0" stop-color="#e2f0d5"/><stop offset="0.01" stop-color="#d9e7cf"/><stop offset="0.05" stop-color="#b9c9b9"/><stop offset="0.1" stop-color="#9eb0a7"/><stop offset="0.14" stop-color="#8a9d99"/><stop offset="0.2" stop-color="#7b8f8f"/><stop offset="0.26" stop-color="#73878a"/><stop offset="0.37" stop-color="#708588"/><stop offset="1" stop-color="#dad1c0"/></radialGradient><linearGradient id="Áåçûìÿííûé_ãðàäèåíò_287-2" x1="-278.2" y1="70.01" x2="-278.2" y2="94.29" xlink:href="#Áåçûìÿííûé_ãðàäèåíò_287"/><radialGradient id="Áåçûìÿííûé_ãðàäèåíò_433-2" cx="-275.9" cy="79.08" r="13.58" xlink:href="#Áåçûìÿííûé_ãðàäèåíò_433"/><linearGradient id="Áåçûìÿííûé_ãðàäèåíò_6" x1="-350.03" y1="54.67" x2="-350.03" y2="4.19" gradientTransform="translate(441.52)" gradientUnits="userSpaceOnUse"><stop offset="0" stop-color="#00b8c4"/><stop offset="0.03" stop-color="#15c2c4"/><stop offset="0.08" stop-color="#3cd5c5"/><stop offset="0.14" stop-color="#5be4c6"/><stop offset="0.2" stop-color="#71eec7"/><stop offset="0.25" stop-color="#7ff5c7"/><stop offset="0.3" stop-color="#83f7c7"/><stop offset="0.39" stop-color="#7af3c7"/><stop offset="0.55" stop-color="#63e8c6"/><stop offset="0.75" stop-color="#3cd5c5"/><stop offset="0.97" stop-color="#08bcc4"/><stop offset="1" stop-color="#00b8c4"/></linearGradient><linearGradient id="Áåçûìÿííûé_ãðàäèåíò_21" x1="-350.03" y1="50.85" x2="-350.03" y2="30.1" gradientTransform="translate(441.52)" gradientUnits="userSpaceOnUse"><stop offset="0.04" stop-color="#83f7c7"/><stop offset="0.14" stop-color="#7af3c7"/><stop offset="0.3" stop-color="#63e8c6"/><stop offset="0.49" stop-color="#3cd5c5"/><stop offset="0.72" stop-color="#08bcc4"/><stop offset="0.75" stop-color="#00b8c4"/></linearGradient><linearGradient id="Áåçûìÿííûé_ãðàäèåíò_17" x1="-346.31" y1="-3.88" x2="-350.29" y2="50.78" gradientTransform="translate(441.52)" gradientUnits="userSpaceOnUse"><stop offset="0.08" stop-color="#ff7082"/><stop offset="0.25" stop-color="#f64e6c"/><stop offset="0.44" stop-color="#ed2d58"/><stop offset="0.61" stop-color="#e7194c"/><stop offset="0.71" stop-color="#e51247"/></linearGradient><linearGradient id="Áåçûìÿííûé_ãðàäèåíò_17-2" x1="-339.21" y1="45.97" x2="-342.31" y2="84.93" xlink:href="#Áåçûìÿííûé_ãðàäèåíò_17"/><linearGradient id="Áåçûìÿííûé_ãðàäèåíò_7" x1="-431.2" y1="54.02" x2="-417.53" y2="54.02" gradientTransform="translate(441.52)" gradientUnits="userSpaceOnUse"><stop offset="0" stop-color="#e7855f"/><stop offset="1" stop-color="#9a1418"/></linearGradient><filter id="luminosity-noclip-3" x="48.34" y="1.59" width="86.99" height="31.64" filterUnits="userSpaceOnUse" color-interpolation-filters="sRGB"><feFlood flood-color="#fff" result="bg"/><feBlend in="SourceGraphic" in2="bg"/></filter><mask id="mask-3" x="48.34" y="1.59" width="86.99" height="31.64" maskUnits="userSpaceOnUse"><g class="cls-1"><path class="cls-2" d="M50.44,25.14c3.32-6.62,6.71-12.64,10.78-19.25l.2-.34.4,0c2.83.15,5.82.36,8.91.63l.74.06L67.38,25.92l1.34.07L72.81,6.38l.59.06c7.24.7,14.5,1.69,21.58,3l.53.09.59,18.72,1.33.14L96.85,9.73l.81.16A208.22,208.22,0,0,1,125.25,17l.26.09.12.25c2.63,5.23,5.06,10.33,7.4,15.54l2.3.35Q131,23.54,126.18,14A234.23,234.23,0,0,0,61.52,1.59C56.65,9.42,52.39,17,48.34,25.07Z"/></g></mask><linearGradient id="Áåçûìÿííûé_ãðàäèåíò_29" x1="-349.68" y1="31.1" x2="-349.68" y2="2.79" gradientTransform="translate(441.52)" gradientUnits="userSpaceOnUse"><stop offset="0" stop-color="#fff7cc"/><stop offset="1" stop-color="#fff7cc"/></linearGradient><filter id="luminosity-noclip-4" x="23.55" y="46.98" width="152.94" height="18.95" filterUnits="userSpaceOnUse" color-interpolation-filters="sRGB"><feFlood flood-color="#fff" result="bg"/><feBlend in="SourceGraphic" in2="bg"/></filter><mask id="mask-4" x="23.55" y="46.98" width="152.94" height="18.95" maskUnits="userSpaceOnUse"><g class="cls-3"><path class="cls-4" d="M142.49,54.92q15.75,1.9,31.45,4.23l2.55,6.78Q160.74,64.52,145,63.28Zm-2.51-.3q-20.52-2.41-41.16-4.1l.5,9.44q21.44,1.4,42.88,3.1ZM39.68,47.3C34.82,47.17,30,47.05,25.1,47l-1.55,8.89q6.69.29,13.4.61Zm0,9.3q28.47,1.35,57,3.19l-.49-9.48q-26.8-2.1-53.82-2.93Z"/></g></mask><linearGradient id="Áåçûìÿííûé_ãðàäèåíò_29-2" x1="-341.5" y1="60.98" x2="-340.84" y2="50.36" xlink:href="#Áåçûìÿííûé_ãðàäèåíò_29"/><linearGradient id="Áåçûìÿííûé_ãðàäèåíò_54" x1="-390.74" y1="59.65" x2="-390.74" y2="53.33" gradientTransform="translate(441.52)" gradientUnits="userSpaceOnUse"><stop offset="0" stop-color="#4da9a3"/><stop offset="1" stop-color="#004d5c"/></linearGradient><linearGradient id="Áåçûìÿííûé_ãðàäèåíò_17-3" x1="-390.35" y1="52.69" x2="-390.51" y2="57.96" xlink:href="#Áåçûìÿííûé_ãðàäèåíò_17"/><linearGradient id="Áåçûìÿííûé_ãðàäèåíò_54-2" x1="-335.24" y1="79.55" x2="-335.24" y2="73.2" gradientTransform="translate(444.65 -9.45) rotate(1.2)" xlink:href="#Áåçûìÿííûé_ãðàäèåíò_54"/><linearGradient id="Áåçûìÿííûé_ãðàäèåíò_17-4" x1="-335.17" y1="72.58" x2="-335.34" y2="77.87" gradientTransform="translate(444.65 -9.45) rotate(1.2)" xlink:href="#Áåçûìÿííûé_ãðàäèåíò_17"/><radialGradient id="Áåçûìÿííûé_ãðàäèåíò_4" cx="2621.49" cy="82.97" r="5.35" gradientTransform="matrix(-0.42, 0, -0.21, 1, 1316.34, 0.21)" gradientUnits="userSpaceOnUse"><stop offset="0" stop-color="#83f7c7"/><stop offset="0.88" stop-color="#00b8c4"/></radialGradient></defs><g class="cls-5"><g id="Layer_2" data-name="Layer 2"><g id="layer_1-2" data-name="layer 1"><path class="cls-6" d="M178.92,84l-.06.41h0l15.47-.35-.34.22a23.32,23.32,0,0,0,1.16-11.44l.59.52-3.35.07h-.44l-.18-.42a35,35,0,0,0-3.95-7,41.2,41.2,0,0,0-5.34-5.94l.42.22c-6.53-1.36-13.13-2.4-19.74-3.36s-13.26-1.77-19.9-2.5l-.53-.06-.19-.47h0L142,52.53l1.49.15,1.2.13-.92,1.2a433.66,433.66,0,0,0-17.86-40.17l.5.44A236.48,236.48,0,0,0,94.18,5.73,229.78,229.78,0,0,0,61.12,1.8l.79-.42q-6.69,10.73-12.46,22c-3.83,7.5-7.32,15.18-10.59,23l-.78-1.23,1.57.07L39.55,47c-2.6-.12-5.19-.15-7.79-.23L24,46.53l-1.05,0,.18-1v0l.84,1-4,0c-.66,0-1.36,0-2,0l-1,.06-.45,0-.18,0h0s0,0,.23-.14l.15-.2a47.7,47.7,0,0,0-5.46,16.24l-.1.6-.6.13L5,64.49l.72-.93A65.71,65.71,0,0,0,7.05,74.11a46,46,0,0,0,3.4,10.06L10,83.89l20.64.43-.08.06.86-1.87v0h0l1.69,0-1.69,0,0,0-.77,1.89,0,.06h-.06L10,84.92H9.67l-.15-.29a47.69,47.69,0,0,1-3.89-10.2A55.47,55.47,0,0,1,3.94,63.65l0-.77.75-.16,5.48-1.12-.69.73a49.26,49.26,0,0,1,5.67-16.85l.07-.12.08-.07a1.14,1.14,0,0,1,.45-.26l.21-.06.32,0,.56-.06,1.05-.06c.69,0,1.35,0,2,0l4.12,0h1l-.2,1.05v0l-.86-1,7.81.2c2.6.08,5.21.1,7.81.23L39.52,47,38,46.88l-1.27-.05.49-1.18c3.29-7.8,6.8-15.53,10.65-23.08S55.92,7.63,60.4.44L60.68,0l.52,0A232,232,0,0,1,94.52,4a237.47,237.47,0,0,1,32.42,8.61l.34.12.16.32a430.64,430.64,0,0,1,17.93,40.33l.52,1.36-1.44-.16-1.2-.12.91-1.23h0l-.72-.53q10,1.1,20,2.51c6.64.94,13.26,2,19.86,3.34l.24.05.18.17a33.48,33.48,0,0,1,5.49,6.33A37.2,37.2,0,0,1,193,72.51l-.61-.41,3.35.06h.54l0,.52a24.21,24.21,0,0,1-1.67,11.85l-.1.23h-.23l-15.47-.35h0Z"/><path class="cls-7" d="M163.24,93.55A8.85,8.85,0,0,1,156,90.23c-1.69-2.29-2-5.45-1-8.88,2.21-7.3,9.94-13.24,17.22-13.24h.12a8.85,8.85,0,0,1,7.29,3.32c1.68,2.29,2,5.45,1,8.88-2.21,7.3-9.93,13.24-17.21,13.24Z"/><path class="cls-7" d="M46.1,93.55a8.82,8.82,0,0,1-7.29-3.32c-1.69-2.29-2.05-5.45-1-8.88C40,74.05,47.73,68.11,55,68.11h.11a8.82,8.82,0,0,1,7.29,3.32c1.69,2.29,2,5.45,1,8.88-2.21,7.3-9.93,13.24-17.22,13.24Z"/><ellipse class="cls-8" cx="102.96" cy="92.3" rx="102.96" ry="2.96"/><rect class="cls-7" x="23.99" y="63.72" width="159.13" height="18.8"/><path class="cls-9" d="M41.61,94a8.86,8.86,0,0,1-7.3-3.32c-1.68-2.3-2-5.45-1-8.88,2.21-7.3,9.93-13.24,17.21-13.24h.12a8.82,8.82,0,0,1,7.29,3.32c1.69,2.29,2,5.45,1,8.88C56.73,88.05,49,94,41.72,94Z"/><path class="cls-10" d="M42.54,88a3.92,3.92,0,0,1-3.11-1.26,4.74,4.74,0,0,1-.28-4.16c1.39-4.56,6.52-8.56,11-8.56h.08a3.94,3.94,0,0,1,3.12,1.26c.7,1,.79,2.42.27,4.16C52.24,84,47.11,88,42.64,88Z"/><path class="cls-11" d="M42.55,87.06a3.1,3.1,0,0,1-2.34-.87,3.89,3.89,0,0,1-.13-3.3C41.33,78.77,46.13,75,50.15,75h.07a3.1,3.1,0,0,1,2.35.86,3.92,3.92,0,0,1,.12,3.31c-1.25,4.11-6,7.86-10,7.87Z"/><path class="cls-12" d="M53.26,75.27l.14.18a2.87,2.87,0,0,1,.36.56,5.24,5.24,0,0,1,.61,2.4,6.86,6.86,0,0,1-1,3.57,13.2,13.2,0,0,1-2.94,3.43,15.61,15.61,0,0,1-3.76,2.49,8.67,8.67,0,0,1-3.61.78,6.42,6.42,0,0,1-2.43-.47,4.56,4.56,0,0,1-.8-.4,6,6,0,0,0,.84.3,6.6,6.6,0,0,0,2.38.24,9,9,0,0,0,3.38-1A17,17,0,0,0,50,84.91a14.79,14.79,0,0,0,2.9-3.21A6.9,6.9,0,0,0,54,78.4a5.17,5.17,0,0,0-.36-2.34,3.57,3.57,0,0,0-.29-.59Z"/><path class="cls-12" d="M37.77,92a3.69,3.69,0,0,1-.65-.23,5.17,5.17,0,0,1-1.56-1.08A6.53,6.53,0,0,1,34,88.3a9,9,0,0,1-.44-3.46,14.68,14.68,0,0,1,1.81-6,16.59,16.59,0,0,1,1-1.58c.26-.36.42-.54.42-.54l-.33.59c-.21.39-.5,1-.81,1.68a18.44,18.44,0,0,0-1.44,5.84,9.47,9.47,0,0,0,.31,3.25,6.75,6.75,0,0,0,1.22,2.35,6.06,6.06,0,0,0,1.36,1.22A4.48,4.48,0,0,0,37.77,92Z"/><path class="cls-13" d="M41.29,81.69c1.36,3.46,4.7,3.07,9.32.16,0,0-3.57,5-7.92,4.76C39.67,86.42,41.29,81.69,41.29,81.69Z"/><path class="cls-14" d="M30.65,78.44,61.73,77.2s13-15.47-4.44-13.83S30.65,78.44,30.65,78.44Z"/><path class="cls-15" d="M158.8,94a8.84,8.84,0,0,1-7.29-3.32c-1.69-2.3-2-5.45-1-8.88,2.21-7.3,9.94-13.24,17.22-13.24h.12a8.85,8.85,0,0,1,7.29,3.32c1.68,2.29,2,5.45,1,8.88C173.92,88.05,166.2,94,158.92,94Z"/><path class="cls-10" d="M159.74,88a3.93,3.93,0,0,1-3.12-1.26,4.71,4.71,0,0,1-.27-4.16c1.38-4.56,6.52-8.56,11-8.56h.08a3.93,3.93,0,0,1,3.12,1.26,4.7,4.7,0,0,1,.27,4.16C169.43,84,164.3,88,159.83,88Z"/><path class="cls-16" d="M159.74,87.06a3.1,3.1,0,0,1-2.34-.87,3.9,3.9,0,0,1-.12-3.3c1.25-4.12,6-7.87,10.06-7.87h.08a3.08,3.08,0,0,1,2.34.86,3.88,3.88,0,0,1,.12,3.31c-1.24,4.11-6,7.86-10,7.87Z"/><path class="cls-12" d="M170.45,75.27l.15.18A4.28,4.28,0,0,1,171,76a5.26,5.26,0,0,1,.6,2.4,6.94,6.94,0,0,1-.95,3.57,13.25,13.25,0,0,1-3,3.43,15.42,15.42,0,0,1-3.76,2.49,8.63,8.63,0,0,1-3.61.78,6.36,6.36,0,0,1-2.42-.47,5,5,0,0,1-.81-.4,6,6,0,0,0,.84.3,6.69,6.69,0,0,0,2.39.24,8.94,8.94,0,0,0,3.37-1,17.06,17.06,0,0,0,3.57-2.48,15.05,15.05,0,0,0,2.9-3.21,6.9,6.9,0,0,0,1.1-3.3,5.15,5.15,0,0,0-.37-2.34,2.92,2.92,0,0,0-.29-.59Z"/><path class="cls-12" d="M155,92a3.69,3.69,0,0,1-.65-.23,5.42,5.42,0,0,1-1.56-1.08,6.64,6.64,0,0,1-1.51-2.41,8.63,8.63,0,0,1-.44-3.46,14.53,14.53,0,0,1,1.81-6,15,15,0,0,1,1-1.58c.27-.36.42-.54.42-.54l-.33.59c-.21.39-.5,1-.81,1.68a18.72,18.72,0,0,0-1.44,5.84,9.73,9.73,0,0,0,.31,3.25A6.6,6.6,0,0,0,153,90.48a5.66,5.66,0,0,0,1.36,1.22A4.13,4.13,0,0,0,155,92Z"/><path class="cls-13" d="M158.48,81.69c1.36,3.46,4.7,3.07,9.33.16,0,0-3.58,5-7.92,4.76C156.86,86.42,158.48,81.69,158.48,81.69Z"/><path class="cls-14" d="M147.85,78.44l31.07-1.24s13-15.47-4.43-13.83S147.85,78.44,147.85,78.44Z"/><path class="cls-17" d="M39.44,46.05c7.72-16.18,15.4-31,23-43.49,23,2,44.25,6.08,63.34,12.77,6.13,11.55,12,24.67,17.77,38.69Z"/><polygon class="cls-18" points="39.44 46.05 47.83 29.02 56.58 29.02 54.67 36.58 58.1 36.41 57.57 39.07 59.32 39.07 60.98 32.26 70.43 32.76 69.62 39.56 75.18 39.56 75.49 36.91 81.66 37.54 81.66 31.1 89.72 31.27 89.72 40.4 91.29 40.4 90.95 37.54 101.35 37.54 101.87 42.22 103.84 42.05 103.84 33.09 111.62 33.09 111.62 36.41 115.13 36.74 115.49 41.39 120.61 41.72 120.61 39.07 128.09 39.23 127.09 33.42 133.46 33.09 143.53 54.02 39.44 46.05"/><path class="cls-19" d="M61.78,6.24c2.92.15,5.89.36,8.89.62L62.28,47.15,65,47.3,73.34,7.1c7.08.68,14.32,1.66,21.52,3L96.1,49.31l2.66.19-1.22-39A207.63,207.63,0,0,1,125,17.63c6.14,12.23,10.94,23.22,15.78,35.66l-1.22-.12,5,.52a435.13,435.13,0,0,0-17.9-40.25A235.79,235.79,0,0,0,61.16.91,304.62,304.62,0,0,0,38,46l3.55.15C48.31,30.28,53.62,19.52,61.78,6.24Z"/><path class="cls-20" d="M195.73,72.76h-3.35a36.06,36.06,0,0,0-9.3-13.33c-10.53-2.16-23.92-4.07-38.53-5.74C111,50.07,75.42,47.54,38,46c-13.2-.47-21.72-.5-22.16-.07a48.2,48.2,0,0,0-5.57,16.54L4.84,63.61A52.36,52.36,0,0,0,10,84.41H30.62C33.57,76.29,42.25,69.92,50.49,70S63.4,76.41,61.61,84.41h86.25c2.95-8.12,11.63-14.49,19.87-14.42s12.91,6.42,11.12,14.42h15.47A23.74,23.74,0,0,0,195.73,72.76Z"/><path class="cls-21" d="M146.2,79a88.48,88.48,0,0,0-1.69-13.08c-.86-4.3-1.92-8.41-3.17-12.62l-1-.07c1.25,4.17,2.32,8.62,3.18,12.89a89.2,89.2,0,0,1,1.62,12.39l-9.44-.28-10-.34-20-.69-6.85-.28L98,49.4l-1,0,1.2,27.46-12.48-.5-10-.41-9.57-.45a12.78,12.78,0,0,0-3.67-7.91,16.8,16.8,0,0,0-8.17-4.13,35,35,0,0,0-9.07-.7,59.39,59.39,0,0,0-8.2,1l5-17.48-1-.28-5.2,18.25-.23.78.8-.15a57.41,57.41,0,0,1,8.84-1.1,33.74,33.74,0,0,1,8.81.67,15.86,15.86,0,0,1,7.69,3.87A11.9,11.9,0,0,1,65.25,76h0l.06.44h.42l10,.29,10,.34,20,.7,20,.81,10,.41,10,.46h0l.54,0Z"/><path class="cls-22" d="M10.31,62.47H20.89L24,45.62a45.7,45.7,0,0,0-8.11.31A48.49,48.49,0,0,0,10.31,62.47Z"/><path class="cls-23" d="M16.24,46.48a30.2,30.2,0,0,0-2.4,5.74l7.77-.15,1.05-5.59Z"/><polygon class="cls-24" points="13.59 52.8 12.8 55.83 20.74 55.87 21.32 52.84 13.59 52.8"/><polygon class="cls-25" points="12.8 56.49 11.53 61.58 19.67 61.58 20.56 56.49 12.8 56.49"/><polygon class="cls-26" points="11.53 61.58 18.7 60.73 22.66 46.48 20.2 62.05 11.53 61.58"/><path class="cls-12" d="M20.56,46.48H16.24a44.76,44.76,0,0,0-4.47,14.15,76,76,0,0,1,5.85-12.19Z"/><path class="cls-26" d="M61.78,6.24c2.84.14,5.81.36,8.89.62L67.08,24.09,68.51,9.75A56.17,56.17,0,0,0,60.09,9Z"/><path class="cls-26" d="M73.34,7.1q10.86,1.05,21.52,3L95.4,27.3,93.65,13.07a198.85,198.85,0,0,0-21-2.76Z"/><path class="cls-26" d="M97.54,10.54A208.24,208.24,0,0,1,125,17.63l8.42,17.85-9.19-15.91a167.72,167.72,0,0,0-26.75-5.9Z"/><polygon class="cls-26" points="53.75 21.14 43.62 44.79 61.06 46.02 46.76 43.3 53.75 21.14"/><polygon class="cls-26" points="71.28 20.48 66.38 46.48 94.95 48.44 69.04 44.63 71.28 20.48"/><polygon class="cls-26" points="98.52 22.14 99.85 48.44 138.89 52.22 102.26 46.48 98.52 22.14"/><polygon class="cls-12" points="64.88 8.36 59.1 43.83 61.06 44.38 69.06 8.86 64.88 8.36"/><polygon class="cls-12" points="64.08 8.36 58.49 43.63 63.12 8.36 64.08 8.36"/><polygon class="cls-12" points="87.48 10.38 93.37 11.19 94.42 47.81 90.8 47.45 87.48 10.38"/><polygon class="cls-12" points="89.83 46.98 85.79 10.02 83.41 9.64 89.83 46.98"/><path class="cls-12" d="M123.85,18.57A289.28,289.28,0,0,1,138,51.68l-2.4-.58L116,16.16A25.57,25.57,0,0,1,123.85,18.57Z"/><polygon class="cls-12" points="133.3 50.57 114.05 15.66 110.62 14.66 131.97 50.27 133.3 50.57"/><g class="cls-27"><path class="cls-28" d="M50.44,25.14c3.32-6.62,6.71-12.64,10.78-19.25l.2-.34.4,0c2.83.15,5.82.36,8.91.63l.74.06L67.38,25.92l1.34.07L72.81,6.38l.59.06c7.24.7,14.5,1.69,21.58,3l.53.09.59,18.72,1.33.14L96.85,9.73l.81.16A208.22,208.22,0,0,1,125.25,17l.26.09.12.25c2.63,5.23,5.06,10.33,7.4,15.54l2.3.35Q131,23.54,126.18,14A234.23,234.23,0,0,0,61.52,1.59C56.65,9.42,52.39,17,48.34,25.07Z"/></g><path class="cls-26" d="M60.09,3.88l1,1.58A260.32,260.32,0,0,1,125.35,17.2l1.62-1A249.39,249.39,0,0,0,60.09,3.88Z"/><path class="cls-29" d="M182.16,60l-7-.83,5.74,13.28,10.21.41C189.41,67.71,186.72,63.23,182.16,60Z"/><polygon class="cls-25" points="175.77 59.65 181.08 71.98 185.29 72.2 178.48 59.98 175.77 59.65"/><polygon class="cls-30" points="176.16 60 179.38 67.45 182.2 67.45 178.3 60.23 176.16 60"/><path class="cls-6" d="M179.18,60.23l3,.37c2.26,1.42,4.06,3.81,5.73,6.43l-4.77-.21Z"/><polygon class="cls-26" points="175.77 59.65 181.08 71.98 190.47 72.47 182.2 70.68 175.77 59.65"/><polygon class="cls-6" points="183.56 67.45 188.12 67.59 188.97 69.33 187.37 69.33 186.85 68.03 183.56 67.45"/><g class="cls-31"><path class="cls-32" d="M142.49,54.92q15.75,1.9,31.45,4.23l2.55,6.78Q160.74,64.52,145,63.28Zm-2.51-.3q-20.52-2.41-41.16-4.1l.5,9.44q21.44,1.4,42.88,3.1ZM39.68,47.3C34.82,47.17,30,47.05,25.1,47l-1.55,8.89q6.69.29,13.4.61Zm0,9.3q28.47,1.35,57,3.19l-.49-9.48q-26.8-2.1-53.82-2.93Z"/></g><polygon class="cls-33" points="43.62 52.8 42.46 58.48 59.1 59.04 59.1 53.69 43.62 52.8"/><polygon class="cls-34" points="44.03 53.38 43.62 56.24 58.49 56.49 58.49 54.27 44.03 53.38"/><polygon class="cls-35" points="43.67 56.19 58.43 56.55 58.43 57.38 43.67 56.63 43.67 56.19"/><polygon class="cls-12" points="44.34 53.69 58.13 54.53 58.13 55.58 44.03 54.94 44.34 53.69"/><polygon class="cls-12" points="43.65 57.67 43.1 58.14 58.68 58.83 58.44 58.36 43.65 57.67"/><polygon class="cls-36" points="99.89 56.03 99.89 61.64 115.9 62.64 116.01 57.3 99.89 56.03"/><polygon class="cls-37" points="100.48 56.63 100.48 59.52 115.34 60.08 115.39 57.86 100.48 56.63"/><polygon class="cls-35" points="100.54 59.47 115.28 60.14 115.27 60.97 100.53 59.91 100.54 59.47"/><polygon class="cls-12" points="100.92 56.96 115.02 58.11 115 59.16 100.92 58.23 100.92 56.96"/><polygon class="cls-12" points="100.07 61.33 100.48 60.78 115.28 61.86 115.63 62.36 100.07 61.33"/><path class="cls-12" d="M61.52,1.59c23.35,1.88,45,5.86,64.66,12.39l.59,1.18C106.15,8.78,84,4.89,60.65,3Z"/><path class="cls-12" d="M63.78,79.57l0-.41A8.53,8.53,0,0,0,63.55,78a10.53,10.53,0,0,0-1.65-3.75,12,12,0,0,0-4.39-3.84,17.1,17.1,0,0,0-6.89-1.83,24.53,24.53,0,0,0-3.75.08,25.7,25.7,0,0,0-3.47.67,23.76,23.76,0,0,0-5.6,2.35,22.71,22.71,0,0,0-3.42,2.45c-.4.31-.66.6-.87.78l-.3.28.21-.35c.15-.22.34-.58.65-1a17.58,17.58,0,0,1,3-3.24,19.71,19.71,0,0,1,5.67-3.41,21.78,21.78,0,0,1,3.82-1A20.14,20.14,0,0,1,50.79,66a16.08,16.08,0,0,1,7.88,2.56A12.44,12.44,0,0,1,61.4,71a11.7,11.7,0,0,1,1.66,2.68A10,10,0,0,1,64,78a6,6,0,0,1-.12,1.18Z"/><path class="cls-12" d="M178.67,73.84l-.23-.28a5.88,5.88,0,0,0-.66-.74,10.39,10.39,0,0,0-2.88-2.07A16.89,16.89,0,0,0,170,69.29,21.29,21.29,0,0,0,153.35,74a29.51,29.51,0,0,0-2.72,2.43l-.94,1s.19-.45.61-1.23a20,20,0,0,1,2.12-3.13,19.07,19.07,0,0,1,4.26-3.8,17.39,17.39,0,0,1,6.64-2.56,17.73,17.73,0,0,1,7.11.39,14.46,14.46,0,0,1,5.19,2.54,9.52,9.52,0,0,1,2.5,2.93,5.91,5.91,0,0,1,.42.94Z"/><polygon class="cls-12" points="65 78.18 64.47 81.39 145.2 81.97 146.22 79.89 144.54 80.81 66.38 79.73 65 78.18"/><path class="cls-12" d="M10.31,81.33C7.79,78,6.48,72.26,5.94,65l4.37-1.32,11-.06,1.34-5.57L22,65l-10.8.45L8.71,67C8,71.06,9,76.08,10.31,81.33Z"/><path class="cls-12" d="M177.76,66.4l2.77,6.44,14.4.69c.85,2.61.08,6.08-1.06,9.74.06-3.2,0-6.22-.94-8.19L180.31,73.7Z"/><path class="cls-26" d="M189.35,79.15s.5-3.51,2.15-3.51c1.4,0,.28,3.51.28,3.51Z"/><path class="cls-38" d="M189.13,79.53c-.36,1.67-.07,3,.63,3s1.57-1.35,1.92-3,.07-3-.63-3S189.48,77.86,189.13,79.53Z"/><path class="cls-26" d="M191.75,79.15a2.29,2.29,0,0,1-2.54,0s.74-2.68,1.84-2.64S191.75,79.15,191.75,79.15Z"/><path class="cls-12" d="M189.46,79.81c-.22,1.32.06,2.32.62,2.19s1.2-1.31,1.42-2.64h0C190.6,81,189.91,81.13,189.46,79.81Z"/><path class="cls-26" d="M189.35,79.74c.18-1.31.83-2.59,1.43-2.82s1,.66.78,2h0C191.07,77.4,190.34,77.64,189.35,79.74Z"/><polygon class="cls-26" points="180.31 79.35 180.03 83.27 193.26 83.6 181.8 82.38 180.31 79.35"/><polygon class="cls-26" points="64.47 82.38 144.95 82.38 144.54 83.27 64.47 83.63 64.47 82.38"/><path class="cls-26" d="M12.81,83H29.17a28,28,0,0,1,3.49-6.43,36.73,36.73,0,0,0-4.74,4.75Z"/><path class="cls-12" d="M33.89,58.67H26.22l.8-8.33h8.92Zm-7.21-.42h6.89l1.84-7.49h-8Z"/><path class="cls-21" d="M33.63,58.35H25.87l.82-8.41h9Zm-7.21-.5h6.81l1.82-7.41H27.14Z"/><path class="cls-26" d="M99.44,71.83l45,2.27q-.41-3.41-1.16-6.81L99.44,65.38Z"/><path class="cls-26" d="M96.77,65.27,59.1,63.63C62.35,65.8,65,68,66.38,70.16l31.05,1.57Z"/><path class="cls-26" d="M145.33,67.38a48.74,48.74,0,0,1,1,6.81l3.37.17a15.19,15.19,0,0,1,5.42-6.56Z"/><path class="cls-26" d="M23.55,63.63H34.9c-1.69,2.21-2.86,4.29-2.83,6.11l-7.55,0-1.79-4.32Z"/></g></g></g></svg>