<svg xmlns="http://www.w3.org/2000/svg" xmlns:xlink="http://www.w3.org/1999/xlink" viewBox="0 0 197.83 95.36"><defs><style>.cls-1{mask:url(#mask);filter:url(#luminosity-noclip-3);}.cls-14,.cls-2,.cls-26,.cls-4,.cls-8{mix-blend-mode:multiply;}.cls-2{fill:url(#Áåçûìÿííûé_ãðàäèåíò_14);}.cls-3{mask:url(#mask-2);filter:url(#luminosity-noclip-4);}.cls-4{fill:url(#Áåçûìÿííûé_ãðàäèåíò_14-2);}.cls-5{isolation:isolate;}.cls-12,.cls-13,.cls-30,.cls-36,.cls-38,.cls-6{fill:#fff7cc;}.cls-7{fill:#001138;}.cls-26,.cls-8{fill:#b86053;}.cls-12,.cls-14,.cls-8{opacity:0.5;}.cls-9{fill:url(#Áåçûìÿííûé_ãðàäèåíò_287);}.cls-10{fill:#002a40;}.cls-11{fill:url(#Áåçûìÿííûé_ãðàäèåíò_433);}.cls-12,.cls-13,.cls-30,.cls-34,.cls-36,.cls-38,.cls-41{mix-blend-mode:screen;}.cls-13,.cls-26{opacity:0.4;}.cls-14{fill:#22567d;}.cls-15{fill:url(#Áåçûìÿííûé_ãðàäèåíò_287-2);}.cls-16{fill:url(#Áåçûìÿííûé_ãðàäèåíò_433-2);}.cls-17{fill:url(#Áåçûìÿííûé_ãðàäèåíò_6);}.cls-18{fill:url(#Áåçûìÿííûé_ãðàäèåíò_21);}.cls-19{fill:url(#Áåçûìÿííûé_ãðàäèåíò_10);}.cls-20{fill:url(#Áåçûìÿííûé_ãðàäèåíò_287-3);}.cls-21{fill:#003957;}.cls-22{fill:url(#Áåçûìÿííûé_ãðàäèåíò_7);}.cls-23{fill:#ffd699;}.cls-24{fill:#d96118;}.cls-25{fill:#3d7028;}.cls-27{fill:#f7a01e;}.cls-28{fill:#fffff5;}.cls-29{fill:#9a1418;}.cls-30{opacity:0.3;}.cls-31{fill:url(#Áåçûìÿííûé_ãðàäèåíò_287-4);}.cls-32{fill:url(#Áåçûìÿííûé_ãðàäèåíò_9);}.cls-33{mask:url(#mask-3);}.cls-34,.cls-36,.cls-41{opacity:0.75;}.cls-34{fill:url(#Áåçûìÿííûé_ãðàäèåíò_29);}.cls-35{fill:url(#Áåçûìÿííûé_ãðàäèåíò_9-2);}.cls-37{fill:url(#Áåçûìÿííûé_ãðàäèåíò_9-3);}.cls-38{opacity:0.2;}.cls-39{fill:url(#Áåçûìÿííûé_ãðàäèåíò_4);}.cls-40{mask:url(#mask-4);}.cls-41{fill:url(#Áåçûìÿííûé_ãðàäèåíò_29-2);}.cls-42{filter:url(#luminosity-noclip-2);}.cls-43{filter:url(#luminosity-noclip);}</style><filter id="luminosity-noclip" x="34.82" y="-8241.33" width="151.44" height="32766" filterUnits="userSpaceOnUse" color-interpolation-filters="sRGB"><feFlood flood-color="#fff" result="bg"/><feBlend in="SourceGraphic" in2="bg"/></filter><mask id="mask" x="34.82" y="-8241.33" width="151.44" height="32766" maskUnits="userSpaceOnUse"><g class="cls-43"/></mask><linearGradient id="Áåçûìÿííûé_ãðàäèåíò_14" x1="-1894.68" y1="48.28" x2="-1894" y2="38.11" gradientTransform="matrix(-1, 0, 0, 1, -1783.98, 0)" gradientUnits="userSpaceOnUse"><stop offset="0" stop-color="#fff"/><stop offset="1"/></linearGradient><filter id="luminosity-noclip-2" x="83.66" y="-8241.33" width="94.62" height="32766" filterUnits="userSpaceOnUse" color-interpolation-filters="sRGB"><feFlood flood-color="#fff" result="bg"/><feBlend in="SourceGraphic" in2="bg"/></filter><mask id="mask-2" x="83.66" y="-8241.33" width="94.62" height="32766" maskUnits="userSpaceOnUse"><g class="cls-42"/></mask><linearGradient id="Áåçûìÿííûé_ãðàäèåíò_14-2" x1="-1914.12" y1="33.85" x2="-1916.29" y2="7.13" xlink:href="#Áåçûìÿííûé_ãðàäèåíò_14"/><linearGradient id="Áåçûìÿííûé_ãðàäèåíò_287" x1="-1939.33" y1="69.87" x2="-1939.33" y2="94.73" gradientTransform="matrix(-1, 0, 0, 1, -1783.98, 0)" gradientUnits="userSpaceOnUse"><stop offset="0" stop-color="#131f49"/><stop offset="0.87" stop-color="#14466a"/><stop offset="1" stop-color="#22567d"/></linearGradient><radialGradient id="Áåçûìÿííûé_ãðàäèåíò_433" cx="-1936.98" cy="79.15" r="13.91" gradientTransform="matrix(-1, 0, 0, 1, -1783.98, 0.22)" gradientUnits="userSpaceOnUse"><stop offset="0" stop-color="#e2f0d5"/><stop offset="0.01" stop-color="#d9e7cf"/><stop offset="0.05" stop-color="#b9c9b9"/><stop offset="0.1" stop-color="#9eb0a7"/><stop offset="0.14" stop-color="#8a9d99"/><stop offset="0.2" stop-color="#7b8f8f"/><stop offset="0.26" stop-color="#73878a"/><stop offset="0.37" stop-color="#708588"/><stop offset="1" stop-color="#dad1c0"/></radialGradient><linearGradient id="Áåçûìÿííûé_ãðàäèåíò_287-2" x1="-1837.05" y1="69.87" x2="-1837.05" y2="94.73" xlink:href="#Áåçûìÿííûé_ãðàäèåíò_287"/><radialGradient id="Áåçûìÿííûé_ãðàäèåíò_433-2" cx="-1834.69" cy="79.15" r="13.91" xlink:href="#Áåçûìÿííûé_ãðàäèåíò_433"/><linearGradient id="Áåçûìÿííûé_ãðàäèåíò_6" x1="-1915.17" y1="3.41" x2="-1915.17" y2="42.21" gradientTransform="matrix(-1, 0, 0, 1, -1783.98, 0)" gradientUnits="userSpaceOnUse"><stop offset="0" stop-color="#00b8c4"/><stop offset="0.03" stop-color="#15c2c4"/><stop offset="0.08" stop-color="#3cd5c5"/><stop offset="0.14" stop-color="#5be4c6"/><stop offset="0.2" stop-color="#71eec7"/><stop offset="0.25" stop-color="#7ff5c7"/><stop offset="0.3" stop-color="#83f7c7"/><stop offset="0.39" stop-color="#7af3c7"/><stop offset="0.55" stop-color="#63e8c6"/><stop offset="0.75" stop-color="#3cd5c5"/><stop offset="0.97" stop-color="#08bcc4"/><stop offset="1" stop-color="#00b8c4"/></linearGradient><linearGradient id="Áåçûìÿííûé_ãðàäèåíò_21" x1="-1914.17" y1="42.74" x2="-1914.17" y2="20.56" gradientTransform="matrix(-1, 0, 0, 1, -1783.98, 0)" gradientUnits="userSpaceOnUse"><stop offset="0.04" stop-color="#83f7c7"/><stop offset="0.14" stop-color="#7af3c7"/><stop offset="0.3" stop-color="#63e8c6"/><stop offset="0.49" stop-color="#3cd5c5"/><stop offset="0.72" stop-color="#08bcc4"/><stop offset="0.75" stop-color="#00b8c4"/></linearGradient><linearGradient id="Áåçûìÿííûé_ãðàäèåíò_10" x1="-1891.53" y1="32.51" x2="-1892.99" y2="65.21" gradientTransform="matrix(-1, 0, 0, 1, -1783.98, 0)" gradientUnits="userSpaceOnUse"><stop offset="0.08" stop-color="#fcee52"/><stop offset="0.11" stop-color="#f2e950"/><stop offset="0.26" stop-color="#b8cc45"/><stop offset="0.41" stop-color="#8bb43c"/><stop offset="0.54" stop-color="#6aa435"/><stop offset="0.64" stop-color="#569a31"/><stop offset="0.71" stop-color="#4f9630"/></linearGradient><linearGradient id="Áåçûìÿííûé_ãðàäèåíò_287-3" x1="-1891.34" y1="67.84" x2="-1891.34" y2="81.31" xlink:href="#Áåçûìÿííûé_ãðàäèåíò_287"/><linearGradient id="Áåçûìÿííûé_ãðàäèåíò_7" x1="-1977.41" y1="49.82" x2="-1968.73" y2="49.82" gradientTransform="matrix(-1, 0, 0, 1, -1783.98, 0)" gradientUnits="userSpaceOnUse"><stop offset="0" stop-color="#e7855f"/><stop offset="1" stop-color="#9a1418"/></linearGradient><linearGradient id="Áåçûìÿííûé_ãðàäèåíò_287-4" x1="-1915.53" y1="3.7" x2="-1915.53" y2="38.01" xlink:href="#Áåçûìÿííûé_ãðàäèåíò_287"/><linearGradient id="Áåçûìÿííûé_ãðàäèåíò_9" x1="-1875.89" y1="-13.64" x2="-1935.16" y2="18.87" gradientTransform="matrix(-1, 0, 0, 1, -1783.98, 0)" gradientUnits="userSpaceOnUse"><stop offset="0" stop-color="#fcee52"/><stop offset="0.03" stop-color="#f2e950"/><stop offset="0.23" stop-color="#b8cc45"/><stop offset="0.42" stop-color="#8bb43c"/><stop offset="0.58" stop-color="#6aa435"/><stop offset="0.72" stop-color="#569a31"/><stop offset="0.81" stop-color="#4f9630"/></linearGradient><filter id="luminosity-noclip-3" x="34.82" y="35.53" width="151.44" height="13.95" filterUnits="userSpaceOnUse" color-interpolation-filters="sRGB"><feFlood flood-color="#fff" result="bg"/><feBlend in="SourceGraphic" in2="bg"/></filter><mask id="mask-3" x="34.82" y="35.53" width="151.44" height="13.95" maskUnits="userSpaceOnUse"><g class="cls-1"><path class="cls-2" d="M186.26,43.71l-18.49.37.66-8.19,16.75-.36A26.85,26.85,0,0,1,186.26,43.71ZM166.18,36c-17.21.47-33.18,1.15-45.82,2.4l-2.62,7.32,47.09-1.67ZM75.68,42.7,73.23,48l41.67-2.23,2.84-7C102.78,39.75,88.61,41,75.68,42.7ZM34.82,49.48,70.61,48l2-4.37A296.25,296.25,0,0,0,34.82,49.48Z"/></g></mask><linearGradient id="Áåçûìÿííûé_ãðàäèåíò_29" x1="-1894.68" y1="48.28" x2="-1894" y2="38.11" gradientTransform="matrix(-1, 0, 0, 1, -1783.98, 0)" gradientUnits="userSpaceOnUse"><stop offset="0" stop-color="#fff7cc"/><stop offset="1" stop-color="#fff7cc"/></linearGradient><linearGradient id="Áåçûìÿííûé_ãðàäèåíò_9-2" x1="-1937.64" y1="48.46" x2="-1937.64" y2="41.44" xlink:href="#Áåçûìÿííûé_ãðàäèåíò_9"/><linearGradient id="Áåçûìÿííûé_ãðàäèåíò_9-3" x1="-1888.2" y1="121.39" x2="-1888.2" y2="114.52" gradientTransform="matrix(-1, 0.05, 0, 1, -1783.98, 14.94)" xlink:href="#Áåçûìÿííûé_ãðàäèåíò_9"/><radialGradient id="Áåçûìÿííûé_ãðàäèåíò_4" cx="3675.64" cy="80.05" r="5.37" gradientTransform="matrix(0.42, 0, 0.21, 1, -1541.8, 0.22)" gradientUnits="userSpaceOnUse"><stop offset="0" stop-color="#83f7c7"/><stop offset="0.88" stop-color="#00b8c4"/></radialGradient><filter id="luminosity-noclip-4" x="83.66" y="5.91" width="94.62" height="19.29" filterUnits="userSpaceOnUse" color-interpolation-filters="sRGB"><feFlood flood-color="#fff" result="bg"/><feBlend in="SourceGraphic" in2="bg"/></filter><mask id="mask-4" x="83.66" y="5.91" width="94.62" height="19.29" maskUnits="userSpaceOnUse"><g class="cls-3"><path class="cls-4" d="M124.08,23l6.53-16.63,1,.07L126,22.93ZM85.21,25.1A152.16,152.16,0,0,1,96.8,5.91h-.45A173.43,173.43,0,0,0,83.66,25.2Zm93.07-3a69.34,69.34,0,0,0-11.38-10l-.94-.26a65.78,65.78,0,0,1,9.1,10.19Zm-16.39,0C160.15,18.19,158,14,155.51,9.4l-.34-.06c2.09,4.45,3.85,8.68,5.32,12.74Z"/></g></mask><linearGradient id="Áåçûìÿííûé_ãðàäèåíò_29-2" x1="-1914.12" y1="33.85" x2="-1916.29" y2="7.13" xlink:href="#Áåçûìÿííûé_ãðàäèåíò_29"/></defs><g class="cls-5"><g id="Layer_2" data-name="Layer 2"><g id="layer_1-2" data-name="layer 1"><path class="cls-6" d="M170.5,80.51a12.46,12.46,0,0,1,.53,1.56l0,0,11.29-.28-.25.12a46.37,46.37,0,0,0,8.23-14.83l.06.55-1.91-3.06-.21-.34.19-.39a51,51,0,0,0,2.82-7.13,28.33,28.33,0,0,0,1.34-7.45,22.25,22.25,0,0,0-1-7.43,23.28,23.28,0,0,0-3.4-6.7l.69.36H186l.85-.86-.85.86H184.7l-.24-.43h0l-.71-1.27h5.13l-.71,1.33A101.29,101.29,0,0,0,177,21.1a68.36,68.36,0,0,0-6.59-6c-1.15-.94-2.35-1.81-3.58-2.68l-3.65-2.7.21.11a124.87,124.87,0,0,0-34-7.32A281,281,0,0,0,94.45,2L95.21.87,96.86,5l.17.45-.29.38A196.08,196.08,0,0,0,75,42.66l-.34.74-.76-.32-.4-.16,1.11-.46-.09.23-.18.45-.5.07q-10.21,1.38-20.42,3c-6.79,1.07-13.58,2.19-20.35,3.42l.42-.21a28.64,28.64,0,0,0-5.72,7.17,36.94,36.94,0,0,0-3.39,8.67l-.15.55-.53-.15h0l.67-.4,0,.12v-.29L29,82l-.16-.12,6.9.17-6.9.17h-.12l0-.12-5.4-16.75-.05-.13,0-.16,0-.12.12-.54.56.13h0l-.68.41a38.93,38.93,0,0,1,3.14-9.12,25.06,25.06,0,0,1,5.91-7.74l.19-.17.23,0c6.79-1.19,13.58-2.34,20.39-3.4s13.63-2.06,20.46-3L73,42l.09-.23.31-.8.81.33.4.17-1.1.43A197.49,197.49,0,0,1,95.39,4.83l-.12.83L93.62,1.49,93.18.37l1.2,0a284.72,284.72,0,0,1,35.17.45A126.29,126.29,0,0,1,164,8.21l.11,0,.09.07L167.79,11c1.24.86,2.48,1.76,3.66,2.73a71.77,71.77,0,0,1,6.75,6.17,103.56,103.56,0,0,1,11.38,14.22l.89,1.33H185.2l.74-1.27h0l-.74-.44H186l-.85.85.85-.85h3.34l.26.36a24.71,24.71,0,0,1,3.65,7.18,23.87,23.87,0,0,1,1,8,31.38,31.38,0,0,1-1.37,7.9,40.88,40.88,0,0,1-3.14,7.31l0-.73,1.78,3.14.16.28-.1.28a47.51,47.51,0,0,1-9,14.81l-.1.12h-.14L171,82.12h0v0A13.66,13.66,0,0,0,170.5,80.51Z"/><path class="cls-6" d="M74.24,42.3a.5.5,0,0,1-.35-.41c.2-.1.39-.22.62-.31a4.86,4.86,0,0,1,1.38-.36l1.59-.2-.72,1.43h0l-.2.4-.45.06-.87.11a3.64,3.64,0,0,0-.44.07c-.17-.24-.35-.47-.54-.78h0A0,0,0,0,1,74.24,42.3Zm0,0s0,0,0,0h0a6.44,6.44,0,0,1,.33-.89,3.49,3.49,0,0,0,.44,0l.87-.11-.65.46h0l.88,1.23a.41.41,0,0,1-.39-.13c-.07-.05-.16-.13-.26-.19A2.92,2.92,0,0,0,74.24,42.3Z"/><path class="cls-7" d="M138.25,60C153.73,61.71,162,75.46,162,75.46l-3.75-.17a18.54,18.54,0,0,1,1.38,3.61c.93,3.51.61,6.74-.89,9.09a7.51,7.51,0,0,1-6.49,3.4h-.11c-6.48,0-13.36-6.08-15.33-13.56a15.09,15.09,0,0,1-.5-3.54l-2-.1S122.77,58.36,138.25,60Z"/><path class="cls-7" d="M36.15,61.33C51.63,63,59.87,76.76,59.87,76.76l-3.75-.17a18.49,18.49,0,0,1,1.39,3.6c.92,3.52.61,6.74-.9,9.09a7.46,7.46,0,0,1-6.49,3.4H50c-6.49,0-13.36-6.09-15.33-13.57a15.59,15.59,0,0,1-.51-3.54l-2-.09S20.67,59.66,36.15,61.33Z"/><ellipse class="cls-8" cx="98.91" cy="92.51" rx="98.91" ry="2.84"/><rect class="cls-7" x="34.82" y="61.98" width="144.54" height="18.53" transform="translate(214.19 142.48) rotate(180)"/><path class="cls-9" d="M160,94.42a9,9,0,0,0,7.47-3.4c1.73-2.35,2.09-5.58,1-9.09-2.27-7.48-10.17-13.56-17.63-13.56h-.12a9,9,0,0,0-7.46,3.4c-1.73,2.35-2.1,5.58-1,9.09,2.27,7.48,10.18,13.56,17.63,13.56Z"/><path class="cls-10" d="M159,88.32A4,4,0,0,0,162.21,87c.72-1,.82-2.49.28-4.26C161.08,78.1,155.82,74,151.24,74h-.09A4,4,0,0,0,148,75.29c-.72,1-.82,2.49-.28,4.26,1.41,4.67,6.67,8.76,11.25,8.77Z"/><path class="cls-11" d="M159,87.32a3.14,3.14,0,0,0,2.39-.88,4,4,0,0,0,.13-3.39c-1.28-4.21-6.19-8-10.3-8h-.08a3.16,3.16,0,0,0-2.4.88,4,4,0,0,0-.13,3.38c1.28,4.22,6.18,8.06,10.3,8.06Z"/><path class="cls-12" d="M148.05,75.25l-.14.19a3.28,3.28,0,0,0-.37.58,5.3,5.3,0,0,0-.6,2.45,7.08,7.08,0,0,0,1,3.64,13.73,13.73,0,0,0,3,3.49,15.34,15.34,0,0,0,3.83,2.54,8.94,8.94,0,0,0,3.68.82,6.65,6.65,0,0,0,2.48-.46,5.56,5.56,0,0,0,.62-.29l.21-.12-.22.09a3.64,3.64,0,0,1-.64.23,6.86,6.86,0,0,1-2.44.26,9.13,9.13,0,0,1-3.48-1,17.15,17.15,0,0,1-3.66-2.54,14.6,14.6,0,0,1-3-3.3,7.1,7.1,0,0,1-1.12-3.4,5.49,5.49,0,0,1,.39-2.4,3.36,3.36,0,0,1,.31-.61Z"/><path class="cls-12" d="M163.91,92.41l.18-.06a4.53,4.53,0,0,0,.49-.19A5.23,5.23,0,0,0,166.16,91a6.6,6.6,0,0,0,1.53-2.46,9.12,9.12,0,0,0,.44-3.52A15.18,15.18,0,0,0,166.3,79a15.66,15.66,0,0,0-1-1.62c-.27-.37-.43-.56-.43-.56s.13.21.35.61.52,1,.84,1.7a18.53,18.53,0,0,1,1.5,6,9.69,9.69,0,0,1-.32,3.33,7.08,7.08,0,0,1-1.28,2.42,5.56,5.56,0,0,1-1.41,1.23c-.19.11-.34.2-.45.25Z"/><path class="cls-13" d="M160.31,81.83c-1.4,3.55-4.82,3.14-9.55.17,0,0,3.66,5.14,8.11,4.86C162,86.67,160.31,81.83,160.31,81.83Z"/><path class="cls-14" d="M171.2,78.5l-31.82-1.27s-13.26-15.84,4.54-14.16S171.2,78.5,171.2,78.5Z"/><path class="cls-15" d="M57.7,94.42A9,9,0,0,0,65.16,91c1.73-2.35,2.1-5.58,1-9.09C63.93,74.45,56,68.37,48.56,68.37h-.12A9,9,0,0,0,41,71.77c-1.73,2.35-2.09,5.58-1,9.09,2.26,7.48,10.17,13.56,17.63,13.56Z"/><path class="cls-10" d="M56.73,88.32A4,4,0,0,0,59.93,87a4.88,4.88,0,0,0,.28-4.26C58.79,78.1,53.53,74,49,74h-.08a4,4,0,0,0-3.2,1.29,4.85,4.85,0,0,0-.27,4.26c1.41,4.67,6.66,8.76,11.24,8.77Z"/><path class="cls-16" d="M56.73,87.32a3.16,3.16,0,0,0,2.4-.88,4,4,0,0,0,.12-3.39C58,78.84,53.07,75,49,75h-.08a3.16,3.16,0,0,0-2.4.88,4,4,0,0,0-.12,3.38c1.27,4.22,6.18,8.06,10.29,8.06Z"/><path class="cls-12" d="M45.77,75.25l-.15.19a3.28,3.28,0,0,0-.37.58,5.42,5.42,0,0,0-.6,2.45,7.18,7.18,0,0,0,1,3.64,13.73,13.73,0,0,0,3,3.49,15.39,15.39,0,0,0,3.84,2.54,8.87,8.87,0,0,0,3.68.82,6.7,6.7,0,0,0,2.48-.46,6.6,6.6,0,0,0,.62-.29l.21-.12-.22.09a4,4,0,0,1-.64.23,6.92,6.92,0,0,1-2.45.26,9.09,9.09,0,0,1-3.47-1A17.45,17.45,0,0,1,49,85.16a15.09,15.09,0,0,1-3-3.3,7.1,7.1,0,0,1-1.12-3.4,5.33,5.33,0,0,1,.4-2.4,4.32,4.32,0,0,1,.3-.61Z"/><path class="cls-12" d="M61.63,92.41l.17-.06a3.85,3.85,0,0,0,.49-.19A5.23,5.23,0,0,0,63.87,91a6.6,6.6,0,0,0,1.53-2.46,8.93,8.93,0,0,0,.44-3.52A15.09,15.09,0,0,0,63,77.35c-.26-.37-.42-.56-.42-.56l.34.61c.22.39.52,1,.84,1.7a18.51,18.51,0,0,1,1.51,6,9.68,9.68,0,0,1-.33,3.33,6.91,6.91,0,0,1-1.27,2.42,5.56,5.56,0,0,1-1.41,1.23l-.46.25Z"/><path class="cls-13" d="M58,81.83c-1.39,3.55-4.81,3.14-9.55.17,0,0,3.67,5.14,8.11,4.86C59.68,86.67,58,81.83,58,81.83Z"/><path class="cls-14" d="M68.91,78.5,37.09,77.23S23.83,61.39,41.63,63.07,68.91,78.5,68.91,78.5Z"/><path class="cls-17" d="M164.21,10.09C145.33,4.16,122.45,2.85,98,3.41A161.88,161.88,0,0,0,76.21,43.08c40-1.19,77.44-3.2,110-6.75A84,84,0,0,0,164.21,10.09Z"/><polygon class="cls-18" points="171.8 21.66 167.59 21.66 169.09 26.27 155.61 26.27 155.61 23.8 146.59 23.96 145.42 32.09 142.81 32.09 143.78 27.82 134.27 28.02 134.95 24.82 125.07 24.82 122.54 30.05 115.46 30.34 114.3 32.09 113.33 32.09 115.65 26.87 109.45 26.87 110.9 23.19 104.5 23.19 101.59 30.05 100.33 30.05 101.4 26.87 94.42 26.87 93.54 30.05 92.67 30.05 94.42 23.8 85.01 24.24 75.21 43.62 185.18 38.48 177.04 21.74 171.8 21.66"/><path class="cls-19" d="M32.93,48.75C87.37,39,139.61,34.45,188.87,34.61c6.29,8.7,5.81,18.65.19,29.55l1.85,3.1a46.9,46.9,0,0,1-8.63,14.82H171c-.07-.27-.14-.55-.22-.82-2.57-8.48-11.52-15.29-20-15.21s-13.27,7-10.7,15.48c.05.19.12.37.18.55H68.46c-.07-.27-.14-.55-.22-.82-2.57-8.48-11.52-15.29-20-15.21s-13.27,7-10.7,15.48c.05.19.12.37.18.55H28.86l-5-16.86C25.34,58.86,28,53.14,32.93,48.75Z"/><path class="cls-20" d="M189.06,64.16l1.85,3.1a46.9,46.9,0,0,1-8.63,14.82H171c-.07-.27-.14-.55-.22-.82A22.14,22.14,0,0,0,162,69.72ZM23.82,65.22l5,16.86h8.86c-.06-.18-.13-.36-.18-.55-1.46-4.81-.54-9.13,2.08-12L23.85,65.1ZM65.63,75.89a19.64,19.64,0,0,1,2.61,5.37c.08.27.15.55.22.82h71.79c-.06-.18-.13-.36-.18-.55a13.81,13.81,0,0,1-.26-7.71Z"/><path class="cls-21" d="M30.79,76.22s-.5-3.53-2.16-3.53c-1.41,0-.28,3.53-.28,3.53Z"/><path class="cls-22" d="M189.06,64.16l-4.3.88c1.83-10.37,2.6-20.57,1.2-30.43h2.91C195.16,43.31,194.68,53.26,189.06,64.16Z"/><path class="cls-23" d="M33,50.42A31.1,31.1,0,0,0,26.75,62a93.58,93.58,0,0,0,27-10.54C47.8,49.48,40.47,49.65,33,50.42Z"/><path class="cls-24" d="M51.6,51.64a35.22,35.22,0,0,0-10.18-.81,33.86,33.86,0,0,1-4.27,7.51A88.89,88.89,0,0,0,51.6,51.64Z"/><path class="cls-25" d="M66.5,73.13l71.75-2.58.1-.28c2.42-7,9.86-9.32,19.43-6.19l.31.1.18-.26c6.54-9.35,9.51-18.83,9.31-29.09l-.87,0c.2,10-2.66,19.18-9,28.3-9.64-3-17.48-.5-20.11,6.54L106,71.31,119.9,37.57l-.81-.33-14,34.1-37.65.89a98.81,98.81,0,0,1,7.2-29.77l-.81-.33a99.56,99.56,0,0,0-7.3,30.52Z"/><path class="cls-6" d="M40.45,51.12l-1.94,3.69-8.1.58a14.84,14.84,0,0,1,3-4.27A16.29,16.29,0,0,1,40.45,51.12Z"/><path class="cls-6" d="M35.43,55.58l-5.12.35a6.3,6.3,0,0,0-1,1.87l5.49-.63Z"/><polygon class="cls-6" points="35.88 55.58 35.38 57.16 37.33 57.07 38.19 55.47 35.88 55.58"/><path class="cls-26" d="M49.93,52.07a154.6,154.6,0,0,1-21.87,7.36l-.63,1.63C35.68,58.93,43.48,56.14,49.93,52.07Z"/><path class="cls-27" d="M48.82,51.8a36.46,36.46,0,0,0-6.69-.36l-1.45,2.83A43.48,43.48,0,0,0,48.82,51.8Z"/><polygon class="cls-28" points="33.66 51.4 31.33 54.85 34.16 54.54 35.99 51.22 33.66 51.4"/><path class="cls-26" d="M186.65,35.33a95.73,95.73,0,0,1-1,28.83l3.2-.49-2-.39A79.34,79.34,0,0,0,186.65,35.33Z"/><path class="cls-29" d="M188.87,35.53h-1.6a39,39,0,0,1,1.6,11.14h3.83A26.4,26.4,0,0,0,188.87,35.53Z"/><path class="cls-30" d="M192.7,47.35h-3.83l-.39,6.41h3.74A15.72,15.72,0,0,0,192.7,47.35Z"/><path class="cls-24" d="M191.92,54.56h-3.44l-.92,8h1.31A32,32,0,0,0,191.92,54.56Z"/><path class="cls-12" d="M188.87,35.53c2.19,9,2.85,17.54.87,25.29a28.27,28.27,0,0,0,3-12.65A31.36,31.36,0,0,0,188.87,35.53Z"/><path class="cls-12" d="M161.93,12A125.24,125.24,0,0,1,173,33.82l-4.46-.11a114.7,114.7,0,0,0-10.8-23.25Z"/><polygon class="cls-12" points="133.88 7.84 125.52 35.53 130.2 35.33 142.9 8.55 133.88 7.84"/><polygon class="cls-12" points="148.43 9.59 144.79 9.15 134.54 34.83 135.92 34.83 148.43 9.59"/><path class="cls-12" d="M108.21,6.82H99.34C92.83,15,86.93,27.46,81.62,40.31l4.12-.64A195.8,195.8,0,0,1,108.21,6.82Z"/><path class="cls-12" d="M111.41,6.82A115.79,115.79,0,0,0,88.28,39.56l1.6-.33C98.29,27.35,107,15.28,117,6.82Z"/><path class="cls-26" d="M164.83,12c6.46,7.21,12,14.46,15.6,21.79H169.38l8.25-1.18C175,26.49,170.13,19.45,164.83,12Z"/><path class="cls-26" d="M153.81,9.8A161.64,161.64,0,0,1,162,33.49l-37.24,2,34-3.86A147,147,0,0,0,153.81,9.8Z"/><polygon class="cls-26" points="127.97 7.38 116.99 36.25 81.23 40.31 114.2 33.82 127.97 7.38"/><path class="cls-26" d="M163.66,10.64C143.79,4.53,121.24,4.15,98,5.31L91.14,15.59l6.82-7c25-.53,48.13.16,67.44,3.52Z"/><path class="cls-31" d="M181.6,34.62a65.84,65.84,0,0,0-17.94-24l3.49.95c7.91,5.42,15.11,13.21,21.72,23ZM154.15,8.55a124.27,124.27,0,0,1,9.51,26.38l3.49-.09c-2-7.83-6.11-16.64-11.26-26ZM130.23,5.77,117.74,37.55l3.92-.32L132.41,5.91ZM96.06,5.35A195.56,195.56,0,0,0,74.24,42.3l4.06-.54A165.78,165.78,0,0,1,98,5.31Z"/><path class="cls-32" d="M163.66,9C143.25,1.16,120.29.15,94.41,1.18l1.65,4.17c25.55-.56,50,.13,71.09,6.24Z"/><path class="cls-26" d="M161.1,9.15c-20.39-5.2-41.92-6.33-64.31-5A321.94,321.94,0,0,1,161.1,9.15Z"/><path class="cls-12" d="M96.79,3l-.58-1.26c20.92-1,41,.29,59.93,5.06C137.22,3.56,117.33,2.53,96.79,3Z"/><g class="cls-33"><path class="cls-34" d="M186.26,43.71l-18.49.37.66-8.19,16.75-.36A26.85,26.85,0,0,1,186.26,43.71ZM166.18,36c-17.21.47-33.18,1.15-45.82,2.4l-2.62,7.32,47.09-1.67ZM75.68,42.7,73.23,48l41.67-2.23,2.84-7C102.78,39.75,88.61,41,75.68,42.7ZM34.82,49.48,70.61,48l2-4.37A296.25,296.25,0,0,0,34.82,49.48Z"/></g><path class="cls-35" d="M145.42,44.08c0,1.43,3.69,2.59,8.25,2.59s8.24-1.16,8.24-2.59-3.69-2.6-8.24-2.6S145.42,42.64,145.42,44.08Z"/><path class="cls-36" d="M146.76,43.76c0,1,3.33.26,7.14.26s6.68.74,6.68-.26S157.48,42,153.67,42,146.76,42.76,146.76,43.76Z"/><path class="cls-25" d="M159.75,44.8s-3.44-.34-5.45-.35c-2.66,0-6.72.35-6.72.35a41.73,41.73,0,0,0,6.6.49A55.52,55.52,0,0,0,159.75,44.8Z"/><path class="cls-37" d="M96.55,46.12c0,1.4,3.44,2.37,7.68,2.17s7.68-1.51,7.68-2.91-3.44-2.37-7.68-2.16S96.55,44.72,96.55,46.12Z"/><path class="cls-36" d="M97.79,45.75c0,1,3.1.1,6.66-.07s6.22.43,6.22-.55-2.89-1.63-6.44-1.46S97.79,44.77,97.79,45.75Z"/><path class="cls-25" d="M109.9,46.19s-3.2-.18-5.08-.1c-2.48.11-6.26.64-6.26.64a36.67,36.67,0,0,0,6.15.18A50.47,50.47,0,0,0,109.9,46.19Z"/><polygon class="cls-38" points="189.74 67.64 188.48 65.04 164.49 69.92 165.84 71.18 189.74 67.64"/><polygon class="cls-38" points="138.05 74.91 67.45 76.85 68.62 78.5 138.05 77.95 138.05 74.91"/><polygon class="cls-38" points="37.15 70.55 25.46 66.67 27.43 71.33 36.78 71.71 37.15 70.55"/><path class="cls-39" d="M31,76.6c.35,1.68.07,3-.64,3s-1.58-1.36-1.94-3-.07-3,.64-3S30.66,74.92,31,76.6Z"/><path class="cls-26" d="M28.37,76.22a2.33,2.33,0,0,0,2.56,0s-.74-2.7-1.85-2.65S28.37,76.22,28.37,76.22Z"/><path class="cls-12" d="M30.68,76.88c.22,1.33-.06,2.33-.62,2.21s-1.21-1.33-1.43-2.66h0C29.54,78,30.22,78.21,30.68,76.88Z"/><path class="cls-26" d="M30.79,76.81c-.18-1.32-.83-2.6-1.44-2.83s-1,.66-.78,2h0C29.06,74.46,29.79,74.7,30.79,76.81Z"/><path class="cls-14" d="M36.37,74.91a14.6,14.6,0,0,0,0,6.25H29.73l5.19-1.45A9.3,9.3,0,0,1,36.37,74.91Z"/><polygon class="cls-14" points="138.05 79.85 68.91 79.85 69.3 81.16 138.73 81.16 138.05 79.85"/><path class="cls-14" d="M184.76,77.43l-2.87,3.73H171.61a20.7,20.7,0,0,0-4.88-8.43A14.5,14.5,0,0,1,172,78Z"/><path class="cls-12" d="M138.92,72.06l.12-.25c.08-.16.21-.39.38-.68A10.1,10.1,0,0,1,141.16,69a11.64,11.64,0,0,1,3.28-2.14,15,15,0,0,1,4.61-1.12,29.55,29.55,0,0,1,8.93.84c1.17.26,2.12.5,2.78.66l1,.25s-.31-.22-.88-.58a26.92,26.92,0,0,0-2.54-1.43,21.58,21.58,0,0,0-4.08-1.55,15.69,15.69,0,0,0-5.45-.5,12.27,12.27,0,0,0-5.31,1.69,10.41,10.41,0,0,0-3.27,3.14A8.43,8.43,0,0,0,139.08,71a6.19,6.19,0,0,0-.13.78Z"/><path class="cls-12" d="M39.28,68.24l.92-.52c.59-.32,1.46-.77,2.55-1.23a18.5,18.5,0,0,1,3.87-1.16,14.66,14.66,0,0,1,4.74-.1,22.37,22.37,0,0,1,8.32,3.1A20.36,20.36,0,0,1,62,70l.81.68-.14-.24c-.09-.16-.21-.4-.4-.68a13.8,13.8,0,0,0-1.86-2.29,16,16,0,0,0-3.51-2.69,14.92,14.92,0,0,0-5.21-1.81,12.33,12.33,0,0,0-5.55.51,14.06,14.06,0,0,0-4,2.05,16.19,16.19,0,0,0-2.19,2C39.51,67.94,39.28,68.24,39.28,68.24Z"/><path class="cls-26" d="M185.67,44.87a109.24,109.24,0,0,1-2.26,19.29l-18.58,3.63-5.08-3.63,5.65,1.67,16-4.14Z"/><path class="cls-26" d="M159.75,57.69l-2.3,4.21c-10.11-2.33-17.15-.25-20.66,6.91l-29.24,1.52,6.11-14.53L109.9,68.29l27.18-1.81c3.34-6.65,10.43-7.89,19.93-5.66Z"/><path class="cls-26" d="M109.35,59.12,104.6,70.33l-36.51,1a84.11,84.11,0,0,1,2.47-14.68L69.29,69.93l34.94-1.7Z"/><path class="cls-12" d="M171.87,41.79l9.62,0v6l-11,.21Zm9.19.4-8.84,0-1.15,5.32,10-.18Z"/><path class="cls-25" d="M172.27,41.37l9.63,0v6l-11,.2Zm9.19.41-8.84,0-1.15,5.32,10-.18Z"/><path class="cls-26" d="M67.92,57.26,46.18,58.54a26.45,26.45,0,0,0,7.52-5.48l15.72-.46Zm2.69-.16,40.23-2.37,1.34-3.4-40.49,1.2Zm92.89-7.28-48.17,1.42-1.28,3.3,48.58-2.86Zm2,1.69,16.15-1,.72-1.29-16.14.48Z"/><path class="cls-12" d="M28.48,62.31l.93.07a21.92,21.92,0,0,0,2.53,0,27,27,0,0,0,15.53-5.57,24,24,0,0,0,1.94-1.63l.67-.64-.87.34-2.31.92c-1.95.77-4.61,1.76-7.55,2.82s-5.62,2-7.61,2.61c-1,.33-1.81.59-2.37.76Z"/><g class="cls-40"><path class="cls-41" d="M124.08,23l6.53-16.63,1,.07L126,22.93ZM85.21,25.1A152.16,152.16,0,0,1,96.8,5.91h-.45A173.43,173.43,0,0,0,83.66,25.2Zm93.07-3a69.34,69.34,0,0,0-11.38-10l-.94-.26a65.78,65.78,0,0,1,9.1,10.19Zm-16.39,0C160.15,18.19,158,14,155.51,9.4l-.34-.06c2.09,4.45,3.85,8.68,5.32,12.74Z"/></g></g></g></g></svg>