<svg xmlns="http://www.w3.org/2000/svg" xmlns:xlink="http://www.w3.org/1999/xlink" viewBox="0 0 119.4 138.42"><defs><style>.cls-1{mask:url(#mask);filter:url(#luminosity-noclip-6);}.cls-10,.cls-14,.cls-2,.cls-4,.cls-41,.cls-42,.cls-6,.cls-8{mix-blend-mode:multiply;}.cls-2{fill:url(#Áåçûìÿííûé_ãðàäèåíò_8);}.cls-3{mask:url(#mask-2);filter:url(#luminosity-noclip-7);}.cls-4{fill:url(#Áåçûìÿííûé_ãðàäèåíò_8-2);}.cls-5{mask:url(#mask-3);filter:url(#luminosity-noclip-8);}.cls-6{fill:url(#Áåçûìÿííûé_ãðàäèåíò_8-3);}.cls-7{mask:url(#mask-4);filter:url(#luminosity-noclip-9);}.cls-8{fill:url(#Áåçûìÿííûé_ãðàäèåíò_8-4);}.cls-9{mask:url(#mask-5);filter:url(#luminosity-noclip-10);}.cls-10{fill:url(#Áåçûìÿííûé_ãðàäèåíò_8-5);}.cls-11{isolation:isolate;}.cls-12{fill:url(#Áåçûìÿííûé_ãðàäèåíò_30);}.cls-13{fill:url(#Áåçûìÿííûé_ãðàäèåíò_6);}.cls-14,.cls-41,.cls-42{fill:#b86053;}.cls-14{opacity:0.4;}.cls-15,.cls-36,.cls-38{fill:#fff7cc;}.cls-15,.cls-41{opacity:0.5;}.cls-15,.cls-26,.cls-28,.cls-30,.cls-32,.cls-34,.cls-38{mix-blend-mode:screen;}.cls-16{fill:url(#Áåçûìÿííûé_ãðàäèåíò_30-2);}.cls-17{fill:url(#Áåçûìÿííûé_ãðàäèåíò_6-2);}.cls-18{fill:url(#Áåçûìÿííûé_ãðàäèåíò_6-3);}.cls-19{fill:url(#Áåçûìÿííûé_ãðàäèåíò_33);}.cls-20{fill:url(#Áåçûìÿííûé_ãðàäèåíò_30-3);}.cls-21{fill:url(#Áåçûìÿííûé_ãðàäèåíò_30-4);}.cls-22{fill:url(#Áåçûìÿííûé_ãðàäèåíò_287);}.cls-23{fill:url(#Áåçûìÿííûé_ãðàäèåíò_287-2);}.cls-24{fill:url(#Áåçûìÿííûé_ãðàäèåíò_7);}.cls-25{mask:url(#mask-6);}.cls-26,.cls-28,.cls-30,.cls-32,.cls-34{opacity:0.75;}.cls-26{fill:url(#Áåçûìÿííûé_ãðàäèåíò_28);}.cls-27{mask:url(#mask-7);}.cls-28{fill:url(#Áåçûìÿííûé_ãðàäèåíò_28-2);}.cls-29{mask:url(#mask-8);}.cls-30{fill:url(#Áåçûìÿííûé_ãðàäèåíò_28-3);}.cls-31{mask:url(#mask-9);}.cls-32{fill:url(#Áåçûìÿííûé_ãðàäèåíò_28-4);}.cls-33{mask:url(#mask-10);}.cls-34{fill:url(#Áåçûìÿííûé_ãðàäèåíò_28-5);}.cls-35{fill:#ffd699;}.cls-37{fill:#9a1418;}.cls-38{opacity:0.3;}.cls-39{fill:#d96118;}.cls-40{fill:url(#Áåçûìÿííûé_ãðàäèåíò_7-2);}.cls-42{opacity:0.6;}.cls-43{filter:url(#luminosity-noclip-5);}.cls-44{filter:url(#luminosity-noclip-4);}.cls-45{filter:url(#luminosity-noclip-3);}.cls-46{filter:url(#luminosity-noclip-2);}.cls-47{filter:url(#luminosity-noclip);}</style><filter id="luminosity-noclip" x="8.86" y="-8137.86" width="17.53" height="32766" filterUnits="userSpaceOnUse" color-interpolation-filters="sRGB"><feFlood flood-color="#fff" result="bg"/><feBlend in="SourceGraphic" in2="bg"/></filter><mask id="mask" x="8.86" y="-8137.86" width="17.53" height="32766" maskUnits="userSpaceOnUse"><g class="cls-47"/></mask><linearGradient id="Áåçûìÿííûé_ãðàäèåíò_8" x1="17.36" y1="104" x2="18.75" y2="72.48" gradientUnits="userSpaceOnUse"><stop offset="0" stop-color="#fff"/><stop offset="1"/></linearGradient><filter id="luminosity-noclip-2" x="93.25" y="-8137.86" width="16.79" height="32766" filterUnits="userSpaceOnUse" color-interpolation-filters="sRGB"><feFlood flood-color="#fff" result="bg"/><feBlend in="SourceGraphic" in2="bg"/></filter><mask id="mask-2" x="93.25" y="-8137.86" width="16.79" height="32766" maskUnits="userSpaceOnUse"><g class="cls-46"/></mask><linearGradient id="Áåçûìÿííûé_ãðàäèåíò_8-2" x1="-291.73" y1="105.05" x2="-290.34" y2="73.51" gradientTransform="matrix(-1, 0.01, 0.01, 1, -190.82, 1.88)" xlink:href="#Áåçûìÿííûé_ãðàäèåíò_8"/><filter id="luminosity-noclip-3" x="19.79" y="-8137.86" width="40.65" height="32766" filterUnits="userSpaceOnUse" color-interpolation-filters="sRGB"><feFlood flood-color="#fff" result="bg"/><feBlend in="SourceGraphic" in2="bg"/></filter><mask id="mask-3" x="19.79" y="-8137.86" width="40.65" height="32766" maskUnits="userSpaceOnUse"><g class="cls-45"/></mask><linearGradient id="Áåçûìÿííûé_ãðàäèåíò_8-3" x1="40.17" y1="106.21" x2="40.08" y2="75.54" xlink:href="#Áåçûìÿííûé_ãðàäèåíò_8"/><filter id="luminosity-noclip-4" x="60.45" y="-8137.86" width="39.01" height="32766" filterUnits="userSpaceOnUse" color-interpolation-filters="sRGB"><feFlood flood-color="#fff" result="bg"/><feBlend in="SourceGraphic" in2="bg"/></filter><mask id="mask-4" x="60.45" y="-8137.86" width="39.01" height="32766" maskUnits="userSpaceOnUse"><g class="cls-44"/></mask><linearGradient id="Áåçûìÿííûé_ãðàäèåíò_8-4" x1="80" y1="106.01" x2="79.91" y2="75.66" xlink:href="#Áåçûìÿííûé_ãðàäèåíò_8"/><filter id="luminosity-noclip-5" x="19.47" y="-8137.86" width="80.53" height="32766" filterUnits="userSpaceOnUse" color-interpolation-filters="sRGB"><feFlood flood-color="#fff" result="bg"/><feBlend in="SourceGraphic" in2="bg"/></filter><mask id="mask-5" x="19.47" y="-8137.86" width="80.53" height="32766" maskUnits="userSpaceOnUse"><g class="cls-43"/></mask><linearGradient id="Áåçûìÿííûé_ãðàäèåíò_8-5" x1="59.74" y1="61.78" x2="59.74" y2="-3.04" xlink:href="#Áåçûìÿííûé_ãðàäèåíò_8"/><linearGradient id="Áåçûìÿííûé_ãðàäèåíò_30" x1="8.65" y1="70.01" x2="8.65" y2="81.41" gradientUnits="userSpaceOnUse"><stop offset="0.08" stop-color="#fcee21"/><stop offset="0.11" stop-color="#fce820"/><stop offset="0.3" stop-color="#fabb19"/><stop offset="0.47" stop-color="#f89a13"/><stop offset="0.62" stop-color="#f78610"/><stop offset="0.71" stop-color="#f77f0f"/></linearGradient><linearGradient id="Áåçûìÿííûé_ãðàäèåíò_6" x1="8.59" y1="83.49" x2="8.59" y2="71.05" gradientUnits="userSpaceOnUse"><stop offset="0" stop-color="#00b8c4"/><stop offset="0.03" stop-color="#15c2c4"/><stop offset="0.08" stop-color="#3cd5c5"/><stop offset="0.14" stop-color="#5be4c6"/><stop offset="0.2" stop-color="#71eec7"/><stop offset="0.25" stop-color="#7ff5c7"/><stop offset="0.3" stop-color="#83f7c7"/><stop offset="0.39" stop-color="#7af3c7"/><stop offset="0.55" stop-color="#63e8c6"/><stop offset="0.75" stop-color="#3cd5c5"/><stop offset="0.97" stop-color="#08bcc4"/><stop offset="1" stop-color="#00b8c4"/></linearGradient><linearGradient id="Áåçûìÿííûé_ãðàäèåíò_30-2" x1="170.24" y1="70.01" x2="170.24" y2="81.41" gradientTransform="matrix(-1, 0, 0, 1, 281, 0)" xlink:href="#Áåçûìÿííûé_ãðàäèåíò_30"/><linearGradient id="Áåçûìÿííûé_ãðàäèåíò_6-2" x1="170.19" y1="83.49" x2="170.19" y2="71.05" gradientTransform="matrix(-1, 0, 0, 1, 281, 0)" xlink:href="#Áåçûìÿííûé_ãðàäèåíò_6"/><linearGradient id="Áåçûìÿííûé_ãðàäèåíò_6-3" x1="59.74" y1="85.71" x2="59.74" y2="0.88" xlink:href="#Áåçûìÿííûé_ãðàäèåíò_6"/><linearGradient id="Áåçûìÿííûé_ãðàäèåíò_33" x1="59.65" y1="79.69" x2="59.65" y2="47.08" gradientUnits="userSpaceOnUse"><stop offset="0.04" stop-color="#83f7c7"/><stop offset="0.14" stop-color="#7af3c7"/><stop offset="0.3" stop-color="#63e8c6"/><stop offset="0.49" stop-color="#3cd5c5"/><stop offset="0.72" stop-color="#08bcc4"/><stop offset="0.75" stop-color="#00b8c4"/></linearGradient><linearGradient id="Áåçûìÿííûé_ãðàäèåíò_30-3" x1="61.9" y1="-3.57" x2="59.63" y2="78.35" xlink:href="#Áåçûìÿííûé_ãðàäèåíò_30"/><linearGradient id="Áåçûìÿííûé_ãðàäèåíò_30-4" x1="59.74" y1="72.03" x2="59.74" y2="132.33" xlink:href="#Áåçûìÿííûé_ãðàäèåíò_30"/><linearGradient id="Áåçûìÿííûé_ãðàäèåíò_287" x1="20.82" y1="124.7" x2="20.82" y2="136.34" gradientUnits="userSpaceOnUse"><stop offset="0" stop-color="#131f49"/><stop offset="0.87" stop-color="#14466a"/><stop offset="1" stop-color="#22567d"/></linearGradient><linearGradient id="Áåçûìÿííûé_ãðàäèåíò_287-2" x1="-208.69" y1="124.7" x2="-208.69" y2="136.34" gradientTransform="matrix(-1, 0, 0, 1, -110.2, 0)" xlink:href="#Áåçûìÿííûé_ãðàäèåíò_287"/><linearGradient id="Áåçûìÿííûé_ãðàäèåíò_7" x1="18.37" y1="111.99" x2="17.89" y2="98.03" gradientUnits="userSpaceOnUse"><stop offset="0" stop-color="#e7855f"/><stop offset="1" stop-color="#9a1418"/></linearGradient><filter id="luminosity-noclip-6" x="8.86" y="74.76" width="17.53" height="24.94" filterUnits="userSpaceOnUse" color-interpolation-filters="sRGB"><feFlood flood-color="#fff" result="bg"/><feBlend in="SourceGraphic" in2="bg"/></filter><mask id="mask-6" x="8.86" y="74.76" width="17.53" height="24.94" maskUnits="userSpaceOnUse"><g class="cls-1"><path class="cls-2" d="M17.72,74.76c-3.4,7.56-6.4,14.83-8.86,21.71A43.75,43.75,0,0,1,26.39,99.7,40.78,40.78,0,0,1,18.7,75.14Z"/></g></mask><linearGradient id="Áåçûìÿííûé_ãðàäèåíò_28" x1="17.36" y1="104" x2="18.75" y2="72.48" gradientUnits="userSpaceOnUse"><stop offset="0" stop-color="#fff7cc"/><stop offset="1" stop-color="#fff7cc"/></linearGradient><filter id="luminosity-noclip-7" x="93.25" y="74.76" width="16.79" height="25.02" filterUnits="userSpaceOnUse" color-interpolation-filters="sRGB"><feFlood flood-color="#fff" result="bg"/><feBlend in="SourceGraphic" in2="bg"/></filter><mask id="mask-7" x="93.25" y="74.76" width="16.79" height="25.02" maskUnits="userSpaceOnUse"><g class="cls-3"><path class="cls-4" d="M101.32,74.76c3.34,7.53,6.29,14.77,8.72,21.62a40.45,40.45,0,0,0-16.79,3.4,42,42,0,0,0,7.13-24.63Z"/></g></mask><linearGradient id="Áåçûìÿííûé_ãðàäèåíò_28-2" x1="-291.73" y1="105.05" x2="-290.34" y2="73.51" gradientTransform="matrix(-1, 0.01, 0.01, 1, -190.82, 1.88)" xlink:href="#Áåçûìÿííûé_ãðàäèåíò_28"/><filter id="luminosity-noclip-8" x="19.79" y="75.64" width="40.65" height="23.53" filterUnits="userSpaceOnUse" color-interpolation-filters="sRGB"><feFlood flood-color="#fff" result="bg"/><feBlend in="SourceGraphic" in2="bg"/></filter><mask id="mask-8" x="19.79" y="75.64" width="40.65" height="23.53" maskUnits="userSpaceOnUse"><g class="cls-5"><path class="cls-6" d="M19.85,75.64a33.24,33.24,0,0,0,7.43,23.23l33.17.3-.07-19Z"/></g></mask><linearGradient id="Áåçûìÿííûé_ãðàäèåíò_28-3" x1="40.17" y1="106.21" x2="40.08" y2="75.54" xlink:href="#Áåçûìÿííûé_ãðàäèåíò_28"/><filter id="luminosity-noclip-9" x="60.45" y="75.64" width="39.01" height="23.53" filterUnits="userSpaceOnUse" color-interpolation-filters="sRGB"><feFlood flood-color="#fff" result="bg"/><feBlend in="SourceGraphic" in2="bg"/></filter><mask id="mask-9" x="60.45" y="75.64" width="39.01" height="23.53" maskUnits="userSpaceOnUse"><g class="cls-7"><path class="cls-8" d="M99.4,75.64l-38.89,4.5-.06,19,31.82-.3A34.25,34.25,0,0,0,99.4,75.64Z"/></g></mask><linearGradient id="Áåçûìÿííûé_ãðàäèåíò_28-4" x1="80" y1="106.01" x2="79.91" y2="75.66" xlink:href="#Áåçûìÿííûé_ãðàäèåíò_28"/><filter id="luminosity-noclip-10" x="19.47" y="0.76" width="80.53" height="56.76" filterUnits="userSpaceOnUse" color-interpolation-filters="sRGB"><feFlood flood-color="#fff" result="bg"/><feBlend in="SourceGraphic" in2="bg"/></filter><mask id="mask-10" x="19.47" y="0.76" width="80.53" height="56.76" maskUnits="userSpaceOnUse"><g class="cls-9"><path class="cls-10" d="M60.09.76h-.7c-13.11,0-23,.83-31.06,2.61l.53,3.26-.05.17c-4,13.1-7.07,29.59-9.34,50.08l1.45.64c2.22-18,5.67-38.09,11-52.53L32,4.55l.47,0A244.58,244.58,0,0,1,87,4.5l.47,0,.16.44c5.29,14.44,8.75,34.48,11,52.52l1.45-.65c-2.27-20.48-5.35-37-9.34-50.06l0-.17.54-3.26C83.09,1.59,73.19.76,60.09.76Z"/></g></mask><linearGradient id="Áåçûìÿííûé_ãðàäèåíò_28-5" x1="59.74" y1="61.78" x2="59.74" y2="-3.04" xlink:href="#Áåçûìÿííûé_ãðàäèåíò_28"/><linearGradient id="Áåçûìÿííûé_ãðàäèåíò_7-2" x1="148.33" y1="111.99" x2="147.85" y2="98.03" gradientTransform="matrix(-1, 0, 0, 1, 249.5, 0)" xlink:href="#Áåçûìÿííûé_ãðàäèåíò_7"/></defs><g class="cls-11"><g id="Layer_2" data-name="Layer 2"><g id="layer_1-2" data-name="layer 1"><path class="cls-12" d="M17.29,77a17.15,17.15,0,0,0-3.35-5.44,31,31,0,0,0-13.67,0,11.48,11.48,0,0,0,2.28,9.78,84.62,84.62,0,0,0,12.77-.59Z"/><path class="cls-13" d="M5,80.42c-.69,0-1.35,0-2,0a10.41,10.41,0,0,1-1.95-8.07,27.21,27.21,0,0,1,5.7-.59,34.71,34.71,0,0,1,6.69.69,17,17,0,0,1,2.76,4.53l-1.52,2.89C10.86,80.22,7.68,80.42,5,80.42Z"/><path class="cls-14" d="M1.09,72.31c3.43-.89,7.63-.63,12.39.1a20.53,20.53,0,0,1,2.76,4.53,32.87,32.87,0,0,0-3.65-3.26S5.53,72.64,1.09,72.31Z"/><path class="cls-15" d="M9.81,72.39l2.46,7.18-2,.16L4.77,72.27Zm.53.16,2.38,7h.66L12.27,72.7Z"/><path class="cls-16" d="M102.11,77a17.15,17.15,0,0,1,3.35-5.44,31,31,0,0,1,13.67,0,11.51,11.51,0,0,1-2.27,9.78,84.75,84.75,0,0,1-12.78-.59Z"/><path class="cls-17" d="M114.39,80.42c.69,0,1.35,0,2,0a10.45,10.45,0,0,0,1.94-8.07,27.11,27.11,0,0,0-5.69-.59,34.55,34.55,0,0,0-6.69.69,16.47,16.47,0,0,0-2.76,4.53l1.51,2.89C108.54,80.22,111.72,80.42,114.39,80.42Z"/><path class="cls-14" d="M118.31,72.31c-3.42-.89-7.63-.63-12.38.1a20.16,20.16,0,0,0-2.76,4.53,32.17,32.17,0,0,1,3.64-3.26S113.88,72.64,118.31,72.31Z"/><path class="cls-15" d="M114.63,72.27l-5.44,7.46-2.06-.16,2.47-7.18Zm-7.5.43L106,79.57h.67l2.37-7Z"/><path class="cls-18" d="M86.88,5.25a243.85,243.85,0,0,0-54.28,0C26.5,21.88,22.33,47.59,19.85,74.76a201.77,201.77,0,0,0,79.78,0C97.14,47.59,93,21.88,86.88,5.25Z"/><path class="cls-19" d="M20.82,73.9l4.45-30.67H35.7V53.68h2.84V67.73h1.58V57.52H42V47.41l7-.57v18.8h.95V54.25l5.69-.57v4.89h3.28l.43,5,2-.38-.57-15,8.17-1v-4h7v5.7l4,.19V62.41L82.22,62V53.49l5.46-.38V46.27l3.44-.19-.65-4.84h3.37l4.65,32.41A198.71,198.71,0,0,1,20.82,73.9Z"/><path class="cls-20" d="M91.39,6.58,92,2.79C82.74.65,71.65,0,59.74,0s-23,.65-32.28,2.79l.63,3.79C22.48,25,19.17,48.23,17.07,74l2.78.78C22.33,47.59,26.5,21.88,32.6,5.25a243.85,243.85,0,0,1,54.28,0C93,21.88,97.14,47.59,99.63,74.76l2.79-.58C100.32,48.35,97,25,91.39,6.58Z"/><path class="cls-21" d="M111.78,97.35A139.21,139.21,0,0,0,102.65,77c-.07-.93-.15-1.86-.23-2.79l-2.79.58H19.85L17.07,74c-.08,1-.17,2-.24,3A140.33,140.33,0,0,0,7.69,97.35a42,42,0,0,0,1.38,14.82c-2,4.8-1.4,9.23,2.75,13.16q48.39,1.76,95.83,0c4.15-3.93,4.78-8.36,2.76-13.16A41.94,41.94,0,0,0,111.78,97.35Z"/><path class="cls-22" d="M14.49,125.43a60.66,60.66,0,0,0,2.27,9.36.6.6,0,0,0,.57.42H25a.62.62,0,0,0,.59-.47,52.84,52.84,0,0,0,1.53-8.94Z"/><path class="cls-23" d="M104.82,125.43a60.66,60.66,0,0,1-2.27,9.36.61.61,0,0,1-.58.42H94.28a.61.61,0,0,1-.59-.47,51.86,51.86,0,0,1-1.53-8.94Z"/><path class="cls-24" d="M7.68,97.51c-.23,5.46-.12,10.16,1.39,14.66,6.56.88,14.38.63,19.73-1-1.11-3.23-1.64-10.09-1.64-10.09C27.27,100.42,14.23,97.31,7.68,97.51Z"/><g class="cls-25"><path class="cls-26" d="M17.72,74.76c-3.4,7.56-6.4,14.83-8.86,21.71A43.75,43.75,0,0,1,26.39,99.7,40.78,40.78,0,0,1,18.7,75.14Z"/></g><g class="cls-27"><path class="cls-28" d="M101.32,74.76c3.34,7.53,6.29,14.77,8.72,21.62a40.45,40.45,0,0,0-16.79,3.4,42,42,0,0,0,7.13-24.63Z"/></g><g class="cls-29"><path class="cls-30" d="M19.85,75.64a33.24,33.24,0,0,0,7.43,23.23l33.17.3-.07-19Z"/></g><g class="cls-31"><path class="cls-32" d="M99.4,75.64l-38.89,4.5-.06,19,31.82-.3A34.25,34.25,0,0,0,99.4,75.64Z"/></g><path class="cls-15" d="M29.8,110.65H89.72s-20,1.71-29.55,2S29.8,110.65,29.8,110.65Z"/><path class="cls-14" d="M9.12,119.41a9.91,9.91,0,0,0,3,5c29.23,1.44,61.09,1.25,94.68,0a8.77,8.77,0,0,0,3.24-7.7c-.87,2.71-2.29,4.85-4.65,6-32.38.93-63.41,1.1-92.67.28Z"/><path class="cls-14" d="M19.2,79.57c.22,7.17,3.29,13.59,8,19.6C23.32,92.54,20.33,86,19.2,79.57Z"/><path class="cls-14" d="M100.32,79.57c-.22,7.17-3.29,13.59-8,19.6C96.2,92.54,99.19,86,100.32,79.57Z"/><path class="cls-15" d="M9.85,112.93a51,51,0,0,0,9.94.5,65.82,65.82,0,0,0,9.26-1.77,28.07,28.07,0,0,1-9.2,2.91C15.38,115,9.85,112.93,9.85,112.93Z"/><path class="cls-15" d="M109.67,112.93a51,51,0,0,1-9.94.5,65.82,65.82,0,0,1-9.26-1.77,28.07,28.07,0,0,0,9.2,2.91C104.14,115,109.67,112.93,109.67,112.93Z"/><g class="cls-33"><path class="cls-34" d="M60.09.76h-.7c-13.11,0-23,.83-31.06,2.61l.53,3.26-.05.17c-4,13.1-7.07,29.59-9.34,50.08l1.45.64c2.22-18,5.67-38.09,11-52.53L32,4.55l.47,0A244.58,244.58,0,0,1,87,4.5l.47,0,.16.44c5.29,14.44,8.75,34.48,11,52.52l1.45-.65c-2.27-20.48-5.35-37-9.34-50.06l0-.17.54-3.26C83.09,1.59,73.19.76,60.09.76Z"/></g><path class="cls-14" d="M32.6,5.25,29,4.11a218.77,218.77,0,0,1,61.65,0L86.88,5.25A288.64,288.64,0,0,0,32.6,5.25Z"/><polygon class="cls-14" points="76.03 109.28 41.75 109.28 40.98 102.51 77.95 102.51 76.03 109.28"/><polygon class="cls-35" points="75.86 108.46 41.93 108.46 41.17 101.49 77.76 101.49 75.86 108.46"/><polygon class="cls-14" points="42.56 107.36 41.99 102.06 76.68 102.06 76.18 104.71 75.92 103.01 42.69 102.76 42.56 107.36"/><polygon class="cls-36" points="42.66 107.9 75.16 107.82 74.78 106.75 42.98 107.29 42.66 107.9"/><path class="cls-14" d="M20.41,75.7l79-.06s-19,1.65-38.95,2A362.49,362.49,0,0,1,20.41,75.7Z"/><path class="cls-14" d="M24.11,45.07c-1.34,11-2.45,21.32-2.66,28.58,10.24.71,22.75.68,36.21.33L23.18,72.16Z"/><path class="cls-14" d="M95.39,45.07c1.34,11,2.46,21.32,2.66,28.58-10.24.71-22.74.68-36.2.33l34.48-1.82Z"/><path class="cls-14" d="M24.87,35.83C27.11,24,29.58,13.26,32.6,5.25a243.84,243.84,0,0,1,54.28,0c3.4,8.58,6.06,21.91,8.61,36C92,28.1,88.44,15.45,83.87,8A342.46,342.46,0,0,0,34,7.22C30.83,14.73,27.82,24.81,24.87,35.83Z"/><path class="cls-15" d="M68,5.25C60.15,23.36,52.33,48,44.77,73.9H39.08c3.6-26.69,7.27-51.69,11.26-68.65A88.42,88.42,0,0,1,68,5.25Zm-26.47,1L35.66,73.65h1.9L48.7,5.44Q45,5.7,41.54,6.2Z"/><path class="cls-37" d="M8.49,98.35a13.88,13.88,0,0,0,0,4.94l18.15.57v-2.37A81.44,81.44,0,0,0,8.49,98.35Z"/><polygon class="cls-38" points="8.49 104.05 26.39 104.71 26.93 107.33 8.86 107.13 8.49 104.05"/><path class="cls-39" d="M8.86,107.9l1,3.17a130.2,130.2,0,0,0,17.74-.13l-.66-2.54Z"/><path class="cls-14" d="M8.49,108.4a31.36,31.36,0,0,0,1,3.34c6.21,1.1,12.28.32,18.32-.81-6.55.24-12.71.27-17.09-.66A27,27,0,0,1,8.49,108.4Z"/><path class="cls-15" d="M8.86,107.13l-.37-8.78a76.79,76.79,0,0,1,18.15,3.14l.29,6.91-2.12-5.6a79.27,79.27,0,0,0-14.47-1.69Z"/><path class="cls-40" d="M111.86,97.51c.22,5.46.12,10.16-1.39,14.66-6.56.88-14.39.63-19.73-1,1.11-3.23,1.64-10.09,1.64-10.09C92.26,100.42,105.31,97.31,111.86,97.51Z"/><path class="cls-37" d="M111.05,98.35a14.11,14.11,0,0,1,0,4.94l-18.15.57v-2.37A81.34,81.34,0,0,1,111.05,98.35Z"/><polygon class="cls-38" points="111.05 104.05 93.15 104.71 92.61 107.33 110.68 107.13 111.05 104.05"/><path class="cls-39" d="M110.68,107.9l-1,3.17A130.2,130.2,0,0,1,92,110.94l.66-2.54Z"/><path class="cls-14" d="M111.05,108.4a33.87,33.87,0,0,1-1,3.34c-6.21,1.1-12.28.32-18.32-.81,6.55.24,12.71.27,17.09-.66A27,27,0,0,0,111.05,108.4Z"/><path class="cls-15" d="M110.68,107.13l.37-8.78a76.79,76.79,0,0,0-18.15,3.14l-.29,6.91,2.12-5.6a79.27,79.27,0,0,1,14.47-1.69Z"/><ellipse class="cls-41" cx="59.59" cy="135.21" rx="51.45" ry="3.21"/><path class="cls-42" d="M119.13,71.53a31,31,0,0,0-13.67,0A14.89,14.89,0,0,0,102.57,76l-.15-1.8C100.32,48.35,97,25,91.39,6.58L92,2.79C82.74.65,71.65,0,59.74,0s-23,.65-32.28,2.79l.63,3.79C22.48,25,19.17,48.23,17.07,74c-.06.71-.12,1.42-.17,2.12a15.24,15.24,0,0,0-3-4.57,31,31,0,0,0-13.67,0,11.48,11.48,0,0,0,2.28,9.78,84.33,84.33,0,0,0,12.29-.54A136.49,136.49,0,0,0,7.69,97.35a.81.81,0,0,1,0,.16h0v.09a38.34,38.34,0,0,0,0,6.43,29.68,29.68,0,0,0,1.41,8.14c-2,4.8-1.4,9.23,2.75,13.16,2.29.09,4.58.15,6.87.22l-4.2-.12a60.66,60.66,0,0,0,2.27,9.36.6.6,0,0,0,.57.42H25a.62.62,0,0,0,.59-.47,52.84,52.84,0,0,0,1.53-8.94l-1.57,0q33.51.87,66.58,0a51.92,51.92,0,0,0,1.53,8.93.61.61,0,0,0,.59.47H102a.61.61,0,0,0,.58-.42,60.66,60.66,0,0,0,2.27-9.36h-.25l3.08-.1c4.15-3.93,4.78-8.36,2.76-13.16h.06a33.59,33.59,0,0,0,1.48-11c0-.24,0-.49,0-.74,0-.94,0-1.9-.08-2.9h-.07a.92.92,0,0,0,0-.16,135.55,135.55,0,0,0-7.14-16.58,81.93,81.93,0,0,0,12.22.54A11.51,11.51,0,0,0,119.13,71.53Z"/></g></g></g></svg>