<svg xmlns="http://www.w3.org/2000/svg" xmlns:xlink="http://www.w3.org/1999/xlink" viewBox="0 0 175.26 136.94"><defs><style>.cls-1{mask:url(#mask);filter:url(#luminosity-noclip-5);}.cls-10,.cls-17,.cls-2,.cls-22,.cls-33,.cls-4,.cls-6,.cls-8{mix-blend-mode:multiply;}.cls-2{fill:url(#Áåçûìÿííûé_ãðàäèåíò_24);}.cls-3{mask:url(#mask-2);filter:url(#luminosity-noclip-6);}.cls-4{fill:url(#Áåçûìÿííûé_ãðàäèåíò_24-2);}.cls-5{mask:url(#mask-3);filter:url(#luminosity-noclip-7);}.cls-6{fill:url(#Áåçûìÿííûé_ãðàäèåíò_24-3);}.cls-7{mask:url(#mask-4);filter:url(#luminosity-noclip-8);}.cls-8{fill:url(#Áåçûìÿííûé_ãðàäèåíò_24-4);}.cls-9{isolation:isolate;}.cls-10,.cls-33{fill:#b86053;}.cls-10,.cls-15,.cls-17{opacity:0.5;}.cls-11{fill:#001138;}.cls-12{fill:url(#Áåçûìÿííûé_ãðàäèåíò_287);}.cls-13{fill:#002a40;}.cls-14{fill:url(#Áåçûìÿííûé_ãðàäèåíò_433);}.cls-15,.cls-16,.cls-32,.cls-38,.cls-43{fill:#fff7cc;}.cls-15,.cls-16,.cls-24,.cls-26,.cls-28,.cls-38,.cls-43{mix-blend-mode:screen;}.cls-16,.cls-22,.cls-33{opacity:0.4;}.cls-17{fill:#22567d;}.cls-18{fill:url(#Áåçûìÿííûé_ãðàäèåíò_287-2);}.cls-19{fill:url(#Áåçûìÿííûé_ãðàäèåíò_433-2);}.cls-20{fill:url(#Áåçûìÿííûé_ãðàäèåíò_16);}.cls-21{mask:url(#mask-5);}.cls-22{fill:url(#Áåçûìÿííûé_ãðàäèåíò_35);}.cls-23{mask:url(#mask-6);}.cls-24,.cls-26,.cls-28,.cls-43{opacity:0.75;}.cls-24{fill:url(#Áåçûìÿííûé_ãðàäèåíò_28);}.cls-25{mask:url(#mask-7);}.cls-26{fill:url(#Áåçûìÿííûé_ãðàäèåíò_28-2);}.cls-27{mask:url(#mask-8);}.cls-28{fill:url(#Áåçûìÿííûé_ãðàäèåíò_28-3);}.cls-29{fill:url(#Áåçûìÿííûé_ãðàäèåíò_6);}.cls-30{fill:url(#Áåçûìÿííûé_ãðàäèåíò_6-2);}.cls-31{fill:#ffd699;}.cls-34{fill:#d96118;}.cls-35{fill:#f7a01e;}.cls-36{fill:url(#Áåçûìÿííûé_ãðàäèåíò_7);}.cls-37{fill:#9a1418;}.cls-38{opacity:0.3;}.cls-39{fill:#e36519;}.cls-40{fill:url(#Áåçûìÿííûé_ãðàäèåíò_54);}.cls-41{fill:url(#Áåçûìÿííûé_ãðàäèåíò_33);}.cls-42{fill:url(#Áåçûìÿííûé_ãðàäèåíò_33-2);}.cls-44{fill:#004d5c;}.cls-45{fill:url(#Áåçûìÿííûé_ãðàäèåíò_16-2);}.cls-46{filter:url(#luminosity-noclip-4);}.cls-47{filter:url(#luminosity-noclip-3);}.cls-48{filter:url(#luminosity-noclip-2);}.cls-49{filter:url(#luminosity-noclip);}</style><filter id="luminosity-noclip" x="13.44" y="-8284.06" width="134.53" height="32766" filterUnits="userSpaceOnUse" color-interpolation-filters="sRGB"><feFlood flood-color="#fff" result="bg"/><feBlend in="SourceGraphic" in2="bg"/></filter><mask id="mask" x="13.44" y="-8284.06" width="134.53" height="32766" maskUnits="userSpaceOnUse"><g class="cls-49"/></mask><linearGradient id="Áåçûìÿííûé_ãðàäèåíò_24" x1="412.73" y1="83.5" x2="412.73" y2="94.16" gradientTransform="matrix(-1, 0, 0, 1, 493.44, 0)" gradientUnits="userSpaceOnUse"><stop offset="0" stop-color="#fff"/><stop offset="1"/></linearGradient><filter id="luminosity-noclip-2" x="16.54" y="-8284.06" width="7.46" height="32766" filterUnits="userSpaceOnUse" color-interpolation-filters="sRGB"><feFlood flood-color="#fff" result="bg"/><feBlend in="SourceGraphic" in2="bg"/></filter><mask id="mask-2" x="16.54" y="-8284.06" width="7.46" height="32766" maskUnits="userSpaceOnUse"><g class="cls-48"/></mask><linearGradient id="Áåçûìÿííûé_ãðàäèåíò_24-2" x1="473.17" y1="43.61" x2="473.17" y2="16.28" xlink:href="#Áåçûìÿííûé_ãðàäèåíò_24"/><filter id="luminosity-noclip-3" x="9.51" y="-8284.06" width="7.11" height="32766" filterUnits="userSpaceOnUse" color-interpolation-filters="sRGB"><feFlood flood-color="#fff" result="bg"/><feBlend in="SourceGraphic" in2="bg"/></filter><mask id="mask-3" x="9.51" y="-8284.06" width="7.11" height="32766" maskUnits="userSpaceOnUse"><g class="cls-47"/></mask><linearGradient id="Áåçûìÿííûé_ãðàäèåíò_24-3" x1="480.38" y1="43.89" x2="480.38" y2="16.46" xlink:href="#Áåçûìÿííûé_ãðàäèåíò_24"/><filter id="luminosity-noclip-4" x="39.26" y="-8284.06" width="130.05" height="32766" filterUnits="userSpaceOnUse" color-interpolation-filters="sRGB"><feFlood flood-color="#fff" result="bg"/><feBlend in="SourceGraphic" in2="bg"/></filter><mask id="mask-4" x="39.26" y="-8284.06" width="130.05" height="32766" maskUnits="userSpaceOnUse"><g class="cls-46"/></mask><linearGradient id="Áåçûìÿííûé_ãðàäèåíò_24-4" x1="389.15" y1="43.7" x2="389.15" y2="8.47" xlink:href="#Áåçûìÿííûé_ãðàäèåíò_24"/><linearGradient id="Áåçûìÿííûé_ãðàäèåíò_287" x1="459.81" y1="113.97" x2="459.81" y2="135.58" gradientTransform="matrix(-1.03, 0, -0.38, 0.97, 554.14, 3.86)" gradientUnits="userSpaceOnUse"><stop offset="0" stop-color="#131f49"/><stop offset="0.87" stop-color="#14466a"/><stop offset="1" stop-color="#22567d"/></linearGradient><radialGradient id="Áåçûìÿííûé_ãðàäèåíò_433" cx="461.85" cy="122.16" r="12.08" gradientTransform="matrix(-1.03, 0, -0.38, 0.97, 554.14, 3.86)" gradientUnits="userSpaceOnUse"><stop offset="0" stop-color="#e2f0d5"/><stop offset="0.01" stop-color="#d9e7cf"/><stop offset="0.05" stop-color="#b9c9b9"/><stop offset="0.1" stop-color="#9eb0a7"/><stop offset="0.14" stop-color="#8a9d99"/><stop offset="0.2" stop-color="#7b8f8f"/><stop offset="0.26" stop-color="#73878a"/><stop offset="0.37" stop-color="#708588"/><stop offset="1" stop-color="#dad1c0"/></radialGradient><linearGradient id="Áåçûìÿííûé_ãðàäèåíò_287-2" x1="369.95" y1="113.79" x2="369.95" y2="135.4" xlink:href="#Áåçûìÿííûé_ãðàäèåíò_287"/><radialGradient id="Áåçûìÿííûé_ãðàäèåíò_433-2" cx="372" cy="121.99" r="12.08" xlink:href="#Áåçûìÿííûé_ãðàäèåíò_433"/><linearGradient id="Áåçûìÿííûé_ãðàäèåíò_16" x1="403.69" y1="-12.42" x2="408.19" y2="145.45" gradientTransform="matrix(-1, 0, 0, 1, 493.44, 0)" gradientUnits="userSpaceOnUse"><stop offset="0.08" stop-color="#f3ac36"/><stop offset="0.16" stop-color="#f29733"/><stop offset="0.33" stop-color="#f06a2d"/><stop offset="0.49" stop-color="#ef4928"/><stop offset="0.63" stop-color="#ee3525"/><stop offset="0.71" stop-color="#ee2e24"/></linearGradient><filter id="luminosity-noclip-5" x="13.44" y="82.28" width="134.53" height="17.68" filterUnits="userSpaceOnUse" color-interpolation-filters="sRGB"><feFlood flood-color="#fff" result="bg"/><feBlend in="SourceGraphic" in2="bg"/></filter><mask id="mask-5" x="13.44" y="82.28" width="134.53" height="17.68" maskUnits="userSpaceOnUse"><g class="cls-1"><polygon class="cls-2" points="147.97 83.66 13.45 82.28 17.38 99.65 146.68 99.96 147.97 83.66"/></g></mask><linearGradient id="Áåçûìÿííûé_ãðàäèåíò_35" x1="412.73" y1="83.5" x2="412.73" y2="94.16" gradientTransform="matrix(-1, 0, 0, 1, 493.44, 0)" gradientUnits="userSpaceOnUse"><stop offset="0" stop-color="#b86053"/><stop offset="1" stop-color="#b86053"/></linearGradient><filter id="luminosity-noclip-6" x="16.54" y="10.32" width="7.46" height="31.19" filterUnits="userSpaceOnUse" color-interpolation-filters="sRGB"><feFlood flood-color="#fff" result="bg"/><feBlend in="SourceGraphic" in2="bg"/></filter><mask id="mask-6" x="16.54" y="10.32" width="7.46" height="31.19" maskUnits="userSpaceOnUse"><g class="cls-3"><polygon class="cls-4" points="16.54 10.46 18.86 10.32 24 41.43 20.82 41.51 16.54 10.46"/></g></mask><linearGradient id="Áåçûìÿííûé_ãðàäèåíò_28" x1="473.17" y1="43.61" x2="473.17" y2="16.28" gradientTransform="matrix(-1, 0, 0, 1, 493.44, 0)" gradientUnits="userSpaceOnUse"><stop offset="0" stop-color="#fff7cc"/><stop offset="1" stop-color="#fff7cc"/></linearGradient><filter id="luminosity-noclip-7" x="9.51" y="10.48" width="7.11" height="31.3" filterUnits="userSpaceOnUse" color-interpolation-filters="sRGB"><feFlood flood-color="#fff" result="bg"/><feBlend in="SourceGraphic" in2="bg"/></filter><mask id="mask-7" x="9.51" y="10.48" width="7.11" height="31.3" maskUnits="userSpaceOnUse"><g class="cls-5"><polygon class="cls-6" points="16.1 10.49 16.32 10.48 16.61 12 10.91 41.75 9.51 41.78 16.1 10.49"/></g></mask><linearGradient id="Áåçûìÿííûé_ãðàäèåíò_28-2" x1="480.38" y1="43.89" x2="480.38" y2="16.46" xlink:href="#Áåçûìÿííûé_ãðàäèåíò_28"/><filter id="luminosity-noclip-8" x="39.26" y="0.78" width="130.05" height="40.21" filterUnits="userSpaceOnUse" color-interpolation-filters="sRGB"><feFlood flood-color="#fff" result="bg"/><feBlend in="SourceGraphic" in2="bg"/></filter><mask id="mask-8" x="39.26" y="0.78" width="130.05" height="40.21" maskUnits="userSpaceOnUse"><g class="cls-7"><polygon class="cls-8" points="39.26 9.03 169.31 0.78 162.21 38.07 42.09 40.99 39.26 9.03"/></g></mask><linearGradient id="Áåçûìÿííûé_ãðàäèåíò_28-3" x1="389.15" y1="43.7" x2="389.15" y2="8.47" xlink:href="#Áåçûìÿííûé_ãðàäèåíò_28"/><linearGradient id="Áåçûìÿííûé_ãðàäèåíò_6" x1="458.61" y1="58.31" x2="464.85" y2="6.88" gradientTransform="matrix(-1, 0, 0, 1, 493.44, 0)" gradientUnits="userSpaceOnUse"><stop offset="0" stop-color="#00b8c4"/><stop offset="0.03" stop-color="#15c2c4"/><stop offset="0.08" stop-color="#3cd5c5"/><stop offset="0.14" stop-color="#5be4c6"/><stop offset="0.2" stop-color="#71eec7"/><stop offset="0.25" stop-color="#7ff5c7"/><stop offset="0.3" stop-color="#83f7c7"/><stop offset="0.39" stop-color="#7af3c7"/><stop offset="0.55" stop-color="#63e8c6"/><stop offset="0.75" stop-color="#3cd5c5"/><stop offset="0.97" stop-color="#08bcc4"/><stop offset="1" stop-color="#00b8c4"/></linearGradient><linearGradient id="Áåçûìÿííûé_ãðàäèåíò_6-2" x1="476.68" y1="56.45" x2="482.81" y2="9.62" xlink:href="#Áåçûìÿííûé_ãðàäèåíò_6"/><linearGradient id="Áåçûìÿííûé_ãðàäèåíò_7" x1="334.82" y1="94.38" x2="345.34" y2="94.38" gradientTransform="matrix(-1, 0, 0, 1, 493.44, 0)" gradientUnits="userSpaceOnUse"><stop offset="0" stop-color="#e7855f"/><stop offset="1" stop-color="#9a1418"/></linearGradient><linearGradient id="Áåçûìÿííûé_ãðàäèåíò_54" x1="451.89" y1="70" x2="451.89" y2="57.88" gradientTransform="matrix(-1, 0, 0, 1, 493.44, 0)" gradientUnits="userSpaceOnUse"><stop offset="0" stop-color="#4da9a3"/><stop offset="1" stop-color="#004d5c"/></linearGradient><linearGradient id="Áåçûìÿííûé_ãðàäèåíò_33" x1="459.34" y1="50.58" x2="462.64" y2="27.73" gradientTransform="matrix(-1, 0, 0, 1, 493.44, 0)" gradientUnits="userSpaceOnUse"><stop offset="0.04" stop-color="#83f7c7"/><stop offset="0.14" stop-color="#7af3c7"/><stop offset="0.3" stop-color="#63e8c6"/><stop offset="0.49" stop-color="#3cd5c5"/><stop offset="0.72" stop-color="#08bcc4"/><stop offset="0.75" stop-color="#00b8c4"/></linearGradient><linearGradient id="Áåçûìÿííûé_ãðàäèåíò_33-2" x1="476.95" y1="52.43" x2="480.27" y2="27.08" xlink:href="#Áåçûìÿííûé_ãðàäèåíò_33"/><linearGradient id="Áåçûìÿííûé_ãðàäèåíò_16-2" x1="456.68" y1="56.95" x2="448.44" y2="67.07" xlink:href="#Áåçûìÿííûé_ãðàäèåíò_16"/></defs><g class="cls-9"><g id="Layer_2" data-name="Layer 2"><g id="layer_1-2" data-name="layer 1"><path class="cls-10" d="M175.26,134.35c0,1.43-39.23,2.59-87.63,2.59S0,135.78,0,134.35s39.23-2.6,87.63-2.6S175.26,132.91,175.26,134.35Z"/><path class="cls-11" d="M29.74,133.78a12.08,12.08,0,0,0,7.8-2.86,11.2,11.2,0,0,0,4-7.69c.48-6.33-4.54-11.49-11.19-11.5H30.2a12.12,12.12,0,0,0-7.79,2.87,11.12,11.12,0,0,0-4,7.68c-.48,6.33,4.54,11.49,11.19,11.5Z"/><rect class="cls-11" x="19.59" y="107.87" width="124.75" height="13.16" transform="translate(163.93 228.91) rotate(180)"/><path class="cls-12" d="M34.05,134.67a12.12,12.12,0,0,0,7.79-2.87,11.16,11.16,0,0,0,4-7.69c.48-6.33-4.54-11.49-11.19-11.5H34.5a12.12,12.12,0,0,0-7.79,2.87,11.16,11.16,0,0,0-4,7.68c-.48,6.33,4.54,11.49,11.19,11.51Z"/><path class="cls-13" d="M35.23,129.5a4.68,4.68,0,0,0,5-4.69,7.08,7.08,0,0,0-7.11-7.43H33a4.68,4.68,0,0,0-5,4.69,7.08,7.08,0,0,0,7.11,7.43Z"/><path class="cls-14" d="M35.56,128.66a4.07,4.07,0,0,0,2.43-.74,4.2,4.2,0,0,0,1.25-2.87,6.57,6.57,0,0,0-6.5-6.83h-.07a4,4,0,0,0-2.43.74A4.15,4.15,0,0,0,29,121.82a6.58,6.58,0,0,0,6.49,6.84Z"/><path class="cls-15" d="M29.81,118.43a5.85,5.85,0,0,0-.58.48A6.27,6.27,0,0,0,28,120.58a5.39,5.39,0,0,0-.65,3.07,6.52,6.52,0,0,0,1.61,3.51,8,8,0,0,0,3,2.41,6.41,6.41,0,0,0,3.1.5,7.53,7.53,0,0,0,2-.45,6.91,6.91,0,0,0,.7-.31,7.23,7.23,0,0,1-.73.22,8.22,8.22,0,0,1-2,.24,6.56,6.56,0,0,1-2.87-.67,8.28,8.28,0,0,1-2.75-2.33,6.65,6.65,0,0,1-1.57-3.18,5.32,5.32,0,0,1,.42-2.88A6.68,6.68,0,0,1,29.3,119,5.94,5.94,0,0,1,29.81,118.43Z"/><path class="cls-15" d="M38.23,133a5,5,0,0,0,.61-.17,7.56,7.56,0,0,0,1.58-.73,9.52,9.52,0,0,0,2-1.65,9.39,9.39,0,0,0,1.72-2.7A11.1,11.1,0,0,0,44.9,122a9.12,9.12,0,0,0-.39-1.69c-.13-.39-.22-.6-.22-.6s.05.22.13.62a13,13,0,0,1,.18,1.69,13.51,13.51,0,0,1-1,5.42,10.51,10.51,0,0,1-3.34,4.33,7.38,7.38,0,0,1-1.44.9C38.44,132.89,38.23,133,38.23,133Z"/><path class="cls-16" d="M38.55,124c-2.43,3-5.35,2.64-8.58.12,0,0,1.55,4.36,5.61,4.13C38.41,128.11,38.55,124,38.55,124Z"/><path class="cls-17" d="M49.37,121.21l-27.95-1.13s-6.54-13.41,8.78-12S49.37,121.21,49.37,121.21Z"/><path class="cls-11" d="M120.75,133.78a12.06,12.06,0,0,0,7.8-2.86,11.2,11.2,0,0,0,4-7.69c.48-6.33-4.54-11.49-11.19-11.5h-.11a12.12,12.12,0,0,0-7.79,2.87,11.12,11.12,0,0,0-4,7.68c-.48,6.33,4.54,11.49,11.19,11.5Z"/><path class="cls-18" d="M126.39,134.67a12.12,12.12,0,0,0,7.79-2.87,11.16,11.16,0,0,0,4-7.69c.48-6.33-4.54-11.49-11.19-11.5h-.11a12.12,12.12,0,0,0-7.79,2.87,11.16,11.16,0,0,0-4,7.68c-.48,6.33,4.54,11.49,11.19,11.51Z"/><path class="cls-13" d="M127.57,129.5a4.68,4.68,0,0,0,5-4.69,7.08,7.08,0,0,0-7.11-7.43h-.07a5.18,5.18,0,0,0-3.28,1.08,5.12,5.12,0,0,0-1.67,3.61,7.08,7.08,0,0,0,7.1,7.43Z"/><path class="cls-19" d="M127.9,128.66a4,4,0,0,0,2.43-.74,4.2,4.2,0,0,0,1.25-2.87,6.57,6.57,0,0,0-6.5-6.83H125a4,4,0,0,0-2.43.74,4.15,4.15,0,0,0-1.25,2.86,6.58,6.58,0,0,0,6.49,6.84Z"/><path class="cls-15" d="M122.15,118.43a5.85,5.85,0,0,0-.58.48,6.27,6.27,0,0,0-1.28,1.67,5.39,5.39,0,0,0-.65,3.07,6.52,6.52,0,0,0,1.61,3.51,8,8,0,0,0,3,2.41,6.43,6.43,0,0,0,3.1.5,7.53,7.53,0,0,0,2-.45,6.91,6.91,0,0,0,.7-.31,7.23,7.23,0,0,1-.73.22,8.22,8.22,0,0,1-2,.24,6.56,6.56,0,0,1-2.87-.67,8.28,8.28,0,0,1-2.75-2.33,6.65,6.65,0,0,1-1.57-3.18,5.32,5.32,0,0,1,.42-2.88,6.68,6.68,0,0,1,1.07-1.73A5.94,5.94,0,0,1,122.15,118.43Z"/><path class="cls-15" d="M130.57,133a5,5,0,0,0,.61-.17,7.34,7.34,0,0,0,1.58-.73,9.52,9.52,0,0,0,2-1.65,9.63,9.63,0,0,0,1.73-2.7,11.18,11.18,0,0,0,.75-5.68,9.12,9.12,0,0,0-.39-1.69c-.13-.39-.22-.6-.22-.6s.05.22.13.62a11.47,11.47,0,0,1,.18,1.69,13.51,13.51,0,0,1-1,5.42,10.51,10.51,0,0,1-3.34,4.33,7.38,7.38,0,0,1-1.44.9C130.78,132.89,130.57,133,130.57,133Z"/><path class="cls-16" d="M130.89,124c-2.43,3-5.35,2.64-8.58.12,0,0,1.55,4.36,5.61,4.13C130.75,128.11,130.89,124,130.89,124Z"/><path class="cls-17" d="M141.71,121.21l-27.95-1.13s-6.54-13.41,8.78-12S141.71,121.21,141.71,121.21Z"/><path class="cls-20" d="M7,50.16l8.74-40.08C68.88,5.24,120.54,1.76,170.34,0l-14.5,104.09,5-.15-3,18.82H138l1.68-9.67H114.21l.3,9.67H46l.77-9.67H21.27l1.67,9.67H13.5l-3.07-15.34,5.91,0Z"/><g class="cls-21"><polygon class="cls-22" points="147.97 83.66 13.45 82.28 17.38 99.65 146.68 99.96 147.97 83.66"/></g><path class="cls-15" d="M52.55,14l0-.32,42.86-2.21,4.17,82.75,0,.32L61,95.17Zm42.23-1.88L53.19,14.3l8.32,80.25L98.92,94Z"/><path class="cls-15" d="M103.58,11.09l50.54-2.6L140.43,94l-38,.58Zm49.81-1.95-49.2,2.53-1.13,82.24,36.84-.56Z"/><g class="cls-23"><polygon class="cls-24" points="16.54 10.46 18.86 10.32 24 41.43 20.82 41.51 16.54 10.46"/></g><g class="cls-25"><polygon class="cls-26" points="16.1 10.49 16.32 10.48 16.61 12 10.91 41.75 9.51 41.78 16.1 10.49"/></g><g class="cls-27"><polygon class="cls-28" points="39.26 9.03 169.31 0.78 162.21 38.07 42.09 40.99 39.26 9.03"/></g><polygon class="cls-29" points="38.44 13.36 20.45 14.58 25.77 50.16 40.9 50.16 38.44 13.36"/><polygon class="cls-30" points="21.27 50.16 10.43 50.16 16.97 16.01 21.27 50.16"/><path class="cls-31" d="M13.18,90.2a23.72,23.72,0,0,0,3,7.83.09.09,0,0,0,.16,0,22.37,22.37,0,0,0,.12-8.21,24,24,0,0,0-3-7.82.09.09,0,0,0-.16,0A22.33,22.33,0,0,0,13.18,90.2Z"/><path class="cls-32" d="M13.46,83.07l2.06,6.2-.94.91L13.86,89l1.53,6.53a24.12,24.12,0,0,1-1.76-5.06A17.84,17.84,0,0,1,13.46,83.07Z"/><path class="cls-33" d="M16.08,96.49a16.82,16.82,0,0,0,.17-1.89,20.85,20.85,0,0,0-.32-4.6,20.85,20.85,0,0,0-1.35-4.4,17.51,17.51,0,0,0-.84-1.71s.23.69.55,1.81.71,2.68,1,4.41.51,3.33.61,4.49S16.08,96.49,16.08,96.49Z"/><path class="cls-34" d="M16.09,103a10.39,10.39,0,0,0,1.12,3.5,0,0,0,0,0,.07,0,9.89,9.89,0,0,0,.25-3.59,10.48,10.48,0,0,0-1.12-3.5,0,0,0,0,0-.07,0A9.92,9.92,0,0,0,16.09,103Z"/><path class="cls-35" d="M16.38,99.83l.75,2.77-.43.37-.28-.53.5,2.89a10.44,10.44,0,0,1-.64-2.25A8,8,0,0,1,16.38,99.83Z"/><path class="cls-33" d="M17.19,105.78a7.89,7.89,0,0,0,.12-.83,9.83,9.83,0,0,0,0-2,8.89,8.89,0,0,0-.48-2,8.29,8.29,0,0,0-.32-.77s.08.31.19.8.24,1.19.34,2,.14,1.47.16,2S17.19,105.78,17.19,105.78Z"/><polygon class="cls-36" points="158.61 84.21 149.48 84.21 148.1 104.54 155.84 104.09 158.61 84.21"/><polygon class="cls-37" points="157.84 85.03 157.07 89.63 150.25 89.63 150.25 85.03 157.84 85.03"/><polygon class="cls-38" points="156.79 90.6 156.18 95.41 150.04 95.41 150.25 90.6 156.79 90.6"/><polygon class="cls-39" points="155.97 96.22 155.05 103.38 149.38 103.69 150.04 96.22 155.97 96.22"/><polygon class="cls-15" points="157.84 85.03 155.05 103.38 155.46 87.33 150.25 85.03 157.84 85.03"/><polygon class="cls-33" points="150.25 86 148.71 103.69 152.68 103.51 150.25 103.02 150.25 86"/><path class="cls-37" d="M53.27,13.39l0-.32,42.85-2.21,4.18,82.75,0,.32-38.61.59ZM95.51,11.5l-41.6,2.15,8.33,80.24,37.4-.57Z"/><path class="cls-37" d="M104.31,10.44l50.54-2.6-13.7,85.47-38,.58Zm49.81-1.95L104.91,11l-1.13,82.24,36.85-.56Z"/><polygon class="cls-37" points="28.05 107.27 53.19 107.27 53.15 106.93 42.74 13.32 42.13 13.39 52.51 106.65 28.59 106.65 21.57 52.02 20.96 52.09 28.05 107.27"/><polygon class="cls-40" points="44.27 57.04 45.12 67.78 39.06 67.78 37.98 57.04 44.27 57.04"/><polygon class="cls-41" points="39.79 48.91 38.75 30.28 31.62 30.28 32.54 36.03 30.67 36.03 32 45.08 30.67 45 29.78 38.79 28.7 38.87 27.94 32.19 25.41 32.27 24.87 29.66 23.49 29.66 26.94 48.91 39.79 48.91"/><polygon class="cls-42" points="17.9 30.64 19.83 48.91 11.76 48.91 13.39 39.77 15.03 39.77 15.85 44.85 16.42 44.85 15.85 30.64 17.9 30.64"/><polygon class="cls-33" points="37.98 14.89 39.79 48.91 26.94 48.91 37.98 47.51 37.98 14.89"/><polygon class="cls-33" points="17.43 24.68 20.45 49.3 11.76 49.3 18.81 48.14 17.43 24.68"/><polygon class="cls-33" points="38.44 13.36 20.45 14.58 25.77 50.16 26.48 50.16 23.49 17.34 38.62 16.01 38.44 13.36"/><polygon class="cls-33" points="16.97 16.01 10.43 50.16 11.76 50.16 17.85 22.96 16.97 16.01"/><polygon class="cls-15" points="31.64 14.93 28.78 49.3 26.4 49.3 25.36 15.4 31.64 14.93"/><polygon class="cls-15" points="32.92 14.89 29.86 49.3 30.93 49.3 35.27 14.63 32.92 14.89"/><polygon class="cls-15" points="14.98 32.11 13.45 38.56 13.65 49.7 14.98 49.7 14.98 32.11"/><polygon class="cls-33" points="165.07 3.69 157.15 6.51 18.51 13.92 17.12 12.21 165.07 3.69"/><path class="cls-43" d="M169.32.78C120,2.48,68.84,5.82,16.1,10.49l1,1.23L165.74,2.83Z"/><polygon class="cls-15" points="39.79 29.97 41.1 50.39 25.52 50.4 23.84 38.6 24.87 51.21 42.16 51.44 39.79 29.97"/><polygon class="cls-15" points="19.83 37.74 21.57 50.45 10.1 50.45 11.09 45.77 9.51 51.13 22.16 51.13 19.83 37.74"/><polygon class="cls-33" points="39.79 28.85 38.62 13.18 20.27 14.43 23.84 38.07 19.62 13.86 39.01 12.82 39.79 28.85"/><polygon class="cls-33" points="20.19 37.28 16.93 14.93 11.14 45.35 11.14 43.62 16.88 12.98 20.19 37.28"/><polygon class="cls-15" points="155.97 121.07 139.97 120.76 140.94 119.48 155.97 121.07"/><path class="cls-15" d="M139.46,120.05l1-7.82-26.84.2.26,8.64-1.64-11.14a260.79,260.79,0,0,1,30.11-.26Z"/><path class="cls-15" d="M112.26,120.28H47.65l3.14-2.35a500.47,500.47,0,0,0,61,.46Z"/><path class="cls-15" d="M46.88,119.84l.34-7.09-26.53-.23L21.92,121l-2.33-10.35a167.15,167.15,0,0,1,29.51,0Z"/><polygon class="cls-15" points="21.5 121.03 20.69 119.1 14.37 121.53 21.5 121.03"/><polygon class="cls-33" points="44.58 41.78 51.63 105.68 29.16 105.99 26.48 86 29.98 104.81 50.1 104.54 44.58 41.78"/><polygon class="cls-15" points="157.84 119.84 160.14 104.54 154.85 104.54 158.61 105.58 157.84 119.84"/><polygon class="cls-33" points="142.02 75.93 139.87 91.57 105.11 92.19 105.11 75.42 106.33 90.6 138.85 90.6 142.02 75.93"/><polygon class="cls-33" points="97.23 74.32 98.46 92.19 62.98 93 61.24 75.42 64.11 91.16 96.83 90.6 97.23 74.32"/><polygon class="cls-15" points="44.02 57.5 44.83 67.39 44.25 66.93 43.51 57.81 44.02 57.5"/><polygon class="cls-44" points="42.74 57.5 42.99 57.69 43.93 67.39 40.15 67.39 39.48 67.08 42.74 57.5"/><polygon class="cls-45" points="42.74 57.5 43.39 67.08 39.48 67.08 38.62 57.5 42.74 57.5"/><polygon class="cls-15" points="42.58 57.72 38.88 57.72 39.48 64.99 39.37 58.27 42.38 57.99 42.7 60.16 42.58 57.72"/><polygon class="cls-33" points="144.11 100.2 56.54 100.83 53.91 105.99 145.8 105.33 144.11 100.2"/><polygon class="cls-33" points="157.49 121.64 139.21 121.64 138.55 122.3 157.49 122.3 157.49 121.64"/><polygon class="cls-33" points="113.95 122.3 112.93 121.07 47.39 121.33 46.52 122.3 113.95 122.3"/></g></g></g></svg>