<svg xmlns="http://www.w3.org/2000/svg" viewBox="0 0 53.88 54.04"><defs><style>.cls-1{fill:#131f49;}</style></defs><g id="Layer_2" data-name="Layer 2"><g id="layer_1-2" data-name="layer 1"><path class="cls-1" d="M49,10.91A26.57,26.57,0,0,0,29.24.09C28.45,0,27.66,0,26.89,0,11.56,0,0,11.53,0,26.83,0,41.83,11.79,54,26.28,54A27.79,27.79,0,0,0,53,32.9,26.35,26.35,0,0,0,49,10.91ZM46.42,22.14l0,.6v-.1h0l-14.77,2.3A3.76,3.76,0,0,0,29,22.34L33.31,8h0l.42.17,1.34-2.7A21.51,21.51,0,0,1,49.2,21.32ZM22,26.83h0L7.39,29.19h0l0,.06-.13-.54-3,.08c0-.65-.08-1.3-.08-2A22.35,22.35,0,0,1,12.91,8.7L15.1,11,16.2,10l-1.4-2.6A23.31,23.31,0,0,1,26.88,4.16c.68,0,1.37,0,2.06.07a23.4,23.4,0,0,1,3.95.63l-.53,2.78.49.2h0L28.17,22.14l-.54-.07a6.9,6.9,0,0,0-3.12.39h0l-8.71-12.1-.38.32,8.32,12.2A4.57,4.57,0,0,0,22,26.83ZM33.28,8l-.42-.18h0ZM13,8.63l.51-.37ZM13.9,8c.2-.14.4-.26.61-.39ZM4.52,31l3.08-.88-.11-.43,14.63-2c.35,2.33,2.07,4.28,4.16,4.28a5.19,5.19,0,0,0,3.54-1.4l9.55,11.27v0l-.37.24,1.61,2.73a23.09,23.09,0,0,1-14.33,5,21.47,21.47,0,0,1-6.92-1.16l.68-3-.45-.13h0l5.61-13.71-.79-.37-5.3,13.94-.48-.15-1.4,2.6A23,23,0,0,1,4.52,31ZM42.33,43.34l-2.11-2-.42.29L30.43,30a6.74,6.74,0,0,0,1.23-2.52,4.74,4.74,0,0,0,.16-1.61L46.5,23.15l0,.45,3,0a22.94,22.94,0,0,1-.58,8.3A24.17,24.17,0,0,1,42.33,43.34Z"/></g></g></svg>