<svg xmlns="http://www.w3.org/2000/svg" xmlns:xlink="http://www.w3.org/1999/xlink" viewBox="0 0 11.17 11.35"><defs><style>.cls-1{isolation:isolate;}.cls-2{fill:url(#Áåçûìÿííûé_ãðàäèåíò_36);}.cls-3{fill:#22567d;opacity:0.75;mix-blend-mode:multiply;}.cls-4{fill:url(#Áåçûìÿííûé_ãðàäèåíò_15);}.cls-5{fill:#fff7cc;opacity:0.4;mix-blend-mode:screen;}</style><linearGradient id="Áåçûìÿííûé_ãðàäèåíò_36" x1="5.8" y1="-0.77" x2="5.37" y2="10.84" gradientUnits="userSpaceOnUse"><stop offset="0" stop-color="#131f49"/><stop offset="0.87" stop-color="#14466a"/><stop offset="1" stop-color="#22567d"/></linearGradient><radialGradient id="Áåçûìÿííûé_ãðàäèåíò_15" cx="6.61" cy="4.14" r="4.55" gradientUnits="userSpaceOnUse"><stop offset="0" stop-color="#e2f0d5"/><stop offset="0.01" stop-color="#d9e7cf"/><stop offset="0.05" stop-color="#b9c9b9"/><stop offset="0.1" stop-color="#9eb0a7"/><stop offset="0.14" stop-color="#8a9d99"/><stop offset="0.2" stop-color="#7b8f8f"/><stop offset="0.26" stop-color="#73878a"/><stop offset="0.37" stop-color="#708588"/><stop offset="1" stop-color="#dad1c0"/></radialGradient></defs><g class="cls-1"><g id="Layer_2" data-name="Layer 2"><g id="layer_1-2" data-name="layer 1"><path class="cls-2" d="M11,6.14c.78-3-.73-5.83-4.6-6.11C1.47-.33,0,2.37,0,5.46s2.16,5.89,4.83,5.89A6.45,6.45,0,0,0,11,6.14Z"/><path class="cls-3" d="M4.86,8.69c-1,0-2.27-1.56-2.27-3.49,0-2.28.74-3,3-3l.72,0a2.88,2.88,0,0,1,2.15.9,2.55,2.55,0,0,1,.19,2.07C8.15,7.31,6.65,8.69,4.86,8.69Z"/><path class="cls-4" d="M4.83,8.56c-.92,0-2-1.38-2-3.1,0-2,.67-2.67,2.73-2.67l.65,0a2.66,2.66,0,0,1,1.93.79,2.27,2.27,0,0,1,.17,1.84A3.72,3.72,0,0,1,4.83,8.56Z"/><path class="cls-5" d="M7.57,6.33A5.9,5.9,0,0,1,5.71,8.09a1.5,1.5,0,0,1-.7.24,1.36,1.36,0,0,1-1-.65,4.2,4.2,0,0,1-.74-3.43A2.65,2.65,0,0,0,4.58,6.76,3,3,0,0,0,7.57,6.33Z"/><path class="cls-5" d="M8.29,6.8l-.2.32a5.56,5.56,0,0,1-.6.83A4,4,0,0,1,6.3,9a2.78,2.78,0,0,1-1.94.32A2.43,2.43,0,0,1,2.8,8.06a3.74,3.74,0,0,1-.44-1.5,10.15,10.15,0,0,1,0-1l0-.38.06.37c0,.24.1.58.21,1a4,4,0,0,0,.56,1.32,2.14,2.14,0,0,0,1.3.94,2.65,2.65,0,0,0,1.63-.2,4.73,4.73,0,0,0,1.2-.8c.31-.28.55-.53.72-.7Z"/><path class="cls-5" d="M10.45,4.9a2.1,2.1,0,0,0,.05-.51,3.09,3.09,0,0,0-.31-1.33,3.83,3.83,0,0,0-1.3-1.49A5.16,5.16,0,0,0,6.6.78a7,7,0,0,0-4.35.81,4,4,0,0,0-1,.92A2.33,2.33,0,0,0,1,3a2.13,2.13,0,0,1,.2-.48,3.67,3.67,0,0,1,.93-1.1A6.42,6.42,0,0,1,6.67.26a5,5,0,0,1,2.48,1A3.78,3.78,0,0,1,10.43,3a3,3,0,0,1,.15,1.44A2,2,0,0,1,10.45,4.9Z"/></g></g></g></svg>