<svg xmlns="http://www.w3.org/2000/svg" xmlns:xlink="http://www.w3.org/1999/xlink" viewBox="0 0 56.1 56.27"><defs><style>.cls-1{isolation:isolate;}.cls-2{fill:url(#Áåçûìÿííûé_ãðàäèåíò_5);}.cls-3{fill:url(#Áåçûìÿííûé_ãðàäèåíò_5-2);}.cls-4{fill:url(#Áåçûìÿííûé_ãðàäèåíò_5-3);}.cls-5{fill:url(#Áåçûìÿííûé_ãðàäèåíò_5-4);}.cls-6{fill:url(#Áåçûìÿííûé_ãðàäèåíò_5-5);}.cls-7{fill:url(#Áåçûìÿííûé_ãðàäèåíò_5-6);}.cls-8{fill:url(#Áåçûìÿííûé_ãðàäèåíò_5-7);}.cls-9{fill:url(#Áåçûìÿííûé_ãðàäèåíò_5-8);}.cls-10{fill:url(#Áåçûìÿííûé_ãðàäèåíò_5-9);}.cls-11{fill:url(#Áåçûìÿííûé_ãðàäèåíò_5-10);}.cls-12{fill:url(#Áåçûìÿííûé_ãðàäèåíò_5-11);}.cls-13{fill:url(#Áåçûìÿííûé_ãðàäèåíò_5-12);}.cls-14{fill:url(#Áåçûìÿííûé_ãðàäèåíò_15);}.cls-15{fill:url(#Áåçûìÿííûé_ãðàäèåíò_36);}.cls-16{fill:url(#Áåçûìÿííûé_ãðàäèåíò_5-13);}.cls-17{fill:#fff7cc;opacity:0.4;mix-blend-mode:screen;}.cls-18{fill:#22567d;opacity:0.3;mix-blend-mode:multiply;}</style><linearGradient id="Áåçûìÿííûé_ãðàäèåíò_5" x1="14.19" y1="10.47" x2="16.31" y2="9.05" gradientUnits="userSpaceOnUse"><stop offset="0" stop-color="#e2f0d5"/><stop offset="0.01" stop-color="#d9e7cf"/><stop offset="0.05" stop-color="#b9c9b9"/><stop offset="0.1" stop-color="#9eb0a7"/><stop offset="0.14" stop-color="#8a9d99"/><stop offset="0.2" stop-color="#7b8f8f"/><stop offset="0.26" stop-color="#73878a"/><stop offset="0.37" stop-color="#708588"/><stop offset="1" stop-color="#dad1c0"/></linearGradient><linearGradient id="Áåçûìÿííûé_ãðàäèåíò_5-2" x1="20.14" y1="17.63" x2="21.15" y2="16.98" xlink:href="#Áåçûìÿííûé_ãðàäèåíò_5"/><linearGradient id="Áåçûìÿííûé_ãðàäèåíò_5-3" x1="6.3" y1="32.33" x2="5.78" y2="29.84" xlink:href="#Áåçûìÿííûé_ãðàäèåíò_5"/><linearGradient id="Áåçûìÿííûé_ãðàäèåíò_5-4" x1="15.48" y1="30.12" x2="15.32" y2="28.99" xlink:href="#Áåçûìÿííûé_ãðàäèåíò_5"/><linearGradient id="Áåçûìÿííûé_ãðàäèåíò_5-5" x1="20.82" y1="49.28" x2="18.59" y2="48.45" xlink:href="#Áåçûìÿííûé_ãðàäèåíò_5"/><linearGradient id="Áåçûìÿííûé_ãðàäèåíò_5-6" x1="23.44" y1="40.35" x2="22.58" y2="39.99" xlink:href="#Áåçûìÿííûé_ãðàäèåíò_5"/><linearGradient id="Áåçûìÿííûé_ãðàäèåíò_5-7" x1="36.15" y1="7.12" x2="33.68" y2="6.37" xlink:href="#Áåçûìÿííûé_ãðàäèåíò_5"/><linearGradient id="Áåçûìÿííûé_ãðàäèåíò_5-8" x1="32.96" y1="16.06" x2="31.37" y2="15.53" xlink:href="#Áåçûìÿííûé_ãðàäèåíò_5"/><linearGradient id="Áåçûìÿííûé_ãðàäèåíò_5-9" x1="50.13" y1="24.82" x2="49.91" y2="22.46" xlink:href="#Áåçûìÿííûé_ãðàäèåíò_5"/><linearGradient id="Áåçûìÿííûé_ãðàäèåíò_5-10" x1="40.77" y1="25.76" x2="40.58" y2="24.56" xlink:href="#Áåçûìÿííûé_ãðàäèåíò_5"/><linearGradient id="Áåçûìÿííûé_ãðàäèåíò_5-11" x1="41.29" y1="45.46" x2="43.13" y2="43.9" xlink:href="#Áåçûìÿííûé_ãðàäèåíò_5"/><linearGradient id="Áåçûìÿííûé_ãðàäèåíò_5-12" x1="35.75" y1="37.79" x2="36.65" y2="37.04" xlink:href="#Áåçûìÿííûé_ãðàäèåíò_5"/><radialGradient id="Áåçûìÿííûé_ãðàäèåíò_15" cx="30.36" cy="25.42" r="9.83" xlink:href="#Áåçûìÿííûé_ãðàäèåíò_5"/><linearGradient id="Áåçûìÿííûé_ãðàäèåíò_36" x1="28.05" y1="-1.41" x2="28.05" y2="49.92" gradientUnits="userSpaceOnUse"><stop offset="0" stop-color="#131f49"/><stop offset="0.87" stop-color="#14466a"/><stop offset="1" stop-color="#22567d"/></linearGradient><linearGradient id="Áåçûìÿííûé_ãðàäèåíò_5-13" x1="39.38" y1="4.18" x2="16.43" y2="51.36" xlink:href="#Áåçûìÿííûé_ãðàäèåíò_5"/></defs><g class="cls-1"><g id="Layer_2" data-name="Layer 2"><g id="layer_1-2" data-name="layer 1"><path class="cls-2" d="M13.44,9.05l2.28,2.36,1.15-1L15.41,7.72C14.71,8.15,14.05,8.59,13.44,9.05Z"/><polygon class="cls-3" points="16.47 10.77 25.54 23.37 24.76 23.85 16.07 11.11 16.47 10.77"/><path class="cls-4" d="M4.48,32.34l3.43-1-.35-1.46L4.17,30C4.24,30.8,4.34,31.58,4.48,32.34Z"/><polygon class="cls-5" points="7.68 30.4 23.01 27.94 23.08 28.85 7.8 30.9 7.68 30.4"/><path class="cls-6" d="M20.15,50.76l.71-3.2-1.44-.42L18,49.85A22.15,22.15,0,0,0,20.15,50.76Z"/><polygon class="cls-7" points="19.92 47.28 25.44 32.77 26.26 33.17 20.42 47.43 19.92 47.28"/><path class="cls-8" d="M36.6,5.55l-1.48,3L33.69,8l.58-3.08A21.27,21.27,0,0,1,36.6,5.55Z"/><polygon class="cls-9" points="34.19 8.16 29.3 23.15 30.2 23.36 34.68 8.36 34.19 8.16"/><path class="cls-10" d="M51.76,24.54l-3.31,0-.12-1.52,3-.88A23.86,23.86,0,0,1,51.76,24.54Z"/><polygon class="cls-11" points="48.37 23.57 32.86 25.99 33.07 26.89 48.41 24.1 48.37 23.57"/><path class="cls-12" d="M42.29,46.73l-1.68-2.86L41.87,43l2.26,2.17A21.6,21.6,0,0,1,42.29,46.73Z"/><polygon class="cls-13" points="41.43 43.31 31.56 31.03 30.89 31.66 41 43.6 41.43 43.31"/><path class="cls-14" d="M33,28.56c.71-2.77-.67-5.32-4.2-5.58C24.29,22.65,23,25.11,23,27.93s2,5.38,4.41,5.38A5.9,5.9,0,0,0,33,28.56Z"/><path class="cls-15" d="M27.36,56.27C12.27,56.27,0,43.56,0,27.93,0,12,12,0,28,0c.81,0,1.63,0,2.45.09A27.66,27.66,0,0,1,51,11.36a27.4,27.4,0,0,1,4.16,22.9A28.93,28.93,0,0,1,27.36,56.27Zm24.75-22.8a24.26,24.26,0,0,0-3.65-20.25,24.49,24.49,0,0,0-18.25-10c-.74,0-1.49-.08-2.22-.08-14.14,0-24.8,10.64-24.8,24.74C3.19,41.8,14,53.08,27.36,53.08A25.76,25.76,0,0,0,52.11,33.47Z"/><path class="cls-16" d="M27.36,53.22C14,53.22,3,41.88,3,27.93,3,13.74,13.77,3,28,3c.74,0,1.49,0,2.23.09a24.61,24.61,0,0,1,18.35,10A24.4,24.4,0,0,1,52.25,33.5,25.89,25.89,0,0,1,27.36,53.22ZM51,33.18a23.09,23.09,0,0,0-3.48-19.3,23.33,23.33,0,0,0-17.4-9.47c-.72-.06-1.43-.08-2.14-.08C14.5,4.33,4.33,14.47,4.33,27.93c0,13.24,10.33,24,23,24A24.62,24.62,0,0,0,51,33.18Z"/><path class="cls-17" d="M32.42,28.43a4.89,4.89,0,0,1-1.29,2.46,6.53,6.53,0,0,1-2.32,1.55,3.88,3.88,0,0,1-2.14.33,3.2,3.2,0,0,1-1.81-1.11,6.31,6.31,0,0,1-1.07-1.87,6.48,6.48,0,0,1-.48-2,3.13,3.13,0,0,1,.54-2,4.58,4.58,0,0,0,1.43,3.6,4.46,4.46,0,0,0,3.64,1.17A5.15,5.15,0,0,0,32.42,28.43Z"/><polygon class="cls-17" points="14.63 8.5 16.07 10.62 16.64 10.3 15.34 7.97 14.63 8.5"/><polygon class="cls-17" points="25.35 23.33 16.51 10.93 16.42 11.03 25.02 23.5 25.35 23.33"/><polygon class="cls-18" points="13.75 9 15.63 11.11 15.81 10.93 14.15 8.74 13.75 9"/><polygon class="cls-18" points="24.95 23.7 16.31 11.11 16.47 10.77 16.07 11.11 16.17 11.11 24.8 23.76 24.95 23.7"/><polygon class="cls-17" points="19.04 50.1 20 47.73 19.42 47.42 18.2 49.79 19.04 50.1"/><polygon class="cls-17" points="25.5 32.97 20.03 47.18 20.16 47.21 25.82 33.15 25.5 32.97"/><polygon class="cls-18" points="19.94 50.55 20.66 47.82 20.41 47.77 19.5 50.37 19.94 50.55"/><polygon class="cls-18" points="26.03 33.11 20.29 47.25 19.91 47.31 20.41 47.45 20.36 47.37 26.16 33.2 26.03 33.11"/><polygon class="cls-17" points="4.84 31.02 7.38 30.67 7.35 30.02 4.69 30.14 4.84 31.02"/><polygon class="cls-17" points="22.91 28.09 7.86 30.42 7.9 30.55 22.91 28.46 22.91 28.09"/><polygon class="cls-18" points="4.89 32.02 7.62 31.29 7.54 31.05 4.84 31.55 4.89 32.02"/><polygon class="cls-18" points="23.05 28.62 7.93 30.68 7.7 30.39 7.82 30.89 7.86 30.81 23.04 28.77 23.05 28.62"/><polygon class="cls-17" points="35.27 5.44 34.53 7.89 33.89 7.76 34.43 5.15 35.27 5.44"/><polygon class="cls-17" points="29.53 22.82 34.21 8.33 34.33 8.39 29.9 22.88 29.53 22.82"/><polygon class="cls-18" points="36.26 5.65 35.1 8.23 34.88 8.12 35.8 5.52 36.26 5.65"/><polygon class="cls-18" points="30.03 23.05 34.46 8.44 34.2 8.16 34.68 8.36 34.59 8.4 30.18 23.06 30.03 23.05"/><polygon class="cls-17" points="51.28 23.3 48.76 23.75 48.58 23.12 51.15 22.41 51.28 23.3"/><polygon class="cls-17" points="33.18 26.05 48.22 23.66 48.22 23.79 33.29 26.41 33.18 26.05"/><polygon class="cls-18" points="51.54 24.27 48.71 24.41 48.71 24.16 51.44 23.8 51.54 24.27"/><polygon class="cls-18" points="33.2 26.61 48.23 23.93 48.36 23.57 48.4 24.09 48.33 24.03 33.26 26.75 33.2 26.61"/><polygon class="cls-17" points="43.09 45.75 41.45 43.78 41.91 43.32 43.8 45.2 43.09 45.75"/><polygon class="cls-17" points="31.72 31.41 41.27 43.27 41.15 43.34 31.46 31.68 31.72 31.41"/><polygon class="cls-18" points="42.38 46.45 40.85 44.07 41.08 43.95 42.73 46.14 42.38 46.45"/><polygon class="cls-18" points="31.25 31.7 41.04 43.42 41.41 43.36 40.98 43.65 41 43.55 31.16 31.82 31.25 31.7"/><path class="cls-17" d="M47.16,42.08a24.56,24.56,0,0,1-19.8,10.18,23.07,23.07,0,0,1-19-10.21c-.67-.6-1.31-1.24-1.92-1.9A23.89,23.89,0,0,0,27.36,52.9a25.33,25.33,0,0,0,22-13C48.63,40.69,47.91,41.4,47.16,42.08Z"/><path class="cls-18" d="M49.76,37.65c.49-.57,1-1.15,1.41-1.76a23.54,23.54,0,0,0,.77-2.47,24,24,0,0,0-3.63-20.1A24.28,24.28,0,0,0,30.2,3.44c-.74,0-1.48-.08-2.21-.08C14,3.36,3.36,13.93,3.36,27.93a25.62,25.62,0,0,0,1.44,8.5c.42.55.86,1.1,1.33,1.61A25,25,0,0,1,4,27.93C4,14.29,14.32,4,28,4c.72,0,1.45,0,2.16.08A23.62,23.62,0,0,1,47.79,13.7a23.42,23.42,0,0,1,3.53,19.56A26.55,26.55,0,0,1,49.76,37.65Z"/><path class="cls-17" d="M53.15,31.43l-.12.85c0,.28-.08.63-.15,1s-.19.87-.3,1.39-.31,1.09-.49,1.71-.45,1.28-.73,2a28.71,28.71,0,0,1-2.46,4.54,26.18,26.18,0,0,1-10.06,8.78A23.64,23.64,0,0,1,31.2,54a26.29,26.29,0,0,1-16.5-3.48,23.49,23.49,0,0,1-6.08-5.12A26.2,26.2,0,0,1,3,33.27a28.7,28.7,0,0,1-.41-5.15c0-.76.06-1.47.12-2.12s.15-1.24.25-1.76.2-1,.29-1.39.2-.74.27-1L3.71,21s-.08.28-.22.83c-.07.27-.17.6-.25,1s-.16.87-.26,1.39S2.85,25.37,2.77,26s-.07,1.35-.08,2.11a28.83,28.83,0,0,0,.5,5.1A26.22,26.22,0,0,0,8.92,45.09a23.63,23.63,0,0,0,6,5,26.31,26.31,0,0,0,16.22,3.42,23.69,23.69,0,0,0,7.51-2.15,26.2,26.2,0,0,0,10-8.55,28.52,28.52,0,0,0,2.52-4.47c.29-.7.55-1.35.77-2s.38-1.18.52-1.7.23-1,.32-1.38.13-.74.18-1Z"/><path class="cls-17" d="M54.21,36.22l.26-.88c.08-.29.2-.65.31-1.07s.2-.93.32-1.49.18-1.19.29-1.88.12-1.45.15-2.26a30,30,0,0,0-.39-5.53,28.37,28.37,0,0,0-6-13.06,25.71,25.71,0,0,0-6.52-5.62A29.62,29.62,0,0,0,34.07,1,29.51,29.51,0,0,0,24.85.37a25.71,25.71,0,0,0-8.27,2.24,27.9,27.9,0,0,0-10.95,9.2,30,30,0,0,0-2.7,4.82c-.32.75-.59,1.45-.82,2.11S1.7,20,1.57,20.56l-.34,1.49c-.09.43-.13.8-.18,1.1l-.13.9s0-.31.16-.9c0-.29.1-.66.2-1.09s.23-.92.36-1.47.37-1.15.58-1.81.53-1.35.86-2.09A30.16,30.16,0,0,1,5.84,12,27.8,27.8,0,0,1,16.77,3,25.18,25.18,0,0,1,24.91.86a28.6,28.6,0,0,1,17.47,4,25.36,25.36,0,0,1,6.44,5.47,28.25,28.25,0,0,1,6.07,12.83,30.19,30.19,0,0,1,.49,5.48c0,.81-.06,1.56-.11,2.26s-.15,1.32-.25,1.88-.21,1-.29,1.49-.21.78-.28,1.07Z"/></g></g></g></svg>