<svg xmlns="http://www.w3.org/2000/svg" viewBox="0 0 11.61 5.22"><defs><style>.cls-1{isolation:isolate;}.cls-2{fill:#dad1c0;}.cls-3{fill:#fff7cc;opacity:0.5;mix-blend-mode:screen;}.cls-4{fill:#708588;opacity:0.4;mix-blend-mode:multiply;}</style></defs><g class="cls-1"><g id="Layer_2" data-name="Layer 2"><g id="layer_1-2" data-name="layer 1"><path class="cls-2" d="M.79.07c2.63-.21,8.56,0,10.82,1.09L10.49,3.74l.08,1.35A76.27,76.27,0,0,0,.1,5.22,8.51,8.51,0,0,1,.79.07Z"/><path class="cls-3" d="M1.12.33a33.71,33.71,0,0,1,10,.94l-.92,2.11L8.65,3.14l.24-1.43L8.27,3.14l-1-.08.1-1.51L6.88,3l0-1.51L6.5,3,2.87,3V1.05L2.47,3l-1.95,0A5.19,5.19,0,0,1,1.12.33Z"/><path class="cls-4" d="M.44,3.38V5c3.39-.17,6.67-.22,9.83-.13V3.78L10,4.55C7.12,4.38,4,4.37.76,4.47Z"/></g></g></g></svg>