<svg xmlns="http://www.w3.org/2000/svg" viewBox="0 0 17.04 17.06"><defs><style>.cls-1{isolation:isolate;}.cls-2{fill:#50b848;}.cls-3{fill:#b86053;opacity:0.5;mix-blend-mode:multiply;}.cls-4{fill:#fff7cc;opacity:0.6;mix-blend-mode:overlay;}</style></defs><g class="cls-1"><g id="Layer_2" data-name="Layer 2"><g id="Layer_2-2" data-name="Layer 2"><g id="green"><path class="cls-2" d="M17,8.53C17.25,3.82,13.34,0,8.3,0S-.45,3.82,0,8.53s4.4,8.53,8.74,8.53S16.82,13.24,17,8.53Z"/><path class="cls-3" d="M1.28,7.72C.91,1,11.27-.45,14.71,4.23c1.49,2,1.11,5.58-.25,7.6a8.31,8.31,0,0,1-6.38,3.73c2.51-2.31,5.76-8.12,2-10.84C8.32,3.46,6.21,4,4.39,4.84,3.46,5.27,1.35,6.54,1.28,7.72Z"/><path class="cls-4" d="M2.34,9.44c0,1.53,1.87,4.82,3.85,4.05,1.7-.65.18-3.39-.5-4.32-.55-.77-2-1.75-3-1.11C2.14,8.39,2.27,8.94,2.34,9.44Z"/></g></g></g></g></svg>