<svg xmlns="http://www.w3.org/2000/svg" viewBox="0 0 26.4 41.02"><defs><style>.cls-1{isolation:isolate;}.cls-2{fill:#dad1c0;}.cls-3{fill:#ffd699;}.cls-4,.cls-7{fill:#fff7cc;mix-blend-mode:screen;}.cls-4{opacity:0.5;}.cls-5{fill:#708588;opacity:0.3;}.cls-5,.cls-6{mix-blend-mode:multiply;}.cls-6{fill:#b86053;opacity:0.25;}.cls-7{opacity:0.4;}</style></defs><g class="cls-1"><g id="Layer_2" data-name="Layer 2"><g id="layer_1-2" data-name="layer 1"><path class="cls-2" d="M21,0c3.36,1.51,5.07,4.54,5.39,8.86A130,130,0,0,0,9.87,17.19c0,3.69.9,8.24,2.07,13l-6.42,1.9L4.06,27.78,2.88,27.4A52,52,0,0,1,0,15.25,136.29,136.29,0,0,1,21,0Z"/><path class="cls-3" d="M4.44,32.15A58.58,58.58,0,0,1,14.64,29l.3-1a16.07,16.07,0,0,1,4.64-.4A50.22,50.22,0,0,1,17.37,41l-2.55-.15-.4-.58L7,40.81A31.75,31.75,0,0,1,4.44,32.15Z"/><path class="cls-4" d="M21,1.24A5.85,5.85,0,0,1,23.7,4,19.45,19.45,0,0,1,25,7.83c-.82-.66-1.75-1.15-2.57-1.81C17.31,8.81,12,11.73,6.89,14.52A3.39,3.39,0,0,1,8.7,16.81c-.76-.15-1.57-.48-2.33-.63.8.35,1.18,1,1.74,1.7-.14.08-.44.3-.58.37.87,3.67,1.69,7.57,2.56,11.24a13.08,13.08,0,0,0-3.38.78,10.91,10.91,0,0,0-.82-2.79,7.36,7.36,0,0,1,1.79-1A13.08,13.08,0,0,0,4.84,26,108.36,108.36,0,0,1,1.67,15.44C2.54,14.3,15.43,4.68,21,1.24Z"/><path class="cls-5" d="M.57,15.54a84.59,84.59,0,0,0,2.67,11.1c.37.24.67.51,1,.75.46,1.23,1,2.56,1.44,3.79,1.23-.4,2.38-.73,3.62-1.07-1.07.19-2.18.35-3.24.6-.32-1.05-.63-2.09-.87-3.15a2.33,2.33,0,0,1,1.25-.78c-.73,0-1.51-.12-2.25-.15A65.51,65.51,0,0,1,.57,15.54Z"/><path class="cls-5" d="M24.93,8.84a169.42,169.42,0,0,0-15.41,8,2.22,2.22,0,0,0-.69-1.23c.26.18.45.29.71.46A98.74,98.74,0,0,1,24.93,8.84Z"/><path class="cls-6" d="M14.4,40a2.58,2.58,0,0,1,.53.73A18.06,18.06,0,0,1,17,40.64a.57.57,0,0,1,.11-.33,5.27,5.27,0,0,0-2-.33c.09-.59.23-1.21.32-1.8.67,0,1.45,0,2.13,0a8.58,8.58,0,0,0,.6-3.89,12.34,12.34,0,0,1-3-.35,15.1,15.1,0,0,1-.68-3.39,20.55,20.55,0,0,0-.6,4.48,32.81,32.81,0,0,0-7.64,1.8A17.14,17.14,0,0,0,7.5,40.43,58.93,58.93,0,0,1,14.4,40Z"/><path class="cls-7" d="M13.87,29.6a25.85,25.85,0,0,0-.36,4.31,23.27,23.27,0,0,0-4.62.88l-.61-3.44A25.92,25.92,0,0,1,13.87,29.6Z"/><path class="cls-7" d="M19.06,28a14.68,14.68,0,0,1-.92,5,18,18,0,0,0-2.74-.22,11.72,11.72,0,0,1,0-4.72A18.65,18.65,0,0,1,19.06,28Z"/><path class="cls-7" d="M7.66,31.58l1,3.46a16.48,16.48,0,0,0-2.22.73A16,16,0,0,1,5.2,32.35,14,14,0,0,1,7.66,31.58Z"/><path class="cls-6" d="M14.84,39.42a20.43,20.43,0,0,0,0-2.07,16.77,16.77,0,0,0-.53-2.81,13.39,13.39,0,0,0,0,2.37,29.37,29.37,0,0,0-6.91,1.71L8,40.27A30.11,30.11,0,0,1,14.84,39.42Z"/></g></g></g></svg>