<svg xmlns="http://www.w3.org/2000/svg" viewBox="0 0 406.22 338.54"><defs><style>.cls-1{isolation:isolate;}.cls-2{fill:#b86053;opacity:0.5;}.cls-2,.cls-5{mix-blend-mode:multiply;}.cls-3,.cls-5{fill:#564963;}.cls-4{fill:#cc76b2;opacity:0.75;}.cls-5{opacity:0.4;}</style></defs><g class="cls-1"><g id="Layer_2" data-name="Layer 2"><g id="layer_1-2" data-name="layer 1"><polygon class="cls-2" points="406.22 336.13 44.57 338.54 44.57 334.1 404.6 333.68 406.22 336.13"/><polygon class="cls-3" points="47.12 34.81 56.7 335.5 49.72 335.46 43.77 35.93 19.52 19.75 19.8 15.69 47.12 34.81"/><polygon class="cls-3" points="44.84 295.69 60.38 294.05 57 298.84 59.06 334.1 61.05 334.1 60.78 337.95 39 338.54 39.26 334.92 42.41 334.92 46.64 299.89 44.84 295.69"/><polygon class="cls-4" points="47.2 296.97 48.53 299.66 44.57 334.1 48.9 334.1 50.66 299.31 51.56 296.5 47.2 296.97"/><path class="cls-3" d="M36.57,35.2l8.76-3.14L15.87,3.27C10.59-2.85,5.3,0,0,8.7Z"/><polygon class="cls-5" points="2.25 9.11 11.52 6.07 39.94 32.24 36.37 33.52 2.25 9.11"/><polygon class="cls-4" points="51.74 294.46 44.59 35.91 49.53 294.58 51.74 294.46"/><polygon class="cls-5" points="57.89 334.1 55.7 298.88 57.89 295.45 54.34 296.15 55.16 334.1 57.89 334.1"/><polygon class="cls-5" points="54.44 294.68 46.5 35.91 45.84 35.91 53.26 294.8 54.44 294.68"/><polygon class="cls-4" points="5.17 9.11 38.32 32.83 39.94 32.24 12.29 6.78 5.17 9.11"/></g></g></g></svg>