<svg xmlns="http://www.w3.org/2000/svg" xmlns:xlink="http://www.w3.org/1999/xlink" viewBox="0 0 119.5 125.35"><defs><style>.cls-1{isolation:isolate;}.cls-15,.cls-2,.cls-6,.cls-8{fill:#b86053;}.cls-11,.cls-2{opacity:0.5;}.cls-10,.cls-15,.cls-19,.cls-2,.cls-4,.cls-6,.cls-8{mix-blend-mode:multiply;}.cls-3{fill:url(#Áåçûìÿííûé_ãðàäèåíò_78);}.cls-10,.cls-4{fill:#708588;}.cls-13,.cls-4{opacity:0.3;}.cls-5{fill:url(#Áåçûìÿííûé_ãðàäèåíò_120);}.cls-6{opacity:0.25;}.cls-7{fill:#dad1c0;}.cls-10,.cls-19,.cls-8{opacity:0.4;}.cls-9{fill:#f09372;}.cls-11,.cls-12,.cls-13,.cls-17{fill:#fff7cc;mix-blend-mode:screen;}.cls-12{opacity:0.45;}.cls-14{fill:url(#Áåçûìÿííûé_ãðàäèåíò_7);}.cls-15{opacity:0.6;}.cls-16{fill:#600003;}.cls-17{opacity:0.2;}.cls-18{fill:#22567d;}.cls-19{fill:#14466a;}.cls-20{fill:url(#Áåçûìÿííûé_ãðàäèåíò_7-2);}.cls-21{fill:url(#Áåçûìÿííûé_ãðàäèåíò_7-3);}.cls-22{fill:url(#Áåçûìÿííûé_ãðàäèåíò_7-4);}.cls-23{fill:#d9e021;}</style><linearGradient id="Áåçûìÿííûé_ãðàäèåíò_78" x1="24.66" y1="77.51" x2="59" y2="39.18" gradientUnits="userSpaceOnUse"><stop offset="0.05" stop-color="#fcee52"/><stop offset="0.13" stop-color="#d3d94a"/><stop offset="0.23" stop-color="#abc542"/><stop offset="0.33" stop-color="#89b43b"/><stop offset="0.43" stop-color="#70a736"/><stop offset="0.54" stop-color="#5d9d33"/><stop offset="0.65" stop-color="#539831"/><stop offset="0.77" stop-color="#4f9630"/></linearGradient><linearGradient id="Áåçûìÿííûé_ãðàäèåíò_120" x1="51.38" y1="26.63" x2="82.09" y2="22.06" gradientUnits="userSpaceOnUse"><stop offset="0" stop-color="#e7855f"/><stop offset="0.17" stop-color="#ef9f72"/><stop offset="0.45" stop-color="#fbc78e"/><stop offset="0.59" stop-color="#ffd699"/></linearGradient><linearGradient id="Áåçûìÿííûé_ãðàäèåíò_7" x1="99.42" y1="81.1" x2="41.94" y2="91.94" gradientUnits="userSpaceOnUse"><stop offset="0" stop-color="#e7855f"/><stop offset="1" stop-color="#9a1418"/></linearGradient><linearGradient id="Áåçûìÿííûé_ãðàäèåíò_7-2" x1="11.65" y1="36" x2="11.75" y2="41.42" xlink:href="#Áåçûìÿííûé_ãðàäèåíò_7"/><linearGradient id="Áåçûìÿííûé_ãðàäèåíò_7-3" x1="17.04" y1="34.13" x2="17.51" y2="43.48" xlink:href="#Áåçûìÿííûé_ãðàäèåíò_7"/><linearGradient id="Áåçûìÿííûé_ãðàäèåíò_7-4" x1="6.86" y1="34.65" x2="7.33" y2="44" xlink:href="#Áåçûìÿííûé_ãðàäèåíò_7"/></defs><g class="cls-1"><g id="Layer_2" data-name="Layer 2"><g id="layer_1-2" data-name="layer 1"><ellipse class="cls-2" cx="59.75" cy="122.29" rx="59.75" ry="3.06"/><path class="cls-3" d="M48.84,35Q31.92,45.91,28,71.7l21.68-4.46C50.85,60.07,53.2,53.87,57,48.85a25,25,0,0,0,.77-4.49C55.83,39.87,52.91,36.66,48.84,35Z"/><path class="cls-4" d="M52.08,43.82a26,26,0,0,0-7.54,11,17.49,17.49,0,0,0-3.76.85,9.53,9.53,0,0,1,2.76.63,6.62,6.62,0,0,0-.26,2.73l-3.11.39a6.25,6.25,0,0,1,2.73.61,6.3,6.3,0,0,0-2.46,1.31l2.75-.73a8.81,8.81,0,0,0,.7,4.6,29.84,29.84,0,0,1-14.24,5.12c1.53-5.79,2.79-11.51,5.88-16.71A30.25,30.25,0,0,1,48.69,41.27,12.23,12.23,0,0,1,52.08,43.82Z"/><path class="cls-5" d="M60,30.39a120.34,120.34,0,0,0,6.7,11.48,29.87,29.87,0,0,0,9,.34,24.37,24.37,0,0,0,3.58-9.8l-2-.56,1-12.75A30.79,30.79,0,0,0,80.12,7a2,2,0,0,0-1.77-1.87A55.27,55.27,0,0,0,58,6.91L56.45,27l-.6,4.28L53.1,34.08l2.14,2.58L59.41,35Z"/><path class="cls-6" d="M64.54,6a14.65,14.65,0,0,0-2.87.44,11,11,0,0,0-2.22,3.67A30.37,30.37,0,0,0,58,17.75l.08,0a3.31,3.31,0,0,1,4,.47,20.22,20.22,0,0,1,2.13-5.93c-.49-.56-.91-1.1-1.4-1.65A11.59,11.59,0,0,1,64.54,6Z"/><path class="cls-6" d="M61.33,25.37l-.23-.14a.67.67,0,0,1-.14-.09,1.35,1.35,0,0,1-.39-.47,2.76,2.76,0,0,1-.2-.47.39.39,0,0,1,0-.15,1,1,0,0,1-.73,0h0a3.63,3.63,0,0,1-1.23-.4,2.62,2.62,0,0,1-.81-.74c-.35,2.93-.68,5.77-1,8.7a17.71,17.71,0,0,0-2.08,2.57c.29.29.68.56,1,.85.8-.37,1.66-.8,2.46-1.16.49-2.78,1.2-5.53,1.94-8.25.5-.08,1.06-.14,1.59-.19Z"/><path class="cls-7" d="M56.69,23.92l1.6-1c-3.25-4.75,1.54-8,4.78-3.27l1.51-2.19v-5.1A23.33,23.33,0,0,0,59,10a10.58,10.58,0,0,1,2.37-3.93,57.91,57.91,0,0,1,15.6-1A5.79,5.79,0,0,0,76.77.65,1,1,0,0,0,76,.06C69-.31,62.29.93,57,4.68a22.75,22.75,0,0,0-5.3,12.79A22.71,22.71,0,0,1,56.69,23.92Z"/><path class="cls-8" d="M73,19.83a18.27,18.27,0,0,1,3.47.55c-.78,1.85-2.67,3.39-5.07,4.78a11.63,11.63,0,0,0,6.72-5.33C76.52,19.74,74.8,19.75,73,19.83Z"/><path class="cls-9" d="M79.83,19.9a26.37,26.37,0,0,1,3.58,7.19l-.32,2.23L76,29.14l-.31-2.62,2-.27.48-6.42A10.59,10.59,0,0,1,79.83,19.9Z"/><path class="cls-8" d="M68.09,28a3.29,3.29,0,0,0-1.93.73,1.44,1.44,0,0,0-.25,1.71,2.5,2.5,0,0,1,.85-1.35c1.47,1.55,5,1.88,9,1.82V30c-3.68.18-7.28.29-8.8-1.05Z"/><path class="cls-10" d="M57,23.64a28.21,28.21,0,0,0-4.34-7.09,18.26,18.26,0,0,0,5.74-2.31A27.45,27.45,0,0,1,64.06,17l.52.48-1.51,2.19c-3.22-4.71-8-1.45-4.78,3.27Z"/><path class="cls-10" d="M59,10l-1.79-.6a14.34,14.34,0,0,1,2.47-4.06C68.1,3.48,77.58,2.73,76.93,5a57.26,57.26,0,0,0-15.6,1A10.19,10.19,0,0,0,59,10Z"/><path class="cls-11" d="M57,9.44a36.3,36.3,0,0,1,7.29,3V16l-.64-3.25L63.51,15l-3.67-1.72L60,11.53l-.54,1.62-3.27-1.66Z"/><path class="cls-11" d="M54.3,9.44a22.81,22.81,0,0,1,2.87-4.57l.35.37V4.73C63,1,69.37.2,76.09.4a.33.33,0,0,1,.25.11,1.94,1.94,0,0,1,.43,1.06c-7.16-.13-13.76.58-19,3.35l0,.69-.58-.32A37.74,37.74,0,0,0,54.3,9.44Z"/><path class="cls-10" d="M69.7,18.19v1.58c3.39-.17,6.67-.22,9.83-.13V18.58l-.27.78c-2.88-.17-6-.18-9.24-.08Z"/><path class="cls-8" d="M63.56,23.58a1.45,1.45,0,0,1-.07,1.1,1.55,1.55,0,0,1-1,.83,1.67,1.67,0,0,1-2.09-1.05,1.33,1.33,0,0,1,0-.19.36.36,0,0,1,0-.1h0l0-.05h-.21a1.91,1.91,0,0,1-.49,0,2.08,2.08,0,0,1-.7-.29,1.8,1.8,0,0,1-.34-.32l-.1-.13a1.8,1.8,0,0,0,.53.27,2,2,0,0,0,.65.11,1.74,1.74,0,0,0,.39-.05l.1,0,.2-.07.46-.19c0,.14,0,.33,0,.53a.58.58,0,0,0,0,.14v.06l.06.13a1.21,1.21,0,0,0,.35.47,1.33,1.33,0,0,0,1.87-.2,1.52,1.52,0,0,0,.31-.65A1.78,1.78,0,0,0,63.56,23.58Z"/><path class="cls-8" d="M62.81,21.29a.76.76,0,0,1-.06.34,1.07,1.07,0,0,1-.82.61,1.26,1.26,0,0,1-1.3-.95,1.54,1.54,0,0,1,.08-1.07,2.08,2.08,0,0,1,.3-.49l.19-.2,0,0,0,0a2.1,2.1,0,0,0-.31-.25,2.34,2.34,0,0,0-.86-.33,1.81,1.81,0,0,0-1.12.13,1,1,0,0,0-.52.8,2.92,2.92,0,0,0,.46,1.89,3.23,3.23,0,0,0,1,1,3.29,3.29,0,0,0,.46.24,2.92,2.92,0,0,1-.51-.15,3.18,3.18,0,0,1-1.19-.88,3.06,3.06,0,0,1-.74-2.14,1.88,1.88,0,0,1,.19-.7,1.53,1.53,0,0,1,.56-.57,2.23,2.23,0,0,1,1.52-.23,2.76,2.76,0,0,1,1.11.45,2.64,2.64,0,0,1,.39.34,5.55,5.55,0,0,1,.44.56c-.15.1-.31.19-.44.29a2.12,2.12,0,0,0-.2.17,1.4,1.4,0,0,0-.25.35,1.12,1.12,0,0,0-.13.75,1,1,0,0,0,.89.82.93.93,0,0,0,.77-.41A.83.83,0,0,0,62.81,21.29Z"/><path class="cls-12" d="M73.08,20.28a5.35,5.35,0,0,1,3.11.34,12,12,0,0,1-4.53,4.15,5.06,5.06,0,0,0,1.21-3.17,4,4,0,0,1,1.67-.37A9.32,9.32,0,0,0,73,21.06,1.23,1.23,0,0,0,73.08,20.28Z"/><path class="cls-2" d="M79.86,26.46a10,10,0,0,1-1.72-.29c.08-2,.17-4,.25-6l.16,0A59.56,59.56,0,0,0,79.86,26.46Z"/><path class="cls-2" d="M76.75,26.87c0,.52.07,1,.12,1.51a39.93,39.93,0,0,1,4.49.57c-1.72,0-3.44-.09-5.16,0A7.46,7.46,0,0,1,76,27C76.19,26.94,76.53,26.91,76.75,26.87Z"/><path class="cls-13" d="M81.64,26.66l.53.09c-.15.05-.27.14-.42.2a3.54,3.54,0,0,0-.15,1.77,5.19,5.19,0,0,1,1.18.05A13.2,13.2,0,0,0,83,26.88s-1.94-4.51-3.2-6.61h-.38A27.32,27.32,0,0,1,81.64,26.66Z"/><path class="cls-13" d="M79.86,26.6l-1.71-.26a6.08,6.08,0,0,0-1.65.46A17.24,17.24,0,0,0,79.86,26.6Z"/><path class="cls-12" d="M77,21.87A11.23,11.23,0,0,1,71.39,26a6.66,6.66,0,0,0,5.14-2.45A2.4,2.4,0,0,0,77,21.87Z"/><path class="cls-12" d="M69.7,26.78a4.08,4.08,0,0,0-3.14.71A3.83,3.83,0,0,0,65,30.23a4.14,4.14,0,0,1,.53-3.57,2.42,2.42,0,0,0-1.67,1.6,2.1,2.1,0,0,1,.63-2.42,3.38,3.38,0,0,1,2.69-.63A6.19,6.19,0,0,1,69.7,26.78Z"/><path class="cls-12" d="M79.32,7a35.65,35.65,0,0,1-.56,7.83,19.4,19.4,0,0,0-5.83-.57,30.38,30.38,0,0,0-.27-8.41,6.06,6.06,0,0,0-2.4-.07,46.31,46.31,0,0,1,7.67-.22A1.51,1.51,0,0,1,79.32,7Z"/><path class="cls-12" d="M76,33.44a19.43,19.43,0,0,1-3,8.41,5.28,5.28,0,0,0,2.06-.12,36.1,36.1,0,0,0,3.3-8.65c0-.11,0-.22-.09-.32a17.44,17.44,0,0,0-3.94-.51A5.69,5.69,0,0,1,76,33.44Z"/><path class="cls-12" d="M69.52,20.67a1.59,1.59,0,0,1-.41,0,2,2,0,0,1-.94-.24,2.19,2.19,0,0,1-.72-.64,1.81,1.81,0,0,1-.2-.36l.39.11a4.58,4.58,0,0,1,.83.33,5.12,5.12,0,0,1,.75.5Z"/><path class="cls-12" d="M69.31,21a1.13,1.13,0,0,1-.21.25,1.24,1.24,0,0,1-.65.31,1.12,1.12,0,0,1-.71-.14,1.17,1.17,0,0,1-.26-.18l.28-.13a2.44,2.44,0,0,1,.61-.18,2.61,2.61,0,0,1,.63,0Z"/><path class="cls-12" d="M70.06,21.37l-.26.28a7.34,7.34,0,0,1-.56.57,5.34,5.34,0,0,1-.65.48l-.31.22a1.37,1.37,0,0,1,0-.39,1.56,1.56,0,0,1,.49-.79,1.51,1.51,0,0,1,.84-.37A1.43,1.43,0,0,1,70.06,21.37Z"/><path class="cls-6" d="M71.87,41.8a38.18,38.18,0,0,1-5-.58c-2.41-3.67-6.6-11.52-6.6-11.52a20.37,20.37,0,0,1,.22-3.39,14.6,14.6,0,0,0,1.21,4.14,96,96,0,0,0,5.47,10.32C68.71,41.14,70.35,41.43,71.87,41.8Z"/><path class="cls-9" d="M64.77,8.42a.71.71,0,0,0,.59.08,1.51,1.51,0,0,0,1-.79A.52.52,0,0,0,65.93,7C65.41,7,64.11,7.87,64.77,8.42Z"/><path class="cls-9" d="M64.83,9.64a.33.33,0,0,0-.13.32c0,.12.21.14.35.13a2,2,0,0,0,.59-.13.78.78,0,0,0,.32-.2.32.32,0,0,0-.27-.54A1.66,1.66,0,0,0,64.83,9.64Z"/><path class="cls-9" d="M67,8.36a.27.27,0,0,0,.11.31.36.36,0,0,0,.29,0A1.71,1.71,0,0,0,68,8.38c.28-.22,0-.5-.31-.46a1.47,1.47,0,0,0-.34.15A.52.52,0,0,0,67,8.36Z"/><path class="cls-7" d="M48.84,35l2.43-2.23L52,30.94l7.13,7.73-1,.67-.24,5C55.14,40.86,52.2,37.15,48.84,35Z"/><path class="cls-11" d="M58,38.79a1.33,1.33,0,0,0-.52.35c0,.72,0,1.62,0,2.33a15,15,0,0,0-3.92-4.36L54.85,35A27,27,0,0,1,58,38.79Z"/><path class="cls-4" d="M53.3,33.8a14.66,14.66,0,0,0-1.43,2.07A11,11,0,0,0,50,34.69c.65-.59,1.37-1.29,2-1.88l0-1A15.7,15.7,0,0,1,53.3,33.8Z"/><path class="cls-14" d="M28,71.7l21.68-4.46a13.59,13.59,0,0,1,6.9,9.32H89.84l-2,27.33h.69l.85,2.34L82,107.51l.42-7.44L79.88,88.43,49.05,90.8H37.49C33.65,85.93,30.58,79.42,28,71.7Z"/><path class="cls-15" d="M38.37,89a64.48,64.48,0,0,1-9-15.63,44.59,44.59,0,0,1,9.78-2.63c1.42,3.61,2.91,7.3,4.24,10.94a14.88,14.88,0,0,1,8.06-3.8,21,21,0,0,0-4.72,3.73,19.9,19.9,0,0,1,4.66-1.95,9.93,9.93,0,0,0-1.48,2,327,327,0,0,1,33.41-1.45c-.52,1.6-1.19,3.28-1.82,4.85,1-1.18,2.2-2.33,3.23-3.51-.42,1-.78,2-1.2,3l2.08-1.62c0,7,0,13.77,0,20.73l-1,1.12c.5-.15.88-.14,1.38-.29.09.61.18,1.26.27,1.87-1.1.31-2.2.58-3.29.89,0-.57-.14-1.2-.18-1.77.2-.11.35-.33.55-.44-.18-.11-.31-.25-.49-.35.15-1.45.23-2.94.27-4.39.23-.35.44-.85.67-1.2-.24.08-.56.15-.8.24-.84-3.71-1.61-7.46-2.45-11.17.24-.42.44-.91.69-1.33a6.13,6.13,0,0,0-1.15.94,3,3,0,0,0,0-1.15c-.15.33-.3.58-.45.91C65.86,89.11,52.2,89.18,38.37,89Z"/><polygon class="cls-16" points="83.5 107.25 83.5 109.15 83.15 109.33 83.31 110.38 103.07 110.11 103.34 109.08 102.91 109.08 101.56 105.02 96.22 106.66 88.25 106.95 87.99 106.47 83.5 107.25"/><path class="cls-17" d="M54.61,76.07A18.4,18.4,0,0,0,53,78c11.61,0,23.34.08,35,.09-.55,8.66-.67,17.29-.79,26,.8-8.92,1.95-27,1.95-27L55.82,77a8.48,8.48,0,0,0-1.87.47l1.53-1.15a11.18,11.18,0,0,0-5.19-7.81A30,30,0,0,1,54.61,76.07Z"/><path class="cls-15" d="M87.42,107c.41.76.76,1.51,1.11,2.3,4.32,0,8.64,0,13-.29,0,.16-.09.38,0,.49-5.73.37-11.48.41-17.21.23-.07-.77-.14-1.54-.2-2.31C85,107.25,86.5,107.14,87.42,107Z"/><path class="cls-17" d="M102.14,108.43a20.74,20.74,0,0,0-1.1-2.51c-1.52.46-4.46,1.28-4.46,1.28s-4.65.33-7,.24c2.39.31,7.06.48,7.06.48s1.64-.44,2.5-.7c.23.41.58.84.81,1.25C100.67,108.5,101.44,108.4,102.14,108.43Z"/><polygon class="cls-18" points="18.5 36.84 26.69 37.27 30.51 90.29 76.2 90.29 79.6 110.53 104.24 109.68 104.24 114.14 77.9 114.14 72.38 94.22 28.49 93.16 22.54 40.46 18.5 40.35 18.5 36.84"/><polygon class="cls-13" points="18.88 37.6 25.74 38.01 30.27 90.83 75.59 91.13 79.23 111.19 103.22 110.64 103.22 113.17 102.74 111.51 78.91 111.91 74.73 91.89 29.85 91.29 24.79 38.97 18.85 38.89 18.88 37.6"/><polygon class="cls-19" points="18.85 39.49 18.85 40.06 22.99 40.06 28.89 93.2 72.88 93.8 78.23 113.75 102.78 113.59 78.71 113.17 73.86 92.84 29.13 92.88 23.87 39.49 18.85 39.49"/><polygon class="cls-20" points="7.62 36.31 15.33 35.99 15.79 41.94 7.81 41.52 7.62 36.31"/><polygon class="cls-21" points="15.16 33.76 18.88 33.76 18.88 44.02 15.95 44.02 15.16 33.76"/><polygon class="cls-22" points="5.2 34.66 8.52 34.66 8.52 43.11 5.91 43.11 5.2 34.66"/><polygon class="cls-13" points="5.56 35.02 5.86 37.85 8.17 37.71 8.27 35.02 5.56 35.02"/><polygon class="cls-13" points="8.84 36.66 8.84 38.49 15.16 38.49 14.95 36.44 8.84 36.66"/><polygon class="cls-13" points="15.5 34.24 15.69 36.84 18.5 36.84 18.5 34.11 15.5 34.24"/><polygon class="cls-8" points="6.07 39.82 6.21 42.69 8.27 42.69 8.27 39.66 6.07 39.82"/><polygon class="cls-8" points="8.84 39.84 8.84 41.17 15.34 41.57 15.16 39.84 8.84 39.84"/><polygon class="cls-8" points="16.01 40.4 16.25 43.4 18.5 43.56 18.4 40.24 16.01 40.4"/><path class="cls-23" d="M52.68,54.31a23.37,23.37,0,0,1-1.76-3.18,32.19,32.19,0,0,1-3,1.78,34.83,34.83,0,0,1,2.73-2.33c-.23-.54-.43-1-.59-1.5l-.88.66a27.42,27.42,0,0,1-2.46,1.56,8.92,8.92,0,0,1,2.09-2.08,10.14,10.14,0,0,1,1.08-.66c-.26-.78-.38-1.29-.38-1.29s.3.43.7,1.13a7.48,7.48,0,0,1,1.24-.47s-.4.36-1,.86c.23.41.48.88.73,1.4l.34-.25a34.54,34.54,0,0,1,3.95-2.46,34.52,34.52,0,0,1-3.58,3l-.44.32A24.23,24.23,0,0,1,52.68,54.31Zm-3,.19a19.57,19.57,0,0,0-2.09,1.44A13.74,13.74,0,0,0,46.17,54a11.28,11.28,0,0,0-.87-.9l1.8,3.21a17.86,17.86,0,0,0-2,2.06c-.49.6-.75,1-.75,1s1.4-1.08,3.07-2.5l.75,1.37-.31.2a3.72,3.72,0,0,0-1,1.16A3.78,3.78,0,0,0,48.23,59l.22-.18.94,1.7a11.48,11.48,0,0,0-.3-1.21c-.08-.26-.18-.55-.29-.85a4.24,4.24,0,0,0,.42-.61,3.32,3.32,0,0,0-.58.19,12.87,12.87,0,0,0-.72-1.52v0c1.62-1.39,2.87-2.56,2.87-2.56A11.61,11.61,0,0,0,49.67,54.5Z"/></g></g></g></svg>