<svg xmlns="http://www.w3.org/2000/svg" xmlns:xlink="http://www.w3.org/1999/xlink" viewBox="0 0 56.42 191.13"><defs><style>.cls-1{isolation:isolate;}.cls-2,.cls-21,.cls-23,.cls-26,.cls-5{fill:#b86053;}.cls-12,.cls-2,.cls-20{opacity:0.5;}.cls-12,.cls-18,.cls-2,.cls-20,.cls-21,.cls-23,.cls-26,.cls-30,.cls-31,.cls-40,.cls-5{mix-blend-mode:multiply;}.cls-3{fill:#600003;}.cls-14,.cls-17,.cls-19,.cls-32,.cls-33,.cls-4{fill:#fff7cc;}.cls-4{opacity:0.2;}.cls-17,.cls-19,.cls-32,.cls-33,.cls-4{mix-blend-mode:screen;}.cls-30,.cls-33,.cls-5{opacity:0.6;}.cls-6{fill:url(#Áåçûìÿííûé_ãðàäèåíò_36);}.cls-7{fill:#131f49;}.cls-8{fill:#14466a;}.cls-9{fill:url(#Áåçûìÿííûé_ãðàäèåíò_120);}.cls-10{fill:url(#Áåçûìÿííûé_ãðàäèåíò_123);}.cls-11{fill:#00b8c4;}.cls-12,.cls-30,.cls-31{fill:#22567d;}.cls-13{fill:url(#Áåçûìÿííûé_ãðàäèåíò_30);}.cls-15{fill:url(#Áåçûìÿííûé_ãðàäèåíò_7);}.cls-16{fill:#f7a01e;}.cls-17,.cls-18{opacity:0.3;}.cls-18,.cls-20{fill:#ad522f;}.cls-19,.cls-40{opacity:0.45;}.cls-21{opacity:0.15;}.cls-22{fill:#f0835e;}.cls-23,.cls-31,.cls-32{opacity:0.4;}.cls-24{fill:url(#Áåçûìÿííûé_ãðàäèåíò_120-2);}.cls-25{fill:#f09372;}.cls-26{opacity:0.25;}.cls-27{fill:url(#Áåçûìÿííûé_ãðàäèåíò_123-2);}.cls-28{fill:url(#Áåçûìÿííûé_ãðàäèåíò_36-2);}.cls-29{fill:url(#Áåçûìÿííûé_ãðàäèåíò_36-3);}.cls-34{fill:url(#Áåçûìÿííûé_ãðàäèåíò_123-3);}.cls-35{fill:url(#Áåçûìÿííûé_ãðàäèåíò_30-2);}.cls-36{fill:url(#Áåçûìÿííûé_ãðàäèåíò_120-3);}.cls-37{fill:#dad1c0;}.cls-38{fill:#d96118;}.cls-39{fill:#f7f4eb;}.cls-40{fill:#547275;}</style><linearGradient id="Áåçûìÿííûé_ãðàäèåíò_36" x1="29.63" y1="124.83" x2="29.63" y2="171.33" gradientUnits="userSpaceOnUse"><stop offset="0" stop-color="#131f49"/><stop offset="0.87" stop-color="#14466a"/><stop offset="1" stop-color="#22567d"/></linearGradient><linearGradient id="Áåçûìÿííûé_ãðàäèåíò_120" x1="29.63" y1="77.82" x2="29.63" y2="85.81" gradientUnits="userSpaceOnUse"><stop offset="0" stop-color="#e7855f"/><stop offset="0.17" stop-color="#ef9f72"/><stop offset="0.45" stop-color="#fbc78e"/><stop offset="0.59" stop-color="#ffd699"/></linearGradient><linearGradient id="Áåçûìÿííûé_ãðàäèåíò_123" x1="29.63" y1="95.31" x2="29.63" y2="84.05" gradientUnits="userSpaceOnUse"><stop offset="0" stop-color="#22567d"/><stop offset="1" stop-color="#00b8c4"/></linearGradient><linearGradient id="Áåçûìÿííûé_ãðàäèåíò_30" x1="29.63" y1="76.64" x2="29.63" y2="105.02" gradientUnits="userSpaceOnUse"><stop offset="0.08" stop-color="#fcee21"/><stop offset="0.11" stop-color="#fce820"/><stop offset="0.3" stop-color="#fabb19"/><stop offset="0.47" stop-color="#f89a13"/><stop offset="0.62" stop-color="#f78610"/><stop offset="0.71" stop-color="#f77f0f"/></linearGradient><linearGradient id="Áåçûìÿííûé_ãðàäèåíò_7" x1="29.63" y1="128.54" x2="29.63" y2="121.53" gradientUnits="userSpaceOnUse"><stop offset="0" stop-color="#e7855f"/><stop offset="1" stop-color="#9a1418"/></linearGradient><linearGradient id="Áåçûìÿííûé_ãðàäèåíò_120-2" x1="29.63" y1="62.37" x2="29.63" y2="73.87" xlink:href="#Áåçûìÿííûé_ãðàäèåíò_120"/><linearGradient id="Áåçûìÿííûé_ãðàäèåíò_123-2" x1="29.63" y1="60.02" x2="29.63" y2="47.14" xlink:href="#Áåçûìÿííûé_ãðàäèåíò_123"/><linearGradient id="Áåçûìÿííûé_ãðàäèåíò_36-2" x1="19.52" y1="54.15" x2="39.74" y2="54.15" xlink:href="#Áåçûìÿííûé_ãðàäèåíò_36"/><linearGradient id="Áåçûìÿííûé_ãðàäèåíò_36-3" x1="29.63" y1="58.23" x2="29.63" y2="66.38" xlink:href="#Áåçûìÿííûé_ãðàäèåíò_36"/><linearGradient id="Áåçûìÿííûé_ãðàäèåíò_123-3" x1="9.89" y1="103.12" x2="8.92" y2="76.45" xlink:href="#Áåçûìÿííûé_ãðàäèåíò_123"/><linearGradient id="Áåçûìÿííûé_ãðàäèåíò_30-2" x1="17.75" y1="78.92" x2="11.32" y2="95.98" xlink:href="#Áåçûìÿííûé_ãðàäèåíò_30"/><linearGradient id="Áåçûìÿííûé_ãðàäèåíò_120-3" x1="7.7" y1="38.16" x2="6.56" y2="69.63" xlink:href="#Áåçûìÿííûé_ãðàäèåíò_120"/></defs><g class="cls-1"><g id="Layer_2" data-name="Layer 2"><g id="layer_1-2" data-name="layer 1"><path class="cls-2" d="M56.42,188c0,1.75-11.67,3.16-26.06,3.16s-26-1.41-26-3.16,11.67-3.16,26.05-3.16S56.42,186.23,56.42,188Z"/><path class="cls-3" d="M47.12,185.5l-.49.07a10.41,10.41,0,0,0-.85-3.46A14.78,14.78,0,0,1,41,180.78l-11.32,1.55-11.31-1.55a14.91,14.91,0,0,1-4.84,1.33,10.41,10.41,0,0,0-.85,3.46l-.49-.07-.25,1.39a20.38,20.38,0,0,0,10.8,1.61l6.94-2.9,6.94,2.9a20.36,20.36,0,0,0,10.8-1.61Z"/><path class="cls-4" d="M13.83,182.33c1.6.93,4.31,1.23,8.14,1.48a20.85,20.85,0,0,0,5.44-1.61l-8.91-1.28A13.85,13.85,0,0,1,13.83,182.33Z"/><path class="cls-4" d="M45.43,182.33c-1.59.93-4.31,1.23-8.13,1.48a20.92,20.92,0,0,1-5.45-1.61l8.91-1.28A13.92,13.92,0,0,0,45.43,182.33Z"/><path class="cls-5" d="M47.12,185.5l-.49.07c-2.12,1-5.5,1.79-10.21,1.79l-6.79-2.55-6.79,2.55c-4.71,0-8.09-.75-10.21-1.79l-.49-.07-.25,1.39a20.38,20.38,0,0,0,10.8,1.61l6.94-2.9,6.94,2.9a20.36,20.36,0,0,0,10.8-1.61Z"/><path class="cls-6" d="M39.05,178.09l.33-2.61a6.77,6.77,0,0,1-2-1.47,133.87,133.87,0,0,1-.9-18.51,4.82,4.82,0,0,0,1.63-1.72A221.05,221.05,0,0,1,39.7,126H19.56a219.19,219.19,0,0,1,1.63,27.8,4.91,4.91,0,0,0,1.63,1.72,133.87,133.87,0,0,1-.9,18.51,6.86,6.86,0,0,1-2,1.47l.32,2.61a6,6,0,0,1-1.89,1.46v1.23c2.49.88,6.52,1.33,11.31,1.55,4.79-.22,8.82-.67,11.32-1.55v-1.23A6,6,0,0,1,39.05,178.09Z"/><polygon class="cls-7" points="26.7 127.8 29.26 129.21 28.93 132.02 29.51 134.9 29.3 152.88 28.56 154.15 29.51 153.37 29.51 164.07 29.36 174.47 28.59 176.61 29.14 178.04 28.38 180.78 29.63 182.33 29.23 181.07 30.4 178.17 29.51 176.06 30.09 174.59 29.84 164.34 30.4 164.9 29.63 163.58 29.75 153.38 30.5 154.7 29.71 152.25 29.84 134.91 29.63 132.03 30.03 129.05 33.13 126.82 29.71 128.84 26.7 127.8"/><rect class="cls-8" x="24.74" y="81.07" width="9.79" height="2.75"/><path class="cls-9" d="M33.61,79.15l-4-.37-4,.37a12.82,12.82,0,0,1-.92,4.67L29.63,89l4.89-5.2A10.65,10.65,0,0,1,33.61,79.15Z"/><polygon class="cls-10" points="36.02 83.03 34.52 81.07 29.63 87.74 24.74 81.07 23.24 83.03 21.47 83.27 21.89 92.75 29.63 92.91 37.37 92.75 37.8 83.27 36.02 83.03"/><polygon class="cls-11" points="23.24 83.03 24.74 87.98 27.77 86.06 29.63 87.74 24.74 81.07 23.24 83.03"/><polygon class="cls-11" points="34.52 81.07 29.63 87.74 31.5 86.06 34.52 87.98 36.02 83.03 34.52 81.07"/><polygon class="cls-12" points="34.52 87.98 31.5 86.06 29.63 87.74 27.77 86.06 24.74 87.98 23.24 83.03 24.74 88.63 27.27 87.22 29.63 88.2 32 87.22 34.52 88.63 36.02 83.03 34.52 87.98"/><path class="cls-13" d="M45.47,119.76l4-21-2.14-.8a154.53,154.53,0,0,1,1-17.25,9.31,9.31,0,0,0-4.1,1.78,23.08,23.08,0,0,0-6.39-1.38,67.49,67.49,0,0,0-1.46,10.31,93.92,93.92,0,0,1-13.42,0,64.09,64.09,0,0,0-1.45-10.31,23.15,23.15,0,0,0-6.4,1.38A9.32,9.32,0,0,0,11,80.67a159.47,159.47,0,0,1,1,17.25l-2.15.8,4,21a9.77,9.77,0,0,0-2,2.93q18,.61,35.6,0A9.58,9.58,0,0,0,45.47,119.76Z"/><path class="cls-14" d="M48.53,103.6H42.92l1.25-21.15c-.82-.29-1.68-.54-2.57-.77L40.24,103.6H19L17.64,81.68c-.89.23-1.74.48-2.57.77l1.25,21.15H10.74l.5,2.69h5.24l1,16.57,2.75,0-1-16.62H40.07l-1,16.62,2.75,0,1-16.57H48Z"/><polygon class="cls-15" points="40.55 125.97 18.71 125.97 18.32 122.87 40.95 122.87 40.55 125.97"/><path class="cls-16" d="M33.06,122.87H26.21l-.4,4a27.16,27.16,0,0,0,7.64,0Z"/><path class="cls-17" d="M21,81.75A39.05,39.05,0,0,1,21.71,86c-1.08,0-2.21-.08-3.29,0a11.49,11.49,0,0,1,.77-4.34A4.11,4.11,0,0,1,21,81.75Z"/><path class="cls-17" d="M41.05,82.06a14.25,14.25,0,0,1-.17,3.63,12.42,12.42,0,0,1-3.21-.33,10.2,10.2,0,0,1,.59-3.75A5.32,5.32,0,0,1,41.05,82.06Z"/><path class="cls-17" d="M47.88,81.42c-.21,1.74-.42,3.44-.63,5.18a16.13,16.13,0,0,1-2.78,0,18.88,18.88,0,0,1,.18-3.83A7.57,7.57,0,0,1,47.88,81.42Z"/><path class="cls-18" d="M48.75,99.48q-2.31,10-4.18,20.07c-4.94.15-10,.32-14.94.46,4.45-.56,8.9-1.28,13.34-1.84C45.05,112,47.09,105.77,48.75,99.48Z"/><path class="cls-18" d="M10.5,99.48q2.33,10,4.19,20.07c4.94.15,10,.32,14.94.46-4.45-.56-8.9-1.28-13.34-1.84C14.2,112,12.17,105.77,10.5,99.48Z"/><path class="cls-17" d="M36.9,92.88a20.69,20.69,0,0,0-.15-2.94,6.81,6.81,0,0,1-.23,1.74,82,82,0,0,1-14,.1,9.36,9.36,0,0,0-.07-1.59,7.75,7.75,0,0,0-.63,2.32A51.45,51.45,0,0,0,36.9,92.88Z"/><path class="cls-18" d="M13.16,121.29l-.57,1c11.55.45,23,.47,34.29,0l-1.27-1.76.37,1.27q-16.09.54-32.86.24Z"/><path class="cls-17" d="M14.46,120l30.34.54-31.32,1A2.5,2.5,0,0,1,14.46,120Z"/><path class="cls-2" d="M26.45,123.18l-.24,3.3a16.25,16.25,0,0,0,6.92.16l-.35-3.46,0,3.11a33.22,33.22,0,0,1-6.31,0Z"/><polygon class="cls-19" points="28.66 123.09 30.17 126.27 30.81 126.27 30.3 123.09 28.66 123.09"/><polygon class="cls-19" points="30.45 123.09 30.91 126.22 31.34 126.22 31.12 123.09 30.45 123.09"/><polygon class="cls-20" points="18.32 122.87 40.95 122.87 40.79 124.11 33.61 124.25 33.36 125.97 32.86 123.78 26.41 123.76 25.9 125.97 25.46 124.07 18.41 123.57 18.32 122.87"/><path class="cls-21" d="M25.84,79.63a3.45,3.45,0,0,0,3.5,2.6,4.72,4.72,0,0,0,4.14-2.6Z"/><path class="cls-22" d="M21.69,66.72A2.55,2.55,0,0,0,20,63a2.55,2.55,0,0,0-1.38,4.91.71.71,0,0,1,.42.44,1.6,1.6,0,1,0,2.67-1.65Z"/><path class="cls-23" d="M20.46,64.5a.61.61,0,0,0-.13-.29.85.85,0,0,0-.7-.31,1.46,1.46,0,0,0-1,.5,1.63,1.63,0,0,0-.43,1.25,1.68,1.68,0,0,0,.67,1.14A2.8,2.8,0,0,0,20,67.2a1.38,1.38,0,0,1,.78.49.84.84,0,0,1,.13.31.64.64,0,0,0-.19-.25,1.32,1.32,0,0,0-.77-.26c-.18,0-.38,0-.62,0a1.83,1.83,0,0,1-.74-.24,1.94,1.94,0,0,1-.31-3.15,1.71,1.71,0,0,1,1.36-.44,1,1,0,0,1,.76.56.68.68,0,0,1,.05.24A.21.21,0,0,1,20.46,64.5Zm-.14,2.19a1,1,0,0,1-.56-.6.61.61,0,0,1,.21-.67.65.65,0,0,1,.41-.1.58.58,0,0,0-.48-.17.72.72,0,0,0-.55.31.94.94,0,0,0-.14.79,1,1,0,0,0,1.06.72.84.84,0,0,0,.36-.09.52.52,0,0,0,.12-.06A1.44,1.44,0,0,1,20.32,66.69Z"/><path class="cls-22" d="M37.56,66.72a2.55,2.55,0,1,1,3.09,1.21.75.75,0,0,0-.43.44,1.59,1.59,0,0,1-1.82,1,1.6,1.6,0,0,1-.84-2.67Z"/><path class="cls-23" d="M38.78,64.41a1.17,1.17,0,0,1,.06-.24,1,1,0,0,1,.76-.56,1.71,1.71,0,0,1,1.36.44,1.94,1.94,0,0,1-.31,3.15,1.83,1.83,0,0,1-.74.24c-.24,0-.44,0-.62,0a1.32,1.32,0,0,0-.77.26.64.64,0,0,0-.19.25.91.91,0,0,1,.12-.31,1.42,1.42,0,0,1,.79-.49,2.8,2.8,0,0,0,1.14-.41,1.58,1.58,0,0,0,.24-2.39,1.46,1.46,0,0,0-1-.5.85.85,0,0,0-.7.31.61.61,0,0,0-.13.29A.31.31,0,0,1,38.78,64.41Zm-.28,2.41a.52.52,0,0,0,.12.06A.83.83,0,0,0,39,67,1,1,0,0,0,40,66.25a.94.94,0,0,0-.14-.79.73.73,0,0,0-.55-.31.58.58,0,0,0-.48.17.62.62,0,0,1,.4.1.6.6,0,0,1,.22.67,1,1,0,0,1-.56.6A1.53,1.53,0,0,1,38.5,66.82Z"/><path class="cls-24" d="M39.05,66.2a14.16,14.16,0,0,1-.59-3.39l-8.83-.36-8.83.36a14.16,14.16,0,0,1-.59,3.39,5,5,0,0,0,1.35,1.55,66.55,66.55,0,0,1-.86,7.71,35.36,35.36,0,0,0,4.8,4.18,2.55,2.55,0,0,0,1.76.56,10.22,10.22,0,0,0,2.37-.38A10.22,10.22,0,0,0,32,80.2a2.54,2.54,0,0,0,1.75-.56,35.36,35.36,0,0,0,4.8-4.18,68.82,68.82,0,0,1-.86-7.71A5,5,0,0,0,39.05,66.2Z"/><path class="cls-25" d="M31.82,69.5a6.71,6.71,0,0,1-4.38,0l.43-4.79h3.52Z"/><polygon class="cls-23" points="34.65 70.75 34.83 71.7 29.63 71.7 24.43 71.7 24.62 70.75 22.92 72.65 24.23 71.87 29.63 72.42 35.03 71.87 36.34 72.65 34.65 70.75"/><polygon class="cls-23" points="29.63 73.83 27.09 73.57 27.61 74.89 28.01 74.44 29.63 74.44 31.25 74.44 31.65 74.89 32.17 73.57 29.63 73.83"/><path class="cls-26" d="M38.56,63.05a2.23,2.23,0,0,1-.42,1.38,5,5,0,0,1-1,1,13.54,13.54,0,0,1-5.84,2.66c-.08-.35-.14-.66-.21-1a4.39,4.39,0,0,0-3,.06,3.48,3.48,0,0,1-.14,1,9.79,9.79,0,0,1-4.5-1.27,5.17,5.17,0,0,1-2.55-3.77,48.89,48.89,0,0,0,8.75,1.22C32.6,64.42,35.85,64.3,38.56,63.05Z"/><path class="cls-27" d="M35.54,39.93a66.4,66.4,0,0,0,9.3,12.29,16.09,16.09,0,0,1-5.29,4.25H19.71a15.2,15.2,0,0,1-5.29-4.25,86.81,86.81,0,0,0,9.3-12.29A22.77,22.77,0,0,1,35.54,39.93Z"/><path class="cls-28" d="M29.63,49.34a32.73,32.73,0,0,0-10.11,6.3l.23,3.17,9.88.16,9.88-.16.23-3.17A32.73,32.73,0,0,0,29.63,49.34Z"/><path class="cls-29" d="M39.51,58.81,29.63,59l-9.88-.16-1.1,3.35q10.74,7.95,22,0Z"/><path class="cls-30" d="M31.72,53.58l.89-.12.2-1-3.18-.72-3.18.72.2,1,.89.12-1.32,3a8,8,0,0,0,3.38,1.68A9.88,9.88,0,0,0,33,56.58Z"/><path class="cls-16" d="M31.72,53.07l.89-.12.2-1-3.18-.73-3.18.73.2,1,.89.12-1.32,3a7.8,7.8,0,0,0,3.38,1.68A9.54,9.54,0,0,0,33,56.07Z"/><path class="cls-16" d="M39.75,58a1,1,0,0,0-.52.74c-1.31-.08-6.64-.41-9.6-.41s-8.41.41-9.63.5h0c-.09-.43-.26-.72-.54-.82a3.21,3.21,0,0,0,0,1.51,1.18,1.18,0,0,0,.52-.64c1.21.07,6.89.41,9.65.41s8.23-.4,9.58-.5a.08.08,0,0,1,0,0,1.24,1.24,0,0,0,.55.69A3.21,3.21,0,0,0,39.75,58Z"/><path class="cls-31" d="M28.57,49.34c-2.94,1.26-6,2.71-8.81,4.25a10.34,10.34,0,0,1-2.52-3.14,9.74,9.74,0,0,0-1.76,1.81,9.78,9.78,0,0,0,3.28,3.15A54.15,54.15,0,0,1,28.57,49.34Z"/><path class="cls-31" d="M30.49,49.34c2.94,1.26,6,2.71,8.8,4.25a10,10,0,0,0,2.52-3.14,9.15,9.15,0,0,1,1.76,1.81,9.66,9.66,0,0,1-3.27,3.15A54.15,54.15,0,0,0,30.49,49.34Z"/><path class="cls-32" d="M40.77,48.61a43.91,43.91,0,0,1-5.51-8.31,27.74,27.74,0,0,0-11.08,0q-2.7,4.22-5.41,8.42a1.64,1.64,0,0,0,.66.67,22.41,22.41,0,0,1,20.12.29A5.66,5.66,0,0,0,40.77,48.61Z"/><path class="cls-2" d="M31.91,55.84a16.76,16.76,0,0,1-2.38,1,6.7,6.7,0,0,1-2.13-1c.19-.87.4-1.76.6-2.63l-1.19,2.72a6.09,6.09,0,0,0,2.86,1.39,15.22,15.22,0,0,0,2.77-1.45c-.23-.55-.48-1.17-.72-1.72A12,12,0,0,1,31.91,55.84Z"/><path class="cls-2" d="M29.43,51.34a26.73,26.73,0,0,0-2.77.7c0,.25.11.73.11.73l.15-.57S28.65,51.55,29.43,51.34Z"/><path class="cls-2" d="M31.5,52.94l1-.07h-.05c.08-.27.2-.55.28-.82-.13.19-.28.39-.4.59A4.74,4.74,0,0,1,31.5,52.94Z"/><path class="cls-19" d="M31.5,55.91c-.25.11-.51.19-.76.29a48.72,48.72,0,0,1-2.45-4.26,4.18,4.18,0,0,1,1.28-.51S31,55.06,31.5,55.91Z"/><path class="cls-19" d="M30.5,56.27a10.73,10.73,0,0,1-1.69-2.84A9.55,9.55,0,0,0,30,56.53C30.15,56.46,30.33,56.34,30.5,56.27Z"/><path class="cls-19" d="M30.26,51.49l-.48-.12a9.16,9.16,0,0,0,.52,1.44C30.27,52.39,30.29,51.92,30.26,51.49Z"/><path class="cls-31" d="M23.74,58a25.15,25.15,0,0,0-3.57.29l-.32-2.49a31.1,31.1,0,0,1,3-2.37,11.9,11.9,0,0,0-1.53,1.31c.11,1,.23,2,.42,3C22.28,57.86,23.2,57.86,23.74,58Z"/><path class="cls-31" d="M35.4,58a25.15,25.15,0,0,1,3.57.29c.1-.83.21-1.66.32-2.49a32.39,32.39,0,0,0-3-2.37,11.17,11.17,0,0,1,1.52,1.31c-.1,1-.23,2-.42,3C36.86,57.86,35.94,57.86,35.4,58Z"/><path class="cls-31" d="M22.2,59.45c-.52,1.13-1,2.23-1.56,3.37a6.55,6.55,0,0,1-1.55-1.11,20.09,20.09,0,0,1,1.21-2.52C21,59.27,21.55,59.37,22.2,59.45Z"/><path class="cls-33" d="M26.49,59.72c-.52,1.62-1.28,3.4-1.81,5a27.36,27.36,0,0,1-2.59-1.17,22.49,22.49,0,0,1,1.42-4.14A13.57,13.57,0,0,1,26.49,59.72Z"/><path class="cls-33" d="M27.06,65.27a6.42,6.42,0,0,1-1.22-.39l1.49-5c.21,0,.47,0,.69,0A40.09,40.09,0,0,0,27.06,65.27Z"/><path class="cls-33" d="M35.64,64.2a16.85,16.85,0,0,0-1.71-4.81l-.66.12q.55,2.66,1.22,5.28A6,6,0,0,0,35.64,64.2Z"/><path class="cls-31" d="M40.23,62.08,37.7,63.37a14.69,14.69,0,0,0-1.22-4A13.56,13.56,0,0,1,39,59.14,12.94,12.94,0,0,1,40.23,62.08Z"/><path class="cls-31" d="M29.63,65.47c-.47,0-.95-.08-1.41-.15a36.9,36.9,0,0,1,.54-5.12c.28,0,.61,0,.89,0A23.49,23.49,0,0,1,29.63,65.47Z"/><polygon class="cls-17" points="22.33 174.58 20.62 175.68 27.63 176.37 23.19 174.86 23.96 156.72 22.33 174.58"/><polygon class="cls-17" points="20.62 177.15 20.62 178.41 18.95 179.63 27.41 181.06 28.16 180.45 21.11 178.94 20.62 177.15"/><path class="cls-7" d="M21.8,153.58a2.88,2.88,0,0,0,1.63.57l4.86-2.08-4.57,3.22A4,4,0,0,1,21.8,153.58Z"/><path class="cls-17" d="M20.4,126.82c.74,10.36,1.44,20.45,1.4,26.09a2.4,2.4,0,0,0,1.45.77,8.33,8.33,0,0,0,2.47-1c-1.21.14-2.38.22-2.9-.47C22.5,146.58,21.48,136.88,20.4,126.82Z"/><polygon class="cls-17" points="36.98 174.58 38.69 175.68 31.68 176.37 36.13 174.86 35.35 156.72 36.98 174.58"/><polygon class="cls-17" points="38.69 177.15 38.69 178.41 40.37 179.63 31.9 181.06 31.15 180.45 38.2 178.94 38.69 177.15"/><path class="cls-7" d="M37.51,153.58a2.88,2.88,0,0,1-1.63.57L31,152.07l4.56,3.22A4,4,0,0,0,37.51,153.58Z"/><path class="cls-17" d="M38.92,126.82c-.75,10.36-1.45,20.45-1.41,26.09a2.36,2.36,0,0,1-1.45.77,8.24,8.24,0,0,1-2.46-1c1.21.14,2.37.22,2.89-.47C36.82,146.58,37.84,136.88,38.92,126.82Z"/><path class="cls-17" d="M11.61,81.58l.45,4.12,2.4.13V82.71A4.56,4.56,0,0,0,11.61,81.58Z"/><polygon class="cls-34" points="2.62 67.44 11.75 64.75 11.02 66.54 14.94 77.96 10.04 97.51 2.62 67.44"/><path class="cls-35" d="M14.93,76.64,9.39,99.82,11.1,101l9.48-19.85-2.69.28V79.94l-1.1.18A10.54,10.54,0,0,0,14.93,76.64Z"/><polygon class="cls-36" points="10.91 65 10.67 41.09 6.03 41.09 2.62 63 3.64 67.14 10.91 65"/><path class="cls-14" d="M18,86.57a33.2,33.2,0,0,1,.86-5.26l-.95.1a68.69,68.69,0,0,0-2.25,10.07Z"/><path class="cls-17" d="M14.41,85.08a24.33,24.33,0,0,1,1.9-4.31,12.58,12.58,0,0,0-1.19-3,55.69,55.69,0,0,0-1.28,6.89C14.06,84.83,14.19,85,14.41,85.08Z"/><path class="cls-17" d="M15.64,85.21a33.31,33.31,0,0,1,1.91-3.65c-.11-.33-.23-.67-.33-1a.56.56,0,0,0-.49.28,32.06,32.06,0,0,0-1.82,4.06C15.12,85,15.43,85.07,15.64,85.21Z"/><path class="cls-18" d="M11,100.2l-1.12-.76c.82-2.25,1.52-4.6,2.18-6.91.19.13.39.1.59.23a10.53,10.53,0,0,0,1-1.79,7.15,7.15,0,0,1,1.35.61C13.51,94.24,12.25,97.44,11,100.2Z"/><path class="cls-17" d="M5.12,67.88l5.22-1.39a74.26,74.26,0,0,0,3.57,11.28l-3,8.32C10.05,83,9.18,79.85,8.3,76.71c.38,2.13.68,4.16,1,6.29-1.7-4.58-3.24-9.4-4.54-14.11.8-.3,1.54-.69,2.34-1C6.64,67.87,5.63,67.91,5.12,67.88Z"/><path class="cls-31" d="M9.52,91.28c-.06-2,0-3.91-.09-5.92.17,2.23.41,4.38.57,6.61.17-1.06.46-2.2.62-3.26-.19,2.42-.48,4.84-.67,7.26L6.83,82.8C7.63,85.5,8.73,88.58,9.52,91.28Z"/><path class="cls-26" d="M10.26,42,10,43.33a2.27,2.27,0,0,0-1.46,1A6.81,6.81,0,0,0,7.79,46c-1,2.81-2,5.47-3,8.28l1.74-12A16.89,16.89,0,0,1,10.26,42Z"/><polygon class="cls-37" points="3.35 37.8 13.55 37.62 13.18 41.66 3.72 42.49 3.35 37.8"/><polygon class="cls-37" points="12.49 37.62 15.55 30.54 15.06 27.16 12.16 25.89 7.55 19.97 4.42 22.51 5.41 25.33 0 30.22 4.37 37.78 12.49 37.62"/><path class="cls-38" d="M8.9.75l.78,31.54h1.65l2-31.52A3.65,3.65,0,0,0,8.9.75Z"/><polygon class="cls-39" points="5.57 25.88 8.45 30.34 4.33 33.8 0.95 30.05 5.57 25.88"/><path class="cls-40" d="M6,38.31a20.69,20.69,0,0,1,.24,3.15l2.08.27-4,.25a30.16,30.16,0,0,1-.34-3.67C4.5,38.27,5.42,38.35,6,38.31Z"/><path class="cls-39" d="M12.81,38.23c-.06,1-.13,2-.19,3.06a19.19,19.19,0,0,1-3.85.22,8.81,8.81,0,0,1-1.37-.32,10.39,10.39,0,0,1-.16-2.55A23.66,23.66,0,0,1,12.81,38.23Z"/><path class="cls-40" d="M4.4,34.81c1.48-1.15,3-2.25,4.48-3.4,0,.59,0,1.15-.07,1.74-1.36,1.06-2.7,2.07-4.05,3.12a8.39,8.39,0,0,0,0,1.23c-1.26-2-2.46-4-3.62-6.1.71,1,1.43,1.88,2.13,2.82a2.21,2.21,0,0,0-.11-.85C3.54,33.85,4.05,34.33,4.4,34.81Z"/><path class="cls-19" d="M9.52,1A3,3,0,0,1,13,1L11.19,30.51l-1-.33L11.85,1.57Z"/><polygon class="cls-23" points="9.52 1.57 9.92 32.05 10.87 32.05 10.42 31.4 10.21 1.74 9.52 1.57"/><polygon class="cls-39" points="5.35 23.16 11.67 32.3 12.32 32.78 9.02 33.35 5.84 36.49 5.96 37.19 11.88 37.19 15.06 30.74 14.81 27.58 12 26.3 7.77 21.04 5.35 23.16"/><path class="cls-37" d="M11.58,32.05c.18,0,.42,0,.6,0a19.45,19.45,0,0,1-1.48-2.43,8.67,8.67,0,0,1,1.76-2.85l-.37-.08a5.23,5.23,0,0,0-2.17,2.56A9.19,9.19,0,0,0,11.58,32.05Z"/></g></g></g></svg>