<svg xmlns="http://www.w3.org/2000/svg" xmlns:xlink="http://www.w3.org/1999/xlink" viewBox="0 0 37.76 46.73"><defs><style>.cls-1{isolation:isolate;}.cls-2{fill:url(#Áåçûìÿííûé_ãðàäèåíò_123);}.cls-3{fill:url(#Áåçûìÿííûé_ãðàäèåíò_120);}.cls-4{fill:#dad1c0;}.cls-5{fill:#547275;opacity:0.45;}.cls-5,.cls-7,.cls-9{mix-blend-mode:multiply;}.cls-6{fill:#fff7cc;opacity:0.3;mix-blend-mode:screen;}.cls-7{fill:#22567d;opacity:0.4;}.cls-8{fill:#f7f4eb;}.cls-9{fill:#b86053;opacity:0.25;}</style><linearGradient id="Áåçûìÿííûé_ãðàäèåíò_123" x1="-4.81" y1="32.93" x2="14.03" y2="24.61" gradientUnits="userSpaceOnUse"><stop offset="0" stop-color="#22567d"/><stop offset="1" stop-color="#00b8c4"/></linearGradient><linearGradient id="Áåçûìÿííûé_ãðàäèåíò_120" x1="29.44" y1="20.75" x2="11.46" y2="47.42" gradientUnits="userSpaceOnUse"><stop offset="0" stop-color="#e7855f"/><stop offset="0.17" stop-color="#ef9f72"/><stop offset="0.45" stop-color="#fbc78e"/><stop offset="0.59" stop-color="#ffd699"/></linearGradient></defs><g class="cls-1"><g id="Layer_2" data-name="Layer 2"><g id="layer_1-2" data-name="layer 1"><polygon class="cls-2" points="5.54 14.8 5.54 17.49 14.27 32.5 15.25 33.07 8.4 40.65 8.15 39.18 2.77 34.51 0 24.34 5.54 14.8"/><polygon class="cls-3" points="14.8 33.56 18.49 37.92 28.77 25.87 31.27 28.68 18.31 46.73 10.16 38.7 14.8 33.56"/><polygon class="cls-4" points="27.25 24.41 31.85 31.34 34.01 28.54 35.4 27.58 29.66 21.9 29.11 23.08 27.25 24.41"/><path class="cls-4" d="M29.66,21.9a13.71,13.71,0,0,0,0-8l-1-1.91,1.48-1.51L31.27,3.3,30.21.41,30.9.13a1.77,1.77,0,0,1,2.31,1l.71,1.78.62,5.92.86-.25a12.43,12.43,0,0,1,1.91,3.59L35.76,14.8a12.55,12.55,0,0,1,2,5.58,1.13,1.13,0,0,1-.13.68c-1,1.84-2.77,3.39-3.77,5Z"/><polygon class="cls-5" points="34.54 8.81 33.44 9.21 33.44 11.66 32.42 12.31 31.97 18.1 32.62 16.27 33.21 12.8 34.54 11.74 34.54 9.29 35.4 8.56 34.54 8.81"/><polygon class="cls-6" points="5.26 18.16 13.4 32.56 11.78 34.92 13.89 33.06 14.32 33.36 11.11 36.79 10.4 36.11 11.11 35.38 10.03 35.75 5.17 30.73 7.63 32.02 0.92 24.31 5.26 18.16"/><polygon class="cls-7" points="1.1 26.85 3.86 30.15 2.28 29.02 4.59 32.72 2.85 31.71 3.48 34.16 8.4 38.09 10.06 36.91 8.43 38.93 2.92 34.26 1.1 26.85"/><polygon class="cls-8" points="35.11 9.32 36.27 11.83 34.87 11.83 34.71 9.32 35.11 9.32"/><path class="cls-8" d="M33.38,13,33,16l-.94,2.14-.61.45-1.41-4.73a20.26,20.26,0,0,1,0,7.93l2.12,2,2.72-6.12-.45-4.32Z"/><path class="cls-5" d="M33.21,24.87l.58.73c1.16-1.65,2.81-3,3.69-4.93A13.18,13.18,0,0,0,35.62,15a20.1,20.1,0,0,1,.65,5.67A12.1,12.1,0,0,1,33.21,24.87Z"/><polygon class="cls-5" points="36.5 10.58 37.13 12.12 35.68 14.68 36.75 12.17 36.5 10.58"/><polygon class="cls-8" points="29.04 11.83 30.36 10.58 30.99 7.09 31.75 6.91 31.01 6.81 31.75 6.58 31.05 6.46 31.52 3.4 30.39 0.63 31.38 0.49 32.28 3.4 31.83 6.16 32.38 6.75 31.42 7.44 31.14 10.91 29.04 11.83"/><polygon class="cls-5" points="33.11 1.45 33.69 2.93 34.09 8.81 33.42 9.03 33.69 6.97 33.21 6.87 33.69 6.58 33.38 3.04 33.11 1.45"/><polygon class="cls-8" points="29.69 22.48 29.34 23.18 30.67 24.67 31.27 24.38 32.47 25.01 29.69 22.48"/><polygon class="cls-8" points="29.1 23.36 27.57 24.46 28.92 26.05 29.77 25.2 31.56 25.87 29.1 23.36"/><polygon class="cls-5" points="33.21 25.95 34.99 27.48 33.87 28.21 32.93 27.48 33.58 28.46 31.85 30.7 30.42 28.48 32.79 27.87 32.47 27.01 33.21 27.24 33.21 25.95"/><path class="cls-9" d="M28.72,26.62c.19,2.76-1.47,6.13-3.66,9.68l5.36-7.11Z"/><path class="cls-9" d="M14.21,34.22,10.4,38.44l7.28,6.76A12.73,12.73,0,0,1,14.21,34.22Z"/></g></g></g></svg>