<svg xmlns="http://www.w3.org/2000/svg" viewBox="0 0 19.73 19.75"><defs><style>.cls-1{isolation:isolate;}.cls-2{fill:#bd290f;}.cls-3{fill:#b86053;opacity:0.5;mix-blend-mode:multiply;}.cls-4{fill:#fff7cc;opacity:0.6;mix-blend-mode:overlay;}</style></defs><g class="cls-1"><g id="Layer_2" data-name="Layer 2"><g id="Layer_2-2" data-name="Layer 2"><g id="red"><path class="cls-2" d="M19.72,9.87C20,4.42,15.44,0,9.6,0S-.52,4.42.05,9.87s5.09,9.88,10.12,9.88S19.46,15.33,19.72,9.87Z"/><path class="cls-3" d="M1.59,9C1.18,1.44,12.8-.21,16.66,5c1.67,2.28,1.25,6.27-.29,8.53a9.27,9.27,0,0,1-7.15,4.18c2.82-2.58,6.47-9.1,2.23-12.16-2-1.41-4.32-.83-6.37.14C4,6.22,1.67,7.63,1.59,9Z"/><path class="cls-4" d="M2.79,10.89c0,1.71,2.09,5.41,4.32,4.55,1.9-.74.2-3.81-.56-4.85-.63-.86-2.26-2-3.39-1.25C2.56,9.71,2.71,10.33,2.79,10.89Z"/></g></g></g></g></svg>