<svg xmlns="http://www.w3.org/2000/svg" xmlns:xlink="http://www.w3.org/1999/xlink" viewBox="0 0 205.93 103.73"><defs><style>.cls-1{mask:url(#mask);filter:url(#luminosity-noclip-4);}.cls-10,.cls-16,.cls-2,.cls-28,.cls-4,.cls-6{mix-blend-mode:multiply;}.cls-2{fill:url(#Áåçûìÿííûé_ãðàäèåíò_20);}.cls-3{mask:url(#mask-2);filter:url(#luminosity-noclip-5);}.cls-4{fill:url(#Áåçûìÿííûé_ãðàäèåíò_20-2);}.cls-5{mask:url(#mask-3);filter:url(#luminosity-noclip-6);}.cls-6{fill:url(#Áåçûìÿííûé_ãðàäèåíò_20-3);}.cls-7{isolation:isolate;}.cls-14,.cls-15,.cls-26,.cls-8{fill:#fff7cc;}.cls-9{fill:#001138;}.cls-10,.cls-28{fill:#b86053;}.cls-10,.cls-14,.cls-16{opacity:0.5;}.cls-11{fill:url(#Áåçûìÿííûé_ãðàäèåíò_287);}.cls-12{fill:#002a40;}.cls-13{fill:url(#Áåçûìÿííûé_ãðàäèåíò_433);}.cls-14,.cls-15,.cls-26,.cls-30,.cls-34,.cls-44{mix-blend-mode:screen;}.cls-15,.cls-28{opacity:0.4;}.cls-16{fill:#22567d;}.cls-17{fill:url(#Áåçûìÿííûé_ãðàäèåíò_287-2);}.cls-18{fill:url(#Áåçûìÿííûé_ãðàäèåíò_433-2);}.cls-19{fill:url(#Áåçûìÿííûé_ãðàäèåíò_6);}.cls-20{fill:url(#Áåçûìÿííûé_ãðàäèåíò_21);}.cls-21{fill:url(#Áåçûìÿííûé_ãðàäèåíò_32);}.cls-22{fill:url(#Áåçûìÿííûé_ãðàäèåíò_32-2);}.cls-23{fill:#c45235;}.cls-24{fill:url(#Áåçûìÿííûé_ãðàäèåíò_7);}.cls-25{fill:#9a1418;}.cls-26{opacity:0.3;}.cls-27{fill:#d96118;}.cls-29{mask:url(#mask-4);}.cls-30,.cls-34,.cls-44{opacity:0.75;}.cls-30{fill:url(#Áåçûìÿííûé_ãðàäèåíò_29);}.cls-31{fill:#ffd699;}.cls-32{fill:#f7a01e;}.cls-33{mask:url(#mask-5);}.cls-34{fill:url(#Áåçûìÿííûé_ãðàäèåíò_29-2);}.cls-35{fill:url(#Áåçûìÿííûé_ãðàäèåíò_54);}.cls-36{fill:url(#Áåçûìÿííûé_ãðàäèåíò_32-3);}.cls-37{fill:#004d5c;}.cls-38{fill:url(#Áåçûìÿííûé_ãðàäèåíò_54-2);}.cls-39{fill:url(#Áåçûìÿííûé_ãðàäèåíò_32-4);}.cls-40{fill:url(#Áåçûìÿííûé_ãðàäèåíò_4);}.cls-41{fill:url(#Áåçûìÿííûé_ãðàäèåíò_31);}.cls-42{fill:#943219;}.cls-43{mask:url(#mask-6);}.cls-44{fill:url(#Áåçûìÿííûé_ãðàäèåíò_29-3);}.cls-45{filter:url(#luminosity-noclip-3);}.cls-46{filter:url(#luminosity-noclip-2);}.cls-47{filter:url(#luminosity-noclip);}</style><filter id="luminosity-noclip" x="48.34" y="-8231.8" width="86.99" height="32766" filterUnits="userSpaceOnUse" color-interpolation-filters="sRGB"><feFlood flood-color="#fff" result="bg"/><feBlend in="SourceGraphic" in2="bg"/></filter><mask id="mask" x="48.34" y="-8231.8" width="86.99" height="32766" maskUnits="userSpaceOnUse"><g class="cls-47"/></mask><linearGradient id="Áåçûìÿííûé_ãðàäèåíò_20" x1="-1700.54" y1="39.57" x2="-1700.54" y2="11.27" gradientTransform="translate(1792.37)" gradientUnits="userSpaceOnUse"><stop offset="0" stop-color="#fff"/><stop offset="1"/></linearGradient><filter id="luminosity-noclip-2" x="23.55" y="-8231.8" width="152.94" height="32766" filterUnits="userSpaceOnUse" color-interpolation-filters="sRGB"><feFlood flood-color="#fff" result="bg"/><feBlend in="SourceGraphic" in2="bg"/></filter><mask id="mask-2" x="23.55" y="-8231.8" width="152.94" height="32766" maskUnits="userSpaceOnUse"><g class="cls-46"/></mask><linearGradient id="Áåçûìÿííûé_ãðàäèåíò_20-2" x1="-1692.36" y1="69.45" x2="-1691.7" y2="58.84" xlink:href="#Áåçûìÿííûé_ãðàäèåíò_20"/><filter id="luminosity-noclip-3" x="77.11" y="-8231.8" width="39.07" height="32766" filterUnits="userSpaceOnUse" color-interpolation-filters="sRGB"><feFlood flood-color="#fff" result="bg"/><feBlend in="SourceGraphic" in2="bg"/></filter><mask id="mask-3" x="77.11" y="-8231.8" width="39.07" height="32766" maskUnits="userSpaceOnUse"><g class="cls-45"/></mask><linearGradient id="Áåçûìÿííûé_ãðàäèåíò_20-3" x1="-1695.79" y1="7.95" x2="-1694.9" y2="2.96" xlink:href="#Áåçûìÿííûé_ãðàäèåíò_20"/><linearGradient id="Áåçûìÿííûé_ãðàäèåíò_287" x1="-1746.25" y1="78.49" x2="-1746.25" y2="102.76" gradientTransform="translate(1792.37)" gradientUnits="userSpaceOnUse"><stop offset="0" stop-color="#131f49"/><stop offset="0.87" stop-color="#14466a"/><stop offset="1" stop-color="#22567d"/></linearGradient><radialGradient id="Áåçûìÿííûé_ãðàäèåíò_433" cx="-1743.95" cy="87.56" r="13.58" gradientTransform="translate(1792.37 0.21)" gradientUnits="userSpaceOnUse"><stop offset="0" stop-color="#e2f0d5"/><stop offset="0.01" stop-color="#d9e7cf"/><stop offset="0.05" stop-color="#b9c9b9"/><stop offset="0.1" stop-color="#9eb0a7"/><stop offset="0.14" stop-color="#8a9d99"/><stop offset="0.2" stop-color="#7b8f8f"/><stop offset="0.26" stop-color="#73878a"/><stop offset="0.37" stop-color="#708588"/><stop offset="1" stop-color="#dad1c0"/></radialGradient><linearGradient id="Áåçûìÿííûé_ãðàäèåíò_287-2" x1="-1629.05" y1="78.49" x2="-1629.05" y2="102.76" xlink:href="#Áåçûìÿííûé_ãðàäèåíò_287"/><radialGradient id="Áåçûìÿííûé_ãðàäèåíò_433-2" cx="-1626.76" cy="87.56" r="13.58" xlink:href="#Áåçûìÿííûé_ãðàäèåíò_433"/><linearGradient id="Áåçûìÿííûé_ãðàäèåíò_6" x1="-1700.88" y1="63.14" x2="-1700.88" y2="12.67" gradientTransform="translate(1792.37)" gradientUnits="userSpaceOnUse"><stop offset="0" stop-color="#00b8c4"/><stop offset="0.03" stop-color="#15c2c4"/><stop offset="0.08" stop-color="#3cd5c5"/><stop offset="0.14" stop-color="#5be4c6"/><stop offset="0.2" stop-color="#71eec7"/><stop offset="0.25" stop-color="#7ff5c7"/><stop offset="0.3" stop-color="#83f7c7"/><stop offset="0.39" stop-color="#7af3c7"/><stop offset="0.55" stop-color="#63e8c6"/><stop offset="0.75" stop-color="#3cd5c5"/><stop offset="0.97" stop-color="#08bcc4"/><stop offset="1" stop-color="#00b8c4"/></linearGradient><linearGradient id="Áåçûìÿííûé_ãðàäèåíò_21" x1="-1700.88" y1="59.32" x2="-1700.88" y2="38.58" gradientTransform="translate(1792.37)" gradientUnits="userSpaceOnUse"><stop offset="0.04" stop-color="#83f7c7"/><stop offset="0.14" stop-color="#7af3c7"/><stop offset="0.3" stop-color="#63e8c6"/><stop offset="0.49" stop-color="#3cd5c5"/><stop offset="0.72" stop-color="#08bcc4"/><stop offset="0.75" stop-color="#00b8c4"/></linearGradient><linearGradient id="Áåçûìÿííûé_ãðàäèåíò_32" x1="-1697.16" y1="4.6" x2="-1701.15" y2="59.26" gradientTransform="translate(1792.37)" gradientUnits="userSpaceOnUse"><stop offset="0.08" stop-color="#fcee21"/><stop offset="0.11" stop-color="#fce820"/><stop offset="0.3" stop-color="#fabb19"/><stop offset="0.47" stop-color="#f89a13"/><stop offset="0.62" stop-color="#f78610"/><stop offset="0.71" stop-color="#f77f0f"/></linearGradient><linearGradient id="Áåçûìÿííûé_ãðàäèåíò_32-2" x1="-1690.07" y1="54.45" x2="-1693.16" y2="93.4" xlink:href="#Áåçûìÿííûé_ãðàäèåíò_32"/><linearGradient id="Áåçûìÿííûé_ãðàäèåíò_7" x1="-1782.06" y1="62.5" x2="-1768.38" y2="62.5" gradientTransform="translate(1792.37)" gradientUnits="userSpaceOnUse"><stop offset="0" stop-color="#e7855f"/><stop offset="1" stop-color="#9a1418"/></linearGradient><filter id="luminosity-noclip-4" x="48.34" y="10.06" width="86.99" height="31.64" filterUnits="userSpaceOnUse" color-interpolation-filters="sRGB"><feFlood flood-color="#fff" result="bg"/><feBlend in="SourceGraphic" in2="bg"/></filter><mask id="mask-4" x="48.34" y="10.06" width="86.99" height="31.64" maskUnits="userSpaceOnUse"><g class="cls-1"><path class="cls-2" d="M50.44,33.61C53.76,27,57.15,21,61.22,14.36l.2-.33.4,0c2.82.15,5.82.36,8.91.62l.74.07L67.38,34.39l1.34.08,4.09-19.61.59.05c7.24.7,14.5,1.69,21.58,3l.53.1.59,18.72,1.33.13-.58-18.61.81.15a208.19,208.19,0,0,1,27.59,7.12l.26.09.12.24c2.63,5.24,5.06,10.34,7.4,15.54l2.3.35c-2.88-6.46-5.94-12.89-9.15-19.24a234.61,234.61,0,0,0-64.66-12.4c-4.87,7.83-9.13,15.4-13.18,23.48Z"/></g></mask><linearGradient id="Áåçûìÿííûé_ãðàäèåíò_29" x1="-1700.54" y1="39.57" x2="-1700.54" y2="11.27" gradientTransform="translate(1792.37)" gradientUnits="userSpaceOnUse"><stop offset="0" stop-color="#fff7cc"/><stop offset="1" stop-color="#fff7cc"/></linearGradient><filter id="luminosity-noclip-5" x="23.55" y="55.45" width="152.94" height="18.95" filterUnits="userSpaceOnUse" color-interpolation-filters="sRGB"><feFlood flood-color="#fff" result="bg"/><feBlend in="SourceGraphic" in2="bg"/></filter><mask id="mask-5" x="23.55" y="55.45" width="152.94" height="18.95" maskUnits="userSpaceOnUse"><g class="cls-3"><path class="cls-4" d="M142.49,63.4q15.75,1.89,31.45,4.22l2.55,6.78Q160.74,73,145,71.75ZM140,63.1Q119.46,60.67,98.82,59l.5,9.44q21.44,1.41,42.88,3.1ZM39.68,55.78q-7.29-.21-14.58-.33l-1.55,8.89q6.69.28,13.39.61Zm0,9.29q28.47,1.35,57,3.19l-.49-9.47q-26.8-2.11-53.82-2.94Z"/></g></mask><linearGradient id="Áåçûìÿííûé_ãðàäèåíò_29-2" x1="-1692.36" y1="69.45" x2="-1691.7" y2="58.84" xlink:href="#Áåçûìÿííûé_ãðàäèåíò_29"/><linearGradient id="Áåçûìÿííûé_ãðàäèåíò_54" x1="-1741.6" y1="68.12" x2="-1741.6" y2="61.8" gradientTransform="translate(1792.37)" gradientUnits="userSpaceOnUse"><stop offset="0" stop-color="#4da9a3"/><stop offset="1" stop-color="#004d5c"/></linearGradient><linearGradient id="Áåçûìÿííûé_ãðàäèåíò_32-3" x1="-1741.2" y1="61.17" x2="-1741.37" y2="66.44" xlink:href="#Áåçûìÿííûé_ãðàäèåíò_32"/><linearGradient id="Áåçûìÿííûé_ãðàäèåíò_54-2" x1="-1685.99" y1="94.69" x2="-1685.99" y2="88.33" gradientTransform="translate(1795.45 12.13) rotate(1.2)" xlink:href="#Áåçûìÿííûé_ãðàäèåíò_54"/><linearGradient id="Áåçûìÿííûé_ãðàäèåíò_32-4" x1="-1685.92" y1="87.71" x2="-1686.09" y2="93.01" gradientTransform="translate(1795.45 12.13) rotate(1.2)" xlink:href="#Áåçûìÿííûé_ãðàäèåíò_32"/><radialGradient id="Áåçûìÿííûé_ãðàäèåíò_4" cx="2341.6" cy="91.45" r="5.35" gradientTransform="matrix(-0.42, 0, -0.21, 1, 1199.67, 0.21)" gradientUnits="userSpaceOnUse"><stop offset="0" stop-color="#83f7c7"/><stop offset="0.88" stop-color="#00b8c4"/></radialGradient><linearGradient id="Áåçûìÿííûé_ãðàäèåíò_31" x1="-1696.17" y1="15.32" x2="-1693.29" y2="-0.5" gradientTransform="translate(1792.37)" gradientUnits="userSpaceOnUse"><stop offset="0.08" stop-color="#ffe696"/><stop offset="0.18" stop-color="#fdcf78"/><stop offset="0.35" stop-color="#fbad4b"/><stop offset="0.5" stop-color="#f9942a"/><stop offset="0.63" stop-color="#f78516"/><stop offset="0.71" stop-color="#f77f0f"/></linearGradient><filter id="luminosity-noclip-6" x="77.11" y="0.67" width="39.07" height="9.96" filterUnits="userSpaceOnUse" color-interpolation-filters="sRGB"><feFlood flood-color="#fff" result="bg"/><feBlend in="SourceGraphic" in2="bg"/></filter><mask id="mask-6" x="77.11" y="0.67" width="39.07" height="9.96" maskUnits="userSpaceOnUse"><g class="cls-5"><path class="cls-6" d="M116.18,10.63,115.06,5A182.75,182.75,0,0,0,78.71.67l-1.6,3.91A336.08,336.08,0,0,1,116.18,10.63Z"/></g></mask><linearGradient id="Áåçûìÿííûé_ãðàäèåíò_29-3" x1="-1695.79" y1="7.95" x2="-1694.9" y2="2.96" xlink:href="#Áåçûìÿííûé_ãðàäèåíò_29"/></defs><g class="cls-7"><g id="Layer_2" data-name="Layer 2"><g id="layer_1-2" data-name="layer 1"><path class="cls-8" d="M178.87,92.48l-.08.4h0l15.46.35h.24l.1-.24a24.29,24.29,0,0,0,1.67-11.84l-.06-.52h-.54l-3.35-.07.62.42a36.72,36.72,0,0,0-3.83-7.42,33.85,33.85,0,0,0-5.48-6.34l-.19-.17-.24,0c-6.59-1.31-13.22-2.4-19.86-3.35s-13.28-1.78-20-2.51l.73.53h0l-.91,1.23,1.2.13,1.45.15-.52-1.35a433.26,433.26,0,0,0-17.93-40.33l-.16-.32-.34-.12a237.64,237.64,0,0,0-32.43-8.62,233.06,233.06,0,0,0-33.32-4l-.52,0-.27.44c-4.49,7.19-8.69,14.57-12.53,22.13S40.45,46.32,37.17,54.13l-.5,1.17,1.28.06,1.51.07.11-1.78c-2.61-.12-5.21-.14-7.82-.22l-7.81-.2.87,1.05v0l.19-1H24l-4.11,0c-.7,0-1.36,0-2.06,0l-1.05.06-.55.06-.32.06-.21.06a1,1,0,0,0-.45.25l-.08.07-.08.13A49.4,49.4,0,0,0,9.38,70.81l.7-.73L4.6,71.2l-.76.15,0,.78A55.47,55.47,0,0,0,5.57,82.92,47.41,47.41,0,0,0,9.46,93.11l.16.3h.31L30.56,93h.06l0-.06L31.41,91l0,0,1.69,0-1.69,0h0v0l-.86,1.87.08-.06L9.93,92.36l.46.29A47,47,0,0,1,7,82.58,64.31,64.31,0,0,1,5.69,72L5,73l5.47-1.16.6-.12.1-.61a47.34,47.34,0,0,1,5.45-16.23l-.15.19c-.19.17-.22.14-.22.15h0l.18,0,.46,0,1-.05c.66,0,1.36,0,2,0l4,0-.85-1.05v0l-.19,1,1.05,0,7.79.2c2.59.08,5.19.1,7.78.23l.11-1.77L38,53.59l.79,1.23c3.27-7.78,6.76-15.46,10.59-23s8-14.84,12.46-22l-.8.41a229.76,229.76,0,0,1,33.07,3.94,235.42,235.42,0,0,1,32.18,8.55l-.51-.44a427.25,427.25,0,0,1,17.86,40.17l.93-1.2-1.21-.13L141.89,61l.58,1.39h0l.2.48.52.06c6.64.72,13.29,1.56,19.9,2.5s13.22,2,19.75,3.36l-.43-.22a40.75,40.75,0,0,1,5.35,5.94,35.46,35.46,0,0,1,4,7l.18.42h.43l3.35-.07-.59-.53a23.25,23.25,0,0,1-1.15,11.45l.33-.23-15.46.35h0Z"/><path class="cls-9" d="M163.24,102A8.8,8.8,0,0,1,156,98.7c-1.69-2.29-2-5.44-1-8.87,2.21-7.31,9.94-13.25,17.22-13.25h.12a8.83,8.83,0,0,1,7.29,3.33c1.68,2.29,2,5.44,1,8.87-2.21,7.3-9.93,13.24-17.21,13.24Z"/><path class="cls-9" d="M46.1,102a8.77,8.77,0,0,1-7.29-3.32c-1.69-2.29-2.05-5.44-1-8.87C40,82.52,47.73,76.58,55,76.58h.11a8.8,8.8,0,0,1,7.29,3.33c1.69,2.29,2,5.44,1,8.87C61.22,96.08,53.5,102,46.21,102Z"/><path class="cls-10" d="M205.93,100.77c0,1.64-46.1,3-103,3s-103-1.32-103-3,46.1-3,103-3S205.93,99.14,205.93,100.77Z"/><rect class="cls-9" x="23.99" y="72.2" width="159.13" height="18.8"/><path class="cls-11" d="M41.61,102.46a8.8,8.8,0,0,1-7.3-3.32c-1.68-2.29-2-5.44-1-8.88C35.52,83,43.24,77,50.52,77h.12a8.84,8.84,0,0,1,7.29,3.32c1.69,2.3,2,5.45,1,8.88-2.21,7.3-9.94,13.24-17.22,13.24Z"/><path class="cls-12" d="M42.54,96.5a3.92,3.92,0,0,1-3.11-1.26,4.74,4.74,0,0,1-.28-4.16c1.39-4.56,6.52-8.56,11-8.56h.08a4,4,0,0,1,3.12,1.26,4.74,4.74,0,0,1,.27,4.16c-1.38,4.56-6.51,8.56-11,8.56Z"/><path class="cls-13" d="M42.55,95.53a3.08,3.08,0,0,1-2.34-.86,3.92,3.92,0,0,1-.13-3.31c1.25-4.12,6.05-7.87,10.07-7.87h.07a3.14,3.14,0,0,1,2.35.86,3.92,3.92,0,0,1,.12,3.31c-1.25,4.11-6,7.86-10,7.87Z"/><path class="cls-14" d="M53.26,83.74l.14.18a3,3,0,0,1,.36.57,5.16,5.16,0,0,1,.61,2.39,6.86,6.86,0,0,1-1,3.57,13,13,0,0,1-2.94,3.43,15,15,0,0,1-3.76,2.49,8.67,8.67,0,0,1-3.61.78,6.42,6.42,0,0,1-2.43-.47,4.56,4.56,0,0,1-.8-.4,6.64,6.64,0,0,0,.84.31,6.87,6.87,0,0,0,2.38.23,8.8,8.8,0,0,0,3.38-1A17,17,0,0,0,50,93.38a14.57,14.57,0,0,0,2.9-3.21A6.9,6.9,0,0,0,54,86.88a5.33,5.33,0,0,0-.36-2.35,4.64,4.64,0,0,0-.29-.59Z"/><path class="cls-14" d="M37.77,100.49a3.69,3.69,0,0,1-.65-.23,5,5,0,0,1-1.56-1.08A6.44,6.44,0,0,1,34,96.77a9,9,0,0,1-.44-3.45,14.58,14.58,0,0,1,1.81-5.95,15.73,15.73,0,0,1,1-1.59c.26-.35.42-.54.42-.54l-.33.6c-.21.39-.5,1-.81,1.67a18.44,18.44,0,0,0-1.44,5.85,9.41,9.41,0,0,0,.31,3.24A6.9,6.9,0,0,0,35.8,99a5.73,5.73,0,0,0,1.36,1.21A4.48,4.48,0,0,0,37.77,100.49Z"/><path class="cls-15" d="M41.29,90.17c1.36,3.46,4.7,3.06,9.32.16,0,0-3.57,5-7.92,4.75C39.67,94.89,41.29,90.17,41.29,90.17Z"/><path class="cls-16" d="M30.65,86.91l31.08-1.24s13-15.46-4.44-13.83S30.65,86.91,30.65,86.91Z"/><path class="cls-17" d="M158.8,102.46a8.78,8.78,0,0,1-7.29-3.32c-1.69-2.29-2-5.44-1-8.88C152.71,83,160.44,77,167.72,77h.12a8.85,8.85,0,0,1,7.29,3.32c1.68,2.3,2,5.45,1,8.88-2.21,7.3-9.93,13.24-17.21,13.24Z"/><path class="cls-12" d="M159.74,96.5a3.93,3.93,0,0,1-3.12-1.26,4.71,4.71,0,0,1-.27-4.16c1.38-4.56,6.52-8.56,11-8.56h.08a3.93,3.93,0,0,1,3.12,1.26,4.71,4.71,0,0,1,.27,4.16c-1.38,4.56-6.51,8.56-11,8.56Z"/><path class="cls-18" d="M159.74,95.53a3.08,3.08,0,0,1-2.34-.86,3.92,3.92,0,0,1-.12-3.31c1.25-4.12,6-7.87,10.06-7.87h.08a3.12,3.12,0,0,1,2.34.86,3.89,3.89,0,0,1,.12,3.31c-1.24,4.11-6,7.86-10,7.87Z"/><path class="cls-14" d="M170.45,83.74l.15.18a4.55,4.55,0,0,1,.36.57,5.17,5.17,0,0,1,.6,2.39,6.94,6.94,0,0,1-.95,3.57,13.09,13.09,0,0,1-3,3.43,14.86,14.86,0,0,1-3.76,2.49,8.63,8.63,0,0,1-3.61.78,6.36,6.36,0,0,1-2.42-.47,5,5,0,0,1-.81-.4,6.64,6.64,0,0,0,.84.31,7,7,0,0,0,2.39.23,8.76,8.76,0,0,0,3.37-1,17.06,17.06,0,0,0,3.57-2.48,14.82,14.82,0,0,0,2.9-3.21,6.9,6.9,0,0,0,1.1-3.29,5.17,5.17,0,0,0-.37-2.35,3.59,3.59,0,0,0-.29-.59Z"/><path class="cls-14" d="M155,100.49a3.69,3.69,0,0,1-.65-.23,5.23,5.23,0,0,1-1.56-1.08,6.56,6.56,0,0,1-1.51-2.41,8.61,8.61,0,0,1-.44-3.45,15.06,15.06,0,0,1,2.82-7.54l.42-.54-.33.6c-.21.39-.5,1-.81,1.67a18.71,18.71,0,0,0-1.44,5.85,9.66,9.66,0,0,0,.31,3.24A6.74,6.74,0,0,0,153,99a5.37,5.37,0,0,0,1.36,1.21A4.13,4.13,0,0,0,155,100.49Z"/><path class="cls-15" d="M158.48,90.17c1.36,3.46,4.7,3.06,9.33.16,0,0-3.58,5-7.92,4.75C156.86,94.89,158.48,90.17,158.48,90.17Z"/><path class="cls-16" d="M147.85,86.91l31.07-1.24s13-15.46-4.43-13.83S147.85,86.91,147.85,86.91Z"/><path class="cls-19" d="M39.44,54.53c7.72-16.18,15.39-31,23-43.5,23,2,44.25,6.08,63.34,12.78,6.13,11.55,12,24.67,17.77,38.69Z"/><polygon class="cls-20" points="39.44 54.53 47.83 37.5 56.58 37.5 54.67 45.05 58.1 44.88 57.57 47.54 59.32 47.54 60.98 40.74 70.43 41.23 69.62 48.04 75.18 48.04 75.49 45.38 81.66 46.01 81.66 39.57 89.72 39.74 89.72 48.87 91.29 48.87 90.95 46.01 101.35 46.01 101.87 50.69 103.84 50.53 103.84 41.57 111.62 41.57 111.62 44.88 115.13 45.22 115.49 49.86 120.61 50.2 120.61 47.54 128.09 47.71 127.09 41.9 133.46 41.57 143.53 62.5 39.44 54.53"/><path class="cls-21" d="M61.78,14.71c2.92.15,5.89.37,8.89.63L62.28,55.63l2.68.14,8.38-40.2c7.08.68,14.32,1.67,21.52,3L96.1,57.78l2.66.2L97.54,19a209.2,209.2,0,0,1,27.5,7.1c6.14,12.22,10.94,23.22,15.78,35.66l-1.22-.13,5,.53a434,434,0,0,0-17.9-40.25A235.81,235.81,0,0,0,61.16,9.38,305.11,305.11,0,0,0,38,54.47l3.55.15C48.31,38.76,53.62,28,61.78,14.71Z"/><path class="cls-22" d="M195.73,81.23h-3.35a36.06,36.06,0,0,0-9.3-13.33c-10.53-2.15-23.92-4.07-38.53-5.73C111,58.54,75.42,56,38,54.47,24.84,54,16.32,54,15.88,54.4a48.2,48.2,0,0,0-5.57,16.54L4.84,72.08A52.32,52.32,0,0,0,10,92.88H30.62c2.95-8.11,11.63-14.49,19.87-14.41S63.4,84.89,61.61,92.88h86.25c2.95-8.11,11.63-14.49,19.87-14.41s12.91,6.42,11.12,14.41h15.47A23.72,23.72,0,0,0,195.73,81.23Z"/><path class="cls-23" d="M146.2,87.46a88.18,88.18,0,0,0-1.69-13.07c-.86-4.31-1.92-8.42-3.17-12.62l-1-.08c1.25,4.18,2.32,8.62,3.18,12.89A89.2,89.2,0,0,1,145.16,87l-9.44-.27-10-.35-20-.69-6.85-.27L98,57.87l-1,0,1.2,27.45-12.48-.5-10-.41L66.19,84a12.78,12.78,0,0,0-3.67-7.91A16.7,16.7,0,0,0,54.35,72a35,35,0,0,0-9.07-.71,59.39,59.39,0,0,0-8.2,1l5-17.48-1-.27-5.2,18.25-.23.78.8-.16a58.67,58.67,0,0,1,8.84-1.1,33.74,33.74,0,0,1,8.81.68,15.84,15.84,0,0,1,7.69,3.86,11.93,11.93,0,0,1,3.43,7.72h0l.06.45h.42l10,.28,10,.34,20,.7,20,.81,10,.41,10,.46h0l.54,0Z"/><path class="cls-24" d="M10.31,70.94H20.89L24,54.1a44.85,44.85,0,0,0-8.11.3A48.49,48.49,0,0,0,10.31,70.94Z"/><path class="cls-25" d="M16.24,55a30.47,30.47,0,0,0-2.4,5.74l7.77-.15L22.66,55Z"/><polygon class="cls-26" points="13.59 61.27 12.8 64.3 20.74 64.34 21.32 61.32 13.59 61.27"/><polygon class="cls-27" points="12.8 64.97 11.53 70.06 19.67 70.06 20.56 64.97 12.8 64.97"/><polygon class="cls-28" points="11.53 70.06 18.7 69.2 22.66 54.95 20.2 70.53 11.53 70.06"/><path class="cls-14" d="M20.56,55H16.24a44.74,44.74,0,0,0-4.47,14.16,75.16,75.16,0,0,1,5.85-12.19Z"/><path class="cls-28" d="M61.78,14.71c2.84.14,5.81.36,8.89.63L67.08,32.56l1.43-14.34a56.17,56.17,0,0,0-8.42-.73Z"/><path class="cls-28" d="M73.34,15.57q10.86,1,21.52,3l.54,17.24L93.65,21.54a201.39,201.39,0,0,0-21-2.75Z"/><path class="cls-28" d="M97.54,19a208.26,208.26,0,0,1,27.5,7.1L133.46,44,124.27,28a166.6,166.6,0,0,0-26.75-5.89Z"/><polygon class="cls-28" points="53.75 29.62 43.62 53.27 61.06 54.49 46.76 51.77 53.75 29.62"/><polygon class="cls-28" points="71.28 28.95 66.38 54.95 94.95 56.92 69.04 53.1 71.28 28.95"/><polygon class="cls-28" points="98.52 30.61 99.85 56.92 138.89 60.69 102.26 54.95 98.52 30.61"/><polygon class="cls-14" points="64.88 16.84 59.1 52.3 61.06 52.85 69.06 17.34 64.88 16.84"/><polygon class="cls-14" points="64.08 16.84 58.49 52.1 63.12 16.84 64.08 16.84"/><polygon class="cls-14" points="87.48 18.86 93.37 19.66 94.42 56.28 90.8 55.92 87.48 18.86"/><polygon class="cls-14" points="89.83 55.45 85.79 18.5 83.41 18.11 89.83 55.45"/><path class="cls-14" d="M123.85,27A289.28,289.28,0,0,1,138,60.15l-2.4-.58L116,24.64A25.83,25.83,0,0,1,123.85,27Z"/><polygon class="cls-14" points="133.3 59.05 114.05 24.14 110.62 23.14 131.97 58.74 133.3 59.05"/><g class="cls-29"><path class="cls-30" d="M50.44,33.61C53.76,27,57.15,21,61.22,14.36l.2-.33.4,0c2.82.15,5.82.36,8.91.62l.74.07L67.38,34.39l1.34.08,4.09-19.61.59.05c7.24.7,14.5,1.69,21.58,3l.53.1.59,18.72,1.33.13-.58-18.61.81.15a208.19,208.19,0,0,1,27.59,7.12l.26.09.12.24c2.63,5.24,5.06,10.34,7.4,15.54l2.3.35c-2.88-6.46-5.94-12.89-9.15-19.24a234.61,234.61,0,0,0-64.66-12.4c-4.87,7.83-9.13,15.4-13.18,23.48Z"/></g><path class="cls-28" d="M60.09,12.36l1,1.57a260.78,260.78,0,0,1,64.29,11.74l1.62-1A249,249,0,0,0,60.09,12.36Z"/><path class="cls-31" d="M182.16,68.45l-7-.83,5.74,13.28,10.21.41C189.41,76.19,186.72,71.7,182.16,68.45Z"/><polygon class="cls-27" points="175.77 68.12 181.08 80.46 185.29 80.68 178.48 68.45 175.77 68.12"/><polygon class="cls-32" points="176.16 68.47 179.38 75.92 182.2 75.92 178.3 68.7 176.16 68.47"/><path class="cls-8" d="M179.18,68.7l3,.37a20.19,20.19,0,0,1,5.73,6.44l-4.77-.21Z"/><polygon class="cls-28" points="175.77 68.12 181.08 80.46 190.47 80.94 182.2 79.16 175.77 68.12"/><polygon class="cls-8" points="183.56 75.92 188.12 76.07 188.97 77.81 187.37 77.81 186.85 76.5 183.56 75.92"/><g class="cls-33"><path class="cls-34" d="M142.49,63.4q15.75,1.89,31.45,4.22l2.55,6.78Q160.74,73,145,71.75ZM140,63.1Q119.46,60.67,98.82,59l.5,9.44q21.44,1.41,42.88,3.1ZM39.68,55.78q-7.29-.21-14.58-.33l-1.55,8.89q6.69.28,13.39.61Zm0,9.29q28.47,1.35,57,3.19l-.49-9.47q-26.8-2.11-53.82-2.94Z"/></g><polygon class="cls-35" points="43.62 61.27 42.46 66.96 59.1 67.51 59.1 62.16 43.62 61.27"/><polygon class="cls-36" points="44.03 61.85 43.62 64.72 58.49 64.97 58.49 62.74 44.03 61.85"/><polygon class="cls-37" points="43.67 64.66 58.43 65.02 58.43 65.85 43.67 65.11 43.67 64.66"/><polygon class="cls-14" points="44.34 62.16 58.13 63 58.13 64.05 44.03 63.41 44.34 62.16"/><polygon class="cls-14" points="43.65 66.14 43.1 66.62 58.68 67.3 58.44 66.83 43.65 66.14"/><polygon class="cls-38" points="99.89 64.5 99.89 70.11 115.9 71.11 116.01 65.77 99.89 64.5"/><polygon class="cls-39" points="100.48 65.11 100.48 68 115.34 68.56 115.39 66.33 100.48 65.11"/><polygon class="cls-37" points="100.54 67.94 115.28 68.61 115.27 69.44 100.53 68.39 100.54 67.94"/><polygon class="cls-14" points="100.92 65.43 115.02 66.59 115 67.64 100.92 66.7 100.92 65.43"/><polygon class="cls-14" points="100.07 69.81 100.48 69.25 115.28 70.33 115.63 70.83 100.07 69.81"/><path class="cls-14" d="M61.52,10.06c23.35,1.88,45,5.86,64.66,12.4l.59,1.18C106.15,17.25,84,13.36,60.65,11.46Z"/><path class="cls-14" d="M63.78,88s0-.14,0-.41a8.53,8.53,0,0,0-.19-1.14,10.6,10.6,0,0,0-1.65-3.75,12,12,0,0,0-4.39-3.84,17.43,17.43,0,0,0-6.89-1.83,23.3,23.3,0,0,0-3.75.09,25.72,25.72,0,0,0-3.47.66,23.76,23.76,0,0,0-5.6,2.36,22.08,22.08,0,0,0-3.42,2.44c-.4.32-.66.61-.87.78l-.3.28.21-.35c.15-.22.34-.58.65-1a17.58,17.58,0,0,1,3-3.24,19.7,19.7,0,0,1,5.67-3.4,21,21,0,0,1,3.82-1.06,20.14,20.14,0,0,1,4.28-.22A16.08,16.08,0,0,1,58.67,77a13,13,0,0,1,2.73,2.44,11.92,11.92,0,0,1,1.66,2.68A10,10,0,0,1,64,86.45a6.24,6.24,0,0,1-.12,1.19Z"/><path class="cls-14" d="M178.67,82.31l-.23-.27a5.82,5.82,0,0,0-.66-.75,10.19,10.19,0,0,0-2.88-2.06A16.59,16.59,0,0,0,170,77.76a22.17,22.17,0,0,0-6.24,0,22.59,22.59,0,0,0-10.38,4.68,31.06,31.06,0,0,0-2.72,2.43l-.94,1s.19-.44.61-1.23a20,20,0,0,1,2.12-3.13,19.07,19.07,0,0,1,4.26-3.8,17.39,17.39,0,0,1,6.64-2.56,17.73,17.73,0,0,1,7.11.39,14.46,14.46,0,0,1,5.19,2.54,9.54,9.54,0,0,1,2.5,2.94,5.89,5.89,0,0,1,.42.93Z"/><polygon class="cls-14" points="65 86.66 64.47 89.86 145.2 90.44 146.22 88.37 144.54 89.28 66.38 88.2 65 86.66"/><path class="cls-14" d="M10.31,89.81c-2.52-3.35-3.83-9.08-4.37-16.32l4.37-1.33,11-.06,1.34-5.56L22,73.49l-10.8.44L8.71,75.51C8,79.53,9,84.55,10.31,89.81Z"/><path class="cls-14" d="M177.76,74.87l2.77,6.44,14.4.7c.85,2.6.08,6.07-1.06,9.73.06-3.2,0-6.22-.94-8.18l-12.62-1.39Z"/><path class="cls-28" d="M189.35,87.62s.5-3.5,2.15-3.5c1.4,0,.28,3.5.28,3.5Z"/><path class="cls-40" d="M189.13,88c-.36,1.67-.07,3,.63,3s1.57-1.35,1.92-3,.07-3-.63-3S189.48,86.34,189.13,88Z"/><path class="cls-28" d="M191.75,87.62a2.29,2.29,0,0,1-2.54,0s.74-2.68,1.84-2.64S191.75,87.62,191.75,87.62Z"/><path class="cls-14" d="M189.46,88.28c-.22,1.33.06,2.32.62,2.2s1.2-1.32,1.42-2.65h0C190.6,89.43,189.91,89.6,189.46,88.28Z"/><path class="cls-28" d="M189.35,88.21c.18-1.31.83-2.58,1.43-2.81s1,.65.78,2h0C191.07,85.88,190.34,86.12,189.35,88.21Z"/><polygon class="cls-28" points="180.31 87.83 180.03 91.74 193.26 92.08 181.8 90.86 180.31 87.83"/><polygon class="cls-28" points="64.47 90.86 144.95 90.86 144.54 91.74 64.47 92.1 64.47 90.86"/><path class="cls-28" d="M12.8,91.48H29.17a28.15,28.15,0,0,1,3.49-6.43,36.71,36.71,0,0,0-4.74,4.76Z"/><path class="cls-14" d="M33.89,67.14H26.22l.8-8.33h8.92Zm-7.21-.41h6.89l1.84-7.5h-8Z"/><path class="cls-23" d="M33.62,66.83H25.87l.82-8.42h9Zm-7.2-.5h6.81l1.82-7.42H27.14Z"/><path class="cls-28" d="M99.44,80.3l45,2.27q-.41-3.41-1.16-6.81l-43.83-1.9Z"/><path class="cls-28" d="M96.77,73.74,59.1,72.1c3.25,2.18,5.87,4.35,7.28,6.53L97.43,80.2Z"/><path class="cls-28" d="M145.33,75.85a48.66,48.66,0,0,1,1,6.82l3.37.17a15.08,15.08,0,0,1,5.42-6.56Z"/><path class="cls-28" d="M23.55,72.1H34.9c-1.69,2.21-2.86,4.3-2.83,6.11l-7.55,0-1.79-4.31Z"/><path class="cls-41" d="M74,10.51,78.26,0a182.26,182.26,0,0,1,37.37,4.48l3,14.83Z"/><path class="cls-14" d="M78.69.55l-.5,1.27A159.39,159.39,0,0,1,114.38,6.1l3.27,12.19L115.2,5A162.56,162.56,0,0,0,78.69.55Z"/><path class="cls-28" d="M77.09,5.2,75.6,9.83c12.69,1.28,26.5,4.44,41,8.28-13.67-4.52-26.95-8.35-39.2-9.37Z"/><path class="cls-42" d="M101,4.35c0,.42,0,.64,0,1.07s0,.48,0,.81,0,.65,0,1.09L99.24,7c0-.43,0-.64,0-1.07l-1.19-.19C98,7.43,98,8.31,98,10l1.1.21c0,.72,0,1.07,0,1.75-1.71-.37-2.56-.55-4.27-.9,0-.63,0-1,.06-1.64l1.1.2c0-1.59.1-2.46.18-4.12L95,5.28c0,.41,0,.61-.07,1L93.09,6l.1-1c0-.3,0-.45.07-.74s.06-.59.1-1C96.44,3.68,98,3.88,101,4.35ZM89.88,9.62l2.59.49c.06-1,.1-1.52.2-2.61l-2.51-.39C90,8.16,90,8.69,89.88,9.62Zm-1.8-5.47,2.43.28c-.15,1.06-.22,1.62-.35,2.68-1-.16-1.51-.23-2.51-.37C87.81,5.71,87.9,5.17,88.08,4.15ZM85.16,6.39l2.49.35c-.16,1-.23,1.52-.34,2.41L84.77,8.7C84.89,7.86,85,7.37,85.16,6.39Zm-2-2.74,2.43.24c-.2,1-.3,1.51-.48,2.5l-2.48-.33C82.88,5.11,83,4.61,83.21,3.65Zm-3,2.11,2.45.3c-.19,1-.28,1.42-.42,2.2L79.8,7.85C79.94,7.11,80,6.67,80.23,5.76Zm31.43,8.6,2.44.64c-.19-1.33-.28-2-.47-3.34l-2.4-.57C111.4,12.41,111.49,13.06,111.66,14.36Zm-3.2-7,2.36.49c.16,1.31.25,2,.41,3.28l-2.42-.55ZM106.35,10l2.46.52c.14,1.29.21,1.94.36,3.2l-2.53-.61C106.52,11.91,106.46,11.28,106.35,10Zm-2.64-3.6,2.38.44c.11,1.26.16,1.9.26,3.16l-2.47-.51C103.81,8.28,103.77,7.65,103.71,6.42ZM101.38,9l2.5.49c.07,1.23.11,1.85.2,3L101.49,12C101.44,10.82,101.42,10.23,101.38,9Z"/><g class="cls-43"><path class="cls-44" d="M116.18,10.63,115.06,5A182.75,182.75,0,0,0,78.71.67l-1.6,3.91A336.08,336.08,0,0,1,116.18,10.63Z"/></g></g></g></g></svg>