<svg xmlns="http://www.w3.org/2000/svg" viewBox="0 0 59.54 253.91"><defs><style>.cls-1{isolation:isolate;}.cls-11,.cls-2{fill:#fff7cc;}.cls-3{fill:#ffde9f;}.cls-4{fill:#d17372;}.cls-5{fill:#864aa8;}.cls-6{fill:#462a66;}.cls-12,.cls-7{fill:#564963;}.cls-8{fill:#724899;}.cls-9{fill:#3d1a63;}.cls-10{fill:#b86053;opacity:0.5;}.cls-10,.cls-12{mix-blend-mode:multiply;}.cls-11{opacity:0.6;mix-blend-mode:overlay;}.cls-12{opacity:0.4;}.cls-13,.cls-14{fill:#cc76b2;}.cls-13{opacity:0.75;}</style></defs><g class="cls-1"><g id="Layer_2" data-name="Layer 2"><g id="layer_1-2" data-name="layer 1"><path class="cls-2" d="M46.69,253l-1.07-2.75,0,0H43.45v0l-3.33-49.46.36.34-2.53,0h-.37v-.37l-1.37-34.18L35,132.36l0-.64h1.8l-.62.63-.12-20.06.62.62H34.38l0-.61-.78-23.38,0-.64H41l-.62.58.27-4.12,0-.58h7.75l-.62.53.59-4.12.62.71H46.56l0-.6-.23-9.12v-.15l.06-.13a56.61,56.61,0,0,1,10-14.84l.57,1-10,1.89-.73.14v-.74L46,48.41v-.14l.06-.13A57.36,57.36,0,0,1,56.33,32.66l.57,1L46.79,35.6l-.75.14V35l.1-8.25V26.6l.05-.11A60,60,0,0,1,57.31,9.4l.57,1-10.68,2-.76.14,0-.77.21-7.09.62.65H37.92l0-.67L38.23.58l.62.67H20.26l.62-.7.5,4.12.08.7H12l.62-.69.74,7.46-1.22.23L12.09,12l.48.43-10.81-2,.55-1.06a65.34,65.34,0,0,1,12.3,17.51l-1.18.28h0l1.24-.05L15.23,35,14,35.26l0-.06.49.43L4.06,33.7l.55-1.06A62.1,62.1,0,0,1,15.93,48.48l.06.12v.14l.43,10,0,.78-.77-.15L5.43,57.48l.55-1a61.46,61.46,0,0,1,10.83,14.9l.07.13v.14l.25,9,0,.64H14.68l.61-.74.82,4.12-.61-.5h7.71l.07.55.5,4.12-.62-.55h7.39v.61l.56,23.38v.64H28.75l.62-.66.27,5.31,0,.65H24.25l0-.59L23.3,102l.63.59h-4.8l.62-.7L24.49,140l-.61-.54h2.27l-.62.66-.91-15.63,0-.65h4.79l-.63.62h0l1.25,0,.4,7.9-.62-.59h1.81v.61L32,149.42c.12,5.7.29,11.4.37,17.1L33,200.71v.39H30.05l.36-.36L29.9,250.2v0H27.69l0,0L26.8,253l.87-2.76h0l2.18,0,0,0-.14-49.48v-.35h.36l2.54,0-.38.38-1-34.18c-.19-5.7-.28-11.4-.43-17.1l-.4-17.09L31,133H29.18l0-.6-.41-7.9,1.25,0h0v.62H25.24l.62-.66L26.77,140l0,.65H23.33l-.07-.54L18.51,102l-.09-.7h6.09l0,.59.91,15.62-.62-.59H29l-.62.66-.27-5.31,0-.65h2.4l-.62.64-.55-23.38.62.6H22.61L22.54,89,22,84.86l.62.54H15l-.1-.5-.83-4.12L13.92,80h2.59l-.62.63-.25-9,.07.27A60.2,60.2,0,0,0,5.1,57.31L3.67,55.89l2,.37,10.27,1.91-.74.63-.44-10,.07.25A60.79,60.79,0,0,0,3.73,33.53L2.3,32.1l2,.37L14.7,34.41l.39.07.1.36v.06L14,35.12l-.55-7.9,1.24,0h0v2.67l-1.18-2.39A64,64,0,0,0,1.43,10.27L0,8.84l2,.37,10.81,2,.39.07.09.36.1.38-1.22.23-.74-7.45-.07-.69h9.41l-.62.7L19.64.7,19.56,0h20l0,.66-.26,4.12-.63-.66h9.36l0,.65-.21,7.08L47,11.22l10.68-2,1.89-.35-1.33,1.39A59.11,59.11,0,0,0,47.34,27l.06-.24L47.3,35l-.74-.62,10.11-1.9,1.9-.35-1.33,1.39a56.17,56.17,0,0,0-10,15.15l.06-.26.08,10.35-.74-.6,10-1.89,1.89-.36-1.32,1.4A55.42,55.42,0,0,0,47.5,71.81l.06-.28.23,9.11-.63-.6h2.56l-.1.71L49,84.87,49,85.4h-7.7l.62-.58-.26,4.12,0,.58H34.2l.63-.64.78,23.38-.63-.6h2.33v.62l.13,20.06V133H35.65l.63-.65,1.12,34.19.92,34.2-.38-.37,2.53,0h.35l0,.34,2.67,49.49,0,0,2.16,0h0Z"/><polygon class="cls-3" points="39.04 233.8 33.37 233.8 29.94 88.9 34.2 88.9 39.04 233.8"/><polygon class="cls-4" points="33.46 88.9 37.35 201.94 35.4 201.94 32.17 88.9 33.46 88.9"/><path class="cls-5" d="M14.05,27.17A64.65,64.65,0,0,0,1.87,9.82l10.82,2C14,16,14.17,21.39,14.05,27.17ZM14.59,35,4.17,33.09A62.15,62.15,0,0,1,15.9,49.79C16,44.23,15.83,39,14.59,35ZM16,58.81,5.54,56.87A62,62,0,0,1,17.27,73.58C17.39,68,17.19,62.82,16,58.81Z"/><path class="cls-6" d="M47.06,11.83l10.7-2A59.89,59.89,0,0,0,46.57,27.17C46.12,21.39,46,16,47.06,11.83ZM46,49.79a57.51,57.51,0,0,1,10.78-16.7L46.48,35C45.47,39,45.57,44.23,46,49.79Zm0,23.79A57.43,57.43,0,0,1,56.78,56.87L46.47,58.81C45.46,62.82,45.56,68,46,73.58Z"/><path class="cls-7" d="M47.16,80.66H16.51C16,54.14,14.58,28.71,12,4.74H47.3Q46,42.23,47.16,80.66Z"/><polygon class="cls-8" points="48.41 84.78 15.5 84.78 14.68 80.66 49 80.66 48.41 84.78"/><polygon class="cls-8" points="40.98 88.9 23.16 88.9 22.66 84.78 41.25 84.78 40.98 88.9"/><polygon class="cls-8" points="38.58 4.74 20.76 4.74 20.26 0.62 38.85 0.62 38.58 4.74"/><path class="cls-9" d="M29.85,11c5.56,0,9.95,4,10.11,9.12,0-.26,0-.51.06-.77.26-5.45-1.86-11-10.24-11-8.81,0-10.18,5.5-9.62,11,0,.26.07.51.11.77C20.14,15,24.3,11,29.85,11Z"/><path class="cls-9" d="M30.57,36.2c5.18,0,9.26,3.74,9.41,8.49,0-.24.05-.47.06-.71.24-5.08-1.73-10.2-9.54-10.2-8.2,0-9.48,5.12-8.95,10.2,0,.24.06.47.1.71C21.53,39.94,25.4,36.2,30.57,36.2Z"/><path class="cls-9" d="M31.26,60.2c4.8,0,8.59,3.47,8.73,7.87,0-.22,0-.44,0-.66.22-4.71-1.6-9.46-8.85-9.46-7.61,0-8.79,4.75-8.31,9.46,0,.22.06.44.1.66C22.87,63.67,26.46,60.2,31.26,60.2Z"/><polygon class="cls-7" points="40.48 200.72 30.05 200.72 29.87 250.2 43.48 250.2 40.48 200.72"/><path class="cls-7" d="M46.69,253a52,52,0,0,1-19.89,0l.89-2.75h18Z"/><polygon class="cls-7" points="36.81 132.34 29.77 132.34 28.75 112.28 36.69 112.28 36.81 132.34"/><polygon class="cls-6" points="29.37 124.44 24.57 124.44 24.37 117.59 29.17 117.59 29.37 124.44"/><polygon class="cls-7" points="26.15 140.06 23.88 140.06 19.13 101.96 23.93 101.96 26.15 140.06"/><path class="cls-10" d="M21.84,19.93C21.43,12.41,33.05,10.77,36.9,16c1.67,2.27,1.26,6.27-.28,8.53a9.3,9.3,0,0,1-7.15,4.18c2.81-2.59,6.46-9.11,2.23-12.16-2-1.41-4.32-.83-6.37.13C24.29,17.19,21.92,18.61,21.84,19.93Z"/><path class="cls-11" d="M23,21.86c0,1.72,2.09,5.41,4.32,4.55,1.91-.74.2-3.8-.56-4.85-.62-.86-2.25-2-3.38-1.25C22.81,20.69,23,21.3,23,21.86Z"/><path class="cls-10" d="M23.56,44.59c-.36-6.71,10-8.18,13.44-3.49,1.48,2,1.11,5.58-.26,7.6a8.3,8.3,0,0,1-6.37,3.73c2.51-2.31,5.76-8.12,2-10.84-1.75-1.26-3.86-.74-5.69.11C25.75,42.14,23.63,43.4,23.56,44.59Z"/><path class="cls-11" d="M24.63,46.31c0,1.53,1.86,4.82,3.85,4,1.7-.66.18-3.39-.5-4.32-.56-.77-2-1.75-3-1.12C24.43,45.26,24.56,45.81,24.63,46.31Z"/><path class="cls-10" d="M24.23,67.91c-.36-6.7,10-8.17,13.44-3.49,1.48,2,1.11,5.59-.26,7.61A8.26,8.26,0,0,1,31,75.75c2.51-2.3,5.76-8.11,2-10.83-1.75-1.27-3.86-.74-5.68.11C26.42,65.47,24.31,66.73,24.23,67.91Z"/><path class="cls-11" d="M25.3,69.64c0,1.52,1.86,4.82,3.85,4,1.7-.66.18-3.39-.5-4.32-.55-.77-2-1.75-3-1.12C25.1,68.59,25.23,69.13,25.3,69.64Z"/><polygon class="cls-12" points="44.14 8.38 44.81 79.51 20.05 79.51 41.25 77.82 44.14 8.38"/><path class="cls-13" d="M47.3,4.74H12c2.54,22.67,3.78,48.59,4.47,75.92C16.3,53.24,16,27.55,15.15,7.3Z"/><polygon class="cls-13" points="15.61 81.33 16.28 84.23 29.94 84 30.4 81.33 15.61 81.33"/><polygon class="cls-14" points="23.48 85.39 23.75 88.06 28.68 88.06 29.15 85.31 23.48 85.39"/><polygon class="cls-12" points="22.66 84.78 41.25 84.78 41.12 86.84 22.79 85.81 22.66 84.78"/><polygon class="cls-12" points="48.03 81.33 47.61 84.23 42.37 83.93 42.57 81.33 48.03 81.33"/><polygon class="cls-12" points="40.26 85.81 39.75 88.4 37.58 88.4 37.58 85.81 40.26 85.81"/><polygon class="cls-13" points="21.45 1.47 21.69 4.4 24.56 4.17 24.99 1.47 21.45 1.47"/><polygon class="cls-12" points="34.14 1.47 33.94 4.17 37.76 4.4 37.98 1.19 34.14 1.47"/><polygon class="cls-12" points="35.81 113.2 35.61 131.08 34.49 131.08 33.58 113.2 35.81 113.2"/><polygon class="cls-12" points="39.62 201.62 41.8 249.63 39.63 250.56 43.93 251.08 44.55 252.66 36.74 253.5 36.52 250.69 33.95 250.64 38.03 249.86 37.35 201.94 39.62 201.62"/><polygon class="cls-13" points="30.99 201.62 30.68 250.2 28.08 250.69 27.54 252.56 30.99 253.13 30.99 250.98 32.42 250.54 32.82 201.62 30.99 201.62"/></g></g></g></svg>