<svg xmlns="http://www.w3.org/2000/svg" viewBox="0 0 18.37 18.39"><defs><style>.cls-1{isolation:isolate;}.cls-2{fill:#bd660f;}.cls-3{fill:#b86053;opacity:0.5;mix-blend-mode:multiply;}.cls-4{fill:#fff7cc;opacity:0.6;mix-blend-mode:overlay;}</style></defs><g class="cls-1"><g id="Layer_2" data-name="Layer 2"><g id="Layer_2-2" data-name="Layer 2"><g id="yellow"><path class="cls-2" d="M18.36,9.19C18.6,4.12,14.38,0,8.94,0S-.48,4.12.05,9.19s4.74,9.2,9.42,9.2S18.12,14.27,18.36,9.19Z"/><path class="cls-3" d="M1.93,8.38c-.36-6.7,10-8.17,13.44-3.49,1.49,2,1.11,5.59-.26,7.6a8.22,8.22,0,0,1-6.37,3.73c2.51-2.3,5.76-8.11,2-10.84C9,4.12,6.87,4.64,5.05,5.5,4.12,5.94,2,7.2,1.93,8.38Z"/><path class="cls-4" d="M3,10.1c0,1.53,1.87,4.82,3.85,4.06,1.7-.66.18-3.39-.5-4.33-.55-.76-2-1.74-3-1.11C2.8,9.05,2.93,9.6,3,10.1Z"/></g></g></g></g></svg>